G04 MADE WITH FRITZING*
G04 WWW.FRITZING.ORG*
G04 DOUBLE SIDED*
G04 HOLES PLATED*
G04 CONTOUR ON CENTER OF CONTOUR VECTOR*
%ASAXBY*%
%FSLAX23Y23*%
%MOIN*%
%OFA0B0*%
%SFA1.0B1.0*%
%ADD10C,0.088000*%
%ADD11C,0.103000*%
%ADD12C,0.085000*%
%ADD13C,0.072992*%
%ADD14R,0.309999X0.310000*%
%ADD15C,0.000100*%
%ADD16C,0.030000*%
%ADD17C,0.025748*%
%ADD18R,0.001000X0.001000*%
%LNMASK1*%
G90*
G70*
G54D10*
X174Y442D03*
X174Y542D03*
X174Y642D03*
G54D11*
X489Y726D03*
X489Y206D03*
X489Y726D03*
X489Y206D03*
G54D12*
X161Y347D03*
X377Y139D03*
X66Y424D03*
X184Y148D03*
G54D13*
X361Y63D03*
X270Y100D03*
X593Y123D03*
X495Y116D03*
G54D14*
X489Y466D03*
G54D15*
G36*
X145Y413D02*
X145Y471D01*
X203Y471D01*
X203Y413D01*
X145Y413D01*
G37*
G54D16*
X145Y413D02*
X145Y471D01*
X203Y471D01*
X203Y413D01*
X145Y413D01*
D02*
G54D15*
G36*
X348Y94D02*
X392Y77D01*
X374Y33D01*
X330Y50D01*
X348Y94D01*
G37*
G54D17*
X348Y94D02*
X392Y77D01*
X374Y33D01*
X330Y50D01*
X348Y94D01*
D02*
G54D15*
G36*
X568Y144D02*
X615Y148D01*
X618Y101D01*
X571Y97D01*
X568Y144D01*
G37*
G54D17*
X568Y144D02*
X615Y148D01*
X618Y101D01*
X571Y97D01*
X568Y144D01*
D02*
G54D18*
X438Y777D02*
X539Y777D01*
X438Y776D02*
X540Y776D01*
X438Y775D02*
X540Y775D01*
X438Y774D02*
X540Y774D01*
X438Y773D02*
X540Y773D01*
X438Y772D02*
X540Y772D01*
X438Y771D02*
X540Y771D01*
X438Y770D02*
X540Y770D01*
X438Y769D02*
X540Y769D01*
X438Y768D02*
X540Y768D01*
X438Y767D02*
X540Y767D01*
X438Y766D02*
X540Y766D01*
X438Y765D02*
X540Y765D01*
X438Y764D02*
X540Y764D01*
X438Y763D02*
X540Y763D01*
X438Y762D02*
X540Y762D01*
X438Y761D02*
X540Y761D01*
X438Y760D02*
X540Y760D01*
X438Y759D02*
X540Y759D01*
X438Y758D02*
X540Y758D01*
X438Y757D02*
X487Y757D01*
X490Y757D02*
X540Y757D01*
X438Y756D02*
X480Y756D01*
X498Y756D02*
X540Y756D01*
X438Y755D02*
X477Y755D01*
X501Y755D02*
X540Y755D01*
X438Y754D02*
X475Y754D01*
X503Y754D02*
X540Y754D01*
X438Y753D02*
X473Y753D01*
X505Y753D02*
X540Y753D01*
X438Y752D02*
X471Y752D01*
X507Y752D02*
X540Y752D01*
X438Y751D02*
X470Y751D01*
X508Y751D02*
X540Y751D01*
X438Y750D02*
X469Y750D01*
X509Y750D02*
X540Y750D01*
X438Y749D02*
X467Y749D01*
X510Y749D02*
X540Y749D01*
X438Y748D02*
X466Y748D01*
X512Y748D02*
X540Y748D01*
X438Y747D02*
X465Y747D01*
X512Y747D02*
X540Y747D01*
X438Y746D02*
X465Y746D01*
X513Y746D02*
X540Y746D01*
X438Y745D02*
X464Y745D01*
X514Y745D02*
X540Y745D01*
X438Y744D02*
X463Y744D01*
X515Y744D02*
X540Y744D01*
X438Y743D02*
X462Y743D01*
X516Y743D02*
X540Y743D01*
X438Y742D02*
X462Y742D01*
X516Y742D02*
X540Y742D01*
X438Y741D02*
X461Y741D01*
X517Y741D02*
X540Y741D01*
X438Y740D02*
X460Y740D01*
X518Y740D02*
X540Y740D01*
X438Y739D02*
X460Y739D01*
X518Y739D02*
X540Y739D01*
X438Y738D02*
X459Y738D01*
X518Y738D02*
X540Y738D01*
X438Y737D02*
X459Y737D01*
X519Y737D02*
X540Y737D01*
X438Y736D02*
X459Y736D01*
X519Y736D02*
X540Y736D01*
X438Y735D02*
X458Y735D01*
X520Y735D02*
X540Y735D01*
X438Y734D02*
X458Y734D01*
X520Y734D02*
X540Y734D01*
X438Y733D02*
X458Y733D01*
X520Y733D02*
X540Y733D01*
X438Y732D02*
X458Y732D01*
X520Y732D02*
X540Y732D01*
X438Y731D02*
X457Y731D01*
X520Y731D02*
X540Y731D01*
X438Y730D02*
X457Y730D01*
X521Y730D02*
X540Y730D01*
X438Y729D02*
X457Y729D01*
X521Y729D02*
X540Y729D01*
X438Y728D02*
X457Y728D01*
X521Y728D02*
X540Y728D01*
X438Y727D02*
X457Y727D01*
X521Y727D02*
X540Y727D01*
X438Y726D02*
X457Y726D01*
X521Y726D02*
X540Y726D01*
X438Y725D02*
X457Y725D01*
X521Y725D02*
X540Y725D01*
X438Y724D02*
X457Y724D01*
X521Y724D02*
X540Y724D01*
X438Y723D02*
X457Y723D01*
X521Y723D02*
X540Y723D01*
X438Y722D02*
X457Y722D01*
X521Y722D02*
X540Y722D01*
X438Y721D02*
X457Y721D01*
X521Y721D02*
X540Y721D01*
X438Y720D02*
X457Y720D01*
X520Y720D02*
X540Y720D01*
X438Y719D02*
X458Y719D01*
X520Y719D02*
X540Y719D01*
X438Y718D02*
X458Y718D01*
X520Y718D02*
X540Y718D01*
X438Y717D02*
X458Y717D01*
X520Y717D02*
X540Y717D01*
X438Y716D02*
X458Y716D01*
X520Y716D02*
X540Y716D01*
X438Y715D02*
X459Y715D01*
X519Y715D02*
X540Y715D01*
X438Y714D02*
X459Y714D01*
X519Y714D02*
X540Y714D01*
X438Y713D02*
X460Y713D01*
X518Y713D02*
X540Y713D01*
X438Y712D02*
X460Y712D01*
X518Y712D02*
X540Y712D01*
X438Y711D02*
X461Y711D01*
X517Y711D02*
X540Y711D01*
X438Y710D02*
X461Y710D01*
X517Y710D02*
X540Y710D01*
X438Y709D02*
X462Y709D01*
X516Y709D02*
X540Y709D01*
X438Y708D02*
X462Y708D01*
X516Y708D02*
X540Y708D01*
X438Y707D02*
X463Y707D01*
X515Y707D02*
X540Y707D01*
X438Y706D02*
X464Y706D01*
X514Y706D02*
X540Y706D01*
X438Y705D02*
X465Y705D01*
X513Y705D02*
X540Y705D01*
X438Y704D02*
X466Y704D01*
X512Y704D02*
X540Y704D01*
X438Y703D02*
X467Y703D01*
X511Y703D02*
X540Y703D01*
X438Y702D02*
X468Y702D01*
X510Y702D02*
X540Y702D01*
X438Y701D02*
X469Y701D01*
X509Y701D02*
X540Y701D01*
X438Y700D02*
X470Y700D01*
X508Y700D02*
X540Y700D01*
X438Y699D02*
X472Y699D01*
X506Y699D02*
X540Y699D01*
X438Y698D02*
X473Y698D01*
X505Y698D02*
X540Y698D01*
X438Y697D02*
X475Y697D01*
X503Y697D02*
X540Y697D01*
X438Y696D02*
X478Y696D01*
X500Y696D02*
X540Y696D01*
X438Y695D02*
X481Y695D01*
X497Y695D02*
X540Y695D01*
X438Y694D02*
X540Y694D01*
X438Y693D02*
X540Y693D01*
X438Y692D02*
X540Y692D01*
X438Y691D02*
X540Y691D01*
X438Y690D02*
X540Y690D01*
X438Y689D02*
X540Y689D01*
X438Y688D02*
X540Y688D01*
X438Y687D02*
X540Y687D01*
X438Y686D02*
X540Y686D01*
X438Y685D02*
X540Y685D01*
X438Y684D02*
X540Y684D01*
X438Y683D02*
X540Y683D01*
X438Y682D02*
X540Y682D01*
X438Y681D02*
X540Y681D01*
X438Y680D02*
X540Y680D01*
X438Y679D02*
X540Y679D01*
X438Y678D02*
X540Y678D01*
X438Y677D02*
X540Y677D01*
X438Y676D02*
X540Y676D01*
X438Y675D02*
X540Y675D01*
X438Y257D02*
X540Y257D01*
X438Y256D02*
X540Y256D01*
X438Y255D02*
X540Y255D01*
X438Y254D02*
X540Y254D01*
X438Y253D02*
X540Y253D01*
X438Y252D02*
X540Y252D01*
X438Y251D02*
X540Y251D01*
X438Y250D02*
X540Y250D01*
X438Y249D02*
X540Y249D01*
X438Y248D02*
X540Y248D01*
X438Y247D02*
X540Y247D01*
X438Y246D02*
X540Y246D01*
X438Y245D02*
X540Y245D01*
X438Y244D02*
X540Y244D01*
X438Y243D02*
X540Y243D01*
X438Y242D02*
X540Y242D01*
X438Y241D02*
X540Y241D01*
X438Y240D02*
X540Y240D01*
X438Y239D02*
X540Y239D01*
X438Y238D02*
X540Y238D01*
X438Y237D02*
X483Y237D01*
X495Y237D02*
X540Y237D01*
X438Y236D02*
X479Y236D01*
X499Y236D02*
X540Y236D01*
X438Y235D02*
X476Y235D01*
X502Y235D02*
X540Y235D01*
X438Y234D02*
X474Y234D01*
X504Y234D02*
X540Y234D01*
X438Y233D02*
X472Y233D01*
X506Y233D02*
X540Y233D01*
X438Y232D02*
X471Y232D01*
X507Y232D02*
X540Y232D01*
X438Y231D02*
X469Y231D01*
X509Y231D02*
X540Y231D01*
X438Y230D02*
X468Y230D01*
X510Y230D02*
X540Y230D01*
X438Y229D02*
X467Y229D01*
X511Y229D02*
X540Y229D01*
X438Y228D02*
X466Y228D01*
X512Y228D02*
X540Y228D01*
X438Y227D02*
X465Y227D01*
X513Y227D02*
X540Y227D01*
X438Y226D02*
X464Y226D01*
X514Y226D02*
X540Y226D01*
X438Y225D02*
X463Y225D01*
X515Y225D02*
X540Y225D01*
X438Y224D02*
X463Y224D01*
X515Y224D02*
X540Y224D01*
X438Y223D02*
X462Y223D01*
X516Y223D02*
X540Y223D01*
X438Y222D02*
X461Y222D01*
X517Y222D02*
X540Y222D01*
X438Y221D02*
X461Y221D01*
X517Y221D02*
X540Y221D01*
X438Y220D02*
X460Y220D01*
X518Y220D02*
X540Y220D01*
X438Y219D02*
X460Y219D01*
X518Y219D02*
X540Y219D01*
X438Y218D02*
X459Y218D01*
X519Y218D02*
X540Y218D01*
X438Y217D02*
X459Y217D01*
X519Y217D02*
X540Y217D01*
X438Y216D02*
X459Y216D01*
X519Y216D02*
X540Y216D01*
X438Y215D02*
X458Y215D01*
X520Y215D02*
X540Y215D01*
X438Y214D02*
X458Y214D01*
X520Y214D02*
X540Y214D01*
X438Y213D02*
X458Y213D01*
X520Y213D02*
X540Y213D01*
X438Y212D02*
X458Y212D01*
X520Y212D02*
X540Y212D01*
X438Y211D02*
X457Y211D01*
X521Y211D02*
X540Y211D01*
X438Y210D02*
X457Y210D01*
X521Y210D02*
X540Y210D01*
X438Y209D02*
X457Y209D01*
X521Y209D02*
X540Y209D01*
X438Y208D02*
X457Y208D01*
X521Y208D02*
X540Y208D01*
X438Y207D02*
X457Y207D01*
X521Y207D02*
X540Y207D01*
X438Y206D02*
X457Y206D01*
X521Y206D02*
X540Y206D01*
X438Y205D02*
X457Y205D01*
X521Y205D02*
X540Y205D01*
X438Y204D02*
X457Y204D01*
X521Y204D02*
X540Y204D01*
X438Y203D02*
X457Y203D01*
X521Y203D02*
X540Y203D01*
X438Y202D02*
X457Y202D01*
X521Y202D02*
X540Y202D01*
X438Y201D02*
X457Y201D01*
X521Y201D02*
X540Y201D01*
X438Y200D02*
X458Y200D01*
X520Y200D02*
X540Y200D01*
X438Y199D02*
X458Y199D01*
X520Y199D02*
X540Y199D01*
X438Y198D02*
X458Y198D01*
X520Y198D02*
X540Y198D01*
X438Y197D02*
X458Y197D01*
X520Y197D02*
X540Y197D01*
X438Y196D02*
X459Y196D01*
X519Y196D02*
X540Y196D01*
X438Y195D02*
X459Y195D01*
X519Y195D02*
X540Y195D01*
X438Y194D02*
X459Y194D01*
X519Y194D02*
X540Y194D01*
X438Y193D02*
X460Y193D01*
X518Y193D02*
X540Y193D01*
X438Y192D02*
X460Y192D01*
X518Y192D02*
X540Y192D01*
X438Y191D02*
X461Y191D01*
X517Y191D02*
X540Y191D01*
X438Y190D02*
X461Y190D01*
X517Y190D02*
X540Y190D01*
X438Y189D02*
X462Y189D01*
X516Y189D02*
X540Y189D01*
X438Y188D02*
X463Y188D01*
X515Y188D02*
X540Y188D01*
X438Y187D02*
X463Y187D01*
X515Y187D02*
X540Y187D01*
X438Y186D02*
X464Y186D01*
X514Y186D02*
X540Y186D01*
X438Y185D02*
X465Y185D01*
X513Y185D02*
X540Y185D01*
X438Y184D02*
X466Y184D01*
X512Y184D02*
X540Y184D01*
X438Y183D02*
X467Y183D01*
X511Y183D02*
X540Y183D01*
X438Y182D02*
X468Y182D01*
X510Y182D02*
X540Y182D01*
X438Y181D02*
X469Y181D01*
X508Y181D02*
X540Y181D01*
X438Y180D02*
X471Y180D01*
X507Y180D02*
X540Y180D01*
X438Y179D02*
X472Y179D01*
X506Y179D02*
X540Y179D01*
X438Y178D02*
X474Y178D01*
X504Y178D02*
X540Y178D01*
X438Y177D02*
X476Y177D01*
X502Y177D02*
X540Y177D01*
X438Y176D02*
X479Y176D01*
X499Y176D02*
X540Y176D01*
X438Y175D02*
X483Y175D01*
X495Y175D02*
X540Y175D01*
X438Y174D02*
X540Y174D01*
X438Y173D02*
X540Y173D01*
X438Y172D02*
X540Y172D01*
X438Y171D02*
X540Y171D01*
X438Y170D02*
X540Y170D01*
X438Y169D02*
X540Y169D01*
X438Y168D02*
X540Y168D01*
X438Y167D02*
X540Y167D01*
X438Y166D02*
X540Y166D01*
X438Y165D02*
X540Y165D01*
X438Y164D02*
X540Y164D01*
X438Y163D02*
X540Y163D01*
X438Y162D02*
X540Y162D01*
X438Y161D02*
X540Y161D01*
X438Y160D02*
X540Y160D01*
X438Y159D02*
X540Y159D01*
X438Y158D02*
X540Y158D01*
X438Y157D02*
X540Y157D01*
X438Y156D02*
X540Y156D01*
X438Y155D02*
X540Y155D01*
D02*
G04 End of Mask1*
M02*