G04 MADE WITH FRITZING*
G04 WWW.FRITZING.ORG*
G04 DOUBLE SIDED*
G04 HOLES PLATED*
G04 CONTOUR ON CENTER OF CONTOUR VECTOR*
%ASAXBY*%
%FSLAX23Y23*%
%MOIN*%
%OFA0B0*%
%SFA1.0B1.0*%
%ADD10C,0.078000*%
%ADD11C,0.093000*%
%ADD12C,0.075000*%
%ADD13C,0.020000*%
%ADD14R,0.001000X0.001000*%
%LNCOPPER0*%
G90*
G70*
G54D10*
X174Y442D03*
X174Y542D03*
X174Y642D03*
G54D11*
X489Y726D03*
X489Y206D03*
G54D12*
X161Y347D03*
X377Y139D03*
X66Y424D03*
X184Y148D03*
G54D13*
X145Y413D02*
X145Y471D01*
X203Y471D01*
X203Y413D01*
X145Y413D01*
D02*
G54D14*
X443Y772D02*
X535Y772D01*
X443Y771D02*
X535Y771D01*
X443Y770D02*
X535Y770D01*
X443Y769D02*
X535Y769D01*
X443Y768D02*
X535Y768D01*
X443Y767D02*
X535Y767D01*
X443Y766D02*
X535Y766D01*
X443Y765D02*
X535Y765D01*
X443Y764D02*
X535Y764D01*
X443Y763D02*
X535Y763D01*
X443Y762D02*
X488Y762D01*
X490Y762D02*
X535Y762D01*
X443Y761D02*
X480Y761D01*
X498Y761D02*
X535Y761D01*
X443Y760D02*
X477Y760D01*
X501Y760D02*
X535Y760D01*
X443Y759D02*
X474Y759D01*
X504Y759D02*
X535Y759D01*
X443Y758D02*
X472Y758D01*
X506Y758D02*
X535Y758D01*
X443Y757D02*
X470Y757D01*
X508Y757D02*
X535Y757D01*
X443Y756D02*
X468Y756D01*
X510Y756D02*
X535Y756D01*
X443Y755D02*
X467Y755D01*
X511Y755D02*
X535Y755D01*
X443Y754D02*
X466Y754D01*
X512Y754D02*
X535Y754D01*
X443Y753D02*
X464Y753D01*
X513Y753D02*
X535Y753D01*
X443Y752D02*
X463Y752D01*
X515Y752D02*
X535Y752D01*
X443Y751D02*
X462Y751D01*
X516Y751D02*
X535Y751D01*
X443Y750D02*
X461Y750D01*
X516Y750D02*
X535Y750D01*
X443Y749D02*
X461Y749D01*
X517Y749D02*
X535Y749D01*
X443Y748D02*
X460Y748D01*
X518Y748D02*
X535Y748D01*
X443Y747D02*
X459Y747D01*
X519Y747D02*
X535Y747D01*
X443Y746D02*
X458Y746D01*
X520Y746D02*
X535Y746D01*
X443Y745D02*
X458Y745D01*
X520Y745D02*
X535Y745D01*
X443Y744D02*
X457Y744D01*
X521Y744D02*
X535Y744D01*
X443Y743D02*
X456Y743D01*
X521Y743D02*
X535Y743D01*
X443Y742D02*
X456Y742D01*
X522Y742D02*
X535Y742D01*
X443Y741D02*
X455Y741D01*
X522Y741D02*
X535Y741D01*
X443Y740D02*
X455Y740D01*
X523Y740D02*
X535Y740D01*
X443Y739D02*
X455Y739D01*
X523Y739D02*
X535Y739D01*
X443Y738D02*
X454Y738D01*
X524Y738D02*
X535Y738D01*
X443Y737D02*
X454Y737D01*
X524Y737D02*
X535Y737D01*
X443Y736D02*
X454Y736D01*
X524Y736D02*
X535Y736D01*
X443Y735D02*
X453Y735D01*
X525Y735D02*
X535Y735D01*
X443Y734D02*
X453Y734D01*
X525Y734D02*
X535Y734D01*
X443Y733D02*
X453Y733D01*
X525Y733D02*
X535Y733D01*
X443Y732D02*
X453Y732D01*
X525Y732D02*
X535Y732D01*
X443Y731D02*
X452Y731D01*
X525Y731D02*
X535Y731D01*
X443Y730D02*
X452Y730D01*
X526Y730D02*
X535Y730D01*
X443Y729D02*
X452Y729D01*
X526Y729D02*
X535Y729D01*
X443Y728D02*
X452Y728D01*
X526Y728D02*
X535Y728D01*
X443Y727D02*
X452Y727D01*
X526Y727D02*
X535Y727D01*
X443Y726D02*
X452Y726D01*
X526Y726D02*
X535Y726D01*
X443Y725D02*
X452Y725D01*
X526Y725D02*
X535Y725D01*
X443Y724D02*
X452Y724D01*
X526Y724D02*
X535Y724D01*
X443Y723D02*
X452Y723D01*
X526Y723D02*
X535Y723D01*
X443Y722D02*
X452Y722D01*
X526Y722D02*
X535Y722D01*
X443Y721D02*
X452Y721D01*
X526Y721D02*
X535Y721D01*
X443Y720D02*
X452Y720D01*
X525Y720D02*
X535Y720D01*
X443Y719D02*
X453Y719D01*
X525Y719D02*
X535Y719D01*
X443Y718D02*
X453Y718D01*
X525Y718D02*
X535Y718D01*
X443Y717D02*
X453Y717D01*
X525Y717D02*
X535Y717D01*
X443Y716D02*
X453Y716D01*
X525Y716D02*
X535Y716D01*
X443Y715D02*
X454Y715D01*
X524Y715D02*
X535Y715D01*
X443Y714D02*
X454Y714D01*
X524Y714D02*
X535Y714D01*
X443Y713D02*
X454Y713D01*
X524Y713D02*
X535Y713D01*
X443Y712D02*
X455Y712D01*
X523Y712D02*
X535Y712D01*
X443Y711D02*
X455Y711D01*
X523Y711D02*
X535Y711D01*
X443Y710D02*
X456Y710D01*
X522Y710D02*
X535Y710D01*
X443Y709D02*
X456Y709D01*
X522Y709D02*
X535Y709D01*
X443Y708D02*
X457Y708D01*
X521Y708D02*
X535Y708D01*
X443Y707D02*
X457Y707D01*
X521Y707D02*
X535Y707D01*
X443Y706D02*
X458Y706D01*
X520Y706D02*
X535Y706D01*
X443Y705D02*
X458Y705D01*
X520Y705D02*
X535Y705D01*
X443Y704D02*
X459Y704D01*
X519Y704D02*
X535Y704D01*
X443Y703D02*
X460Y703D01*
X518Y703D02*
X535Y703D01*
X443Y702D02*
X461Y702D01*
X517Y702D02*
X535Y702D01*
X443Y701D02*
X462Y701D01*
X516Y701D02*
X535Y701D01*
X443Y700D02*
X462Y700D01*
X515Y700D02*
X535Y700D01*
X443Y699D02*
X464Y699D01*
X514Y699D02*
X535Y699D01*
X443Y698D02*
X465Y698D01*
X513Y698D02*
X535Y698D01*
X443Y697D02*
X466Y697D01*
X512Y697D02*
X535Y697D01*
X443Y696D02*
X467Y696D01*
X511Y696D02*
X535Y696D01*
X443Y695D02*
X469Y695D01*
X509Y695D02*
X535Y695D01*
X443Y694D02*
X470Y694D01*
X508Y694D02*
X535Y694D01*
X443Y693D02*
X472Y693D01*
X506Y693D02*
X535Y693D01*
X443Y692D02*
X474Y692D01*
X504Y692D02*
X535Y692D01*
X443Y691D02*
X477Y691D01*
X501Y691D02*
X535Y691D01*
X443Y690D02*
X481Y690D01*
X497Y690D02*
X535Y690D01*
X443Y689D02*
X535Y689D01*
X443Y688D02*
X535Y688D01*
X443Y687D02*
X535Y687D01*
X443Y686D02*
X535Y686D01*
X443Y685D02*
X535Y685D01*
X443Y684D02*
X535Y684D01*
X443Y683D02*
X535Y683D01*
X443Y682D02*
X535Y682D01*
X443Y681D02*
X535Y681D01*
X443Y680D02*
X535Y680D01*
X443Y252D02*
X535Y252D01*
X443Y251D02*
X535Y251D01*
X443Y250D02*
X535Y250D01*
X443Y249D02*
X535Y249D01*
X443Y248D02*
X535Y248D01*
X443Y247D02*
X535Y247D01*
X443Y246D02*
X535Y246D01*
X443Y245D02*
X535Y245D01*
X443Y244D02*
X535Y244D01*
X443Y243D02*
X535Y243D01*
X443Y242D02*
X483Y242D01*
X495Y242D02*
X535Y242D01*
X443Y241D02*
X478Y241D01*
X500Y241D02*
X535Y241D01*
X443Y240D02*
X475Y240D01*
X503Y240D02*
X535Y240D01*
X443Y239D02*
X473Y239D01*
X505Y239D02*
X535Y239D01*
X443Y238D02*
X471Y238D01*
X507Y238D02*
X535Y238D01*
X443Y237D02*
X469Y237D01*
X509Y237D02*
X535Y237D01*
X443Y236D02*
X468Y236D01*
X510Y236D02*
X535Y236D01*
X443Y235D02*
X466Y235D01*
X512Y235D02*
X535Y235D01*
X443Y234D02*
X465Y234D01*
X513Y234D02*
X535Y234D01*
X443Y233D02*
X464Y233D01*
X514Y233D02*
X535Y233D01*
X443Y232D02*
X463Y232D01*
X515Y232D02*
X535Y232D01*
X443Y231D02*
X462Y231D01*
X516Y231D02*
X535Y231D01*
X443Y230D02*
X461Y230D01*
X517Y230D02*
X535Y230D01*
X443Y229D02*
X460Y229D01*
X518Y229D02*
X535Y229D01*
X443Y228D02*
X459Y228D01*
X519Y228D02*
X535Y228D01*
X443Y227D02*
X459Y227D01*
X519Y227D02*
X535Y227D01*
X443Y226D02*
X458Y226D01*
X520Y226D02*
X535Y226D01*
X443Y225D02*
X457Y225D01*
X521Y225D02*
X535Y225D01*
X443Y224D02*
X457Y224D01*
X521Y224D02*
X535Y224D01*
X443Y223D02*
X456Y223D01*
X522Y223D02*
X535Y223D01*
X443Y222D02*
X456Y222D01*
X522Y222D02*
X535Y222D01*
X443Y221D02*
X455Y221D01*
X523Y221D02*
X535Y221D01*
X443Y220D02*
X455Y220D01*
X523Y220D02*
X535Y220D01*
X443Y219D02*
X454Y219D01*
X524Y219D02*
X535Y219D01*
X443Y218D02*
X454Y218D01*
X524Y218D02*
X535Y218D01*
X443Y217D02*
X454Y217D01*
X524Y217D02*
X535Y217D01*
X443Y216D02*
X453Y216D01*
X525Y216D02*
X535Y216D01*
X443Y215D02*
X453Y215D01*
X525Y215D02*
X535Y215D01*
X443Y214D02*
X453Y214D01*
X525Y214D02*
X535Y214D01*
X443Y213D02*
X453Y213D01*
X525Y213D02*
X535Y213D01*
X443Y212D02*
X453Y212D01*
X525Y212D02*
X535Y212D01*
X443Y211D02*
X452Y211D01*
X526Y211D02*
X535Y211D01*
X443Y210D02*
X452Y210D01*
X526Y210D02*
X535Y210D01*
X443Y209D02*
X452Y209D01*
X526Y209D02*
X535Y209D01*
X443Y208D02*
X452Y208D01*
X526Y208D02*
X535Y208D01*
X443Y207D02*
X452Y207D01*
X526Y207D02*
X535Y207D01*
X443Y206D02*
X452Y206D01*
X526Y206D02*
X535Y206D01*
X443Y205D02*
X452Y205D01*
X526Y205D02*
X535Y205D01*
X443Y204D02*
X452Y204D01*
X526Y204D02*
X535Y204D01*
X443Y203D02*
X452Y203D01*
X526Y203D02*
X535Y203D01*
X443Y202D02*
X452Y202D01*
X526Y202D02*
X535Y202D01*
X443Y201D02*
X452Y201D01*
X526Y201D02*
X535Y201D01*
X443Y200D02*
X453Y200D01*
X525Y200D02*
X535Y200D01*
X443Y199D02*
X453Y199D01*
X525Y199D02*
X535Y199D01*
X443Y198D02*
X453Y198D01*
X525Y198D02*
X535Y198D01*
X443Y197D02*
X453Y197D01*
X525Y197D02*
X535Y197D01*
X443Y196D02*
X453Y196D01*
X524Y196D02*
X535Y196D01*
X443Y195D02*
X454Y195D01*
X524Y195D02*
X535Y195D01*
X443Y194D02*
X454Y194D01*
X524Y194D02*
X535Y194D01*
X443Y193D02*
X454Y193D01*
X523Y193D02*
X535Y193D01*
X443Y192D02*
X455Y192D01*
X523Y192D02*
X535Y192D01*
X443Y191D02*
X455Y191D01*
X523Y191D02*
X535Y191D01*
X443Y190D02*
X456Y190D01*
X522Y190D02*
X535Y190D01*
X443Y189D02*
X456Y189D01*
X522Y189D02*
X535Y189D01*
X443Y188D02*
X457Y188D01*
X521Y188D02*
X535Y188D01*
X443Y187D02*
X457Y187D01*
X521Y187D02*
X535Y187D01*
X443Y186D02*
X458Y186D01*
X520Y186D02*
X535Y186D01*
X443Y185D02*
X459Y185D01*
X519Y185D02*
X535Y185D01*
X443Y184D02*
X459Y184D01*
X518Y184D02*
X535Y184D01*
X443Y183D02*
X460Y183D01*
X518Y183D02*
X535Y183D01*
X443Y182D02*
X461Y182D01*
X517Y182D02*
X535Y182D01*
X443Y181D02*
X462Y181D01*
X516Y181D02*
X535Y181D01*
X443Y180D02*
X463Y180D01*
X515Y180D02*
X535Y180D01*
X443Y179D02*
X464Y179D01*
X514Y179D02*
X535Y179D01*
X443Y178D02*
X465Y178D01*
X513Y178D02*
X535Y178D01*
X443Y177D02*
X467Y177D01*
X511Y177D02*
X535Y177D01*
X443Y176D02*
X468Y176D01*
X510Y176D02*
X535Y176D01*
X443Y175D02*
X469Y175D01*
X508Y175D02*
X535Y175D01*
X443Y174D02*
X471Y174D01*
X507Y174D02*
X535Y174D01*
X443Y173D02*
X473Y173D01*
X505Y173D02*
X535Y173D01*
X443Y172D02*
X476Y172D01*
X502Y172D02*
X535Y172D01*
X443Y171D02*
X479Y171D01*
X499Y171D02*
X535Y171D01*
X443Y170D02*
X483Y170D01*
X495Y170D02*
X535Y170D01*
X443Y169D02*
X535Y169D01*
X443Y168D02*
X535Y168D01*
X443Y167D02*
X535Y167D01*
X443Y166D02*
X535Y166D01*
X443Y165D02*
X535Y165D01*
X443Y164D02*
X535Y164D01*
X443Y163D02*
X535Y163D01*
X443Y162D02*
X535Y162D01*
X443Y161D02*
X535Y161D01*
X443Y160D02*
X535Y160D01*
D02*
G04 End of Copper0*
M02*