G04 MADE WITH FRITZING*
G04 WWW.FRITZING.ORG*
G04 DOUBLE SIDED*
G04 HOLES PLATED*
G04 CONTOUR ON CENTER OF CONTOUR VECTOR*
%ASAXBY*%
%FSLAX23Y23*%
%MOIN*%
%OFA0B0*%
%SFA1.0B1.0*%
%ADD10C,0.005000*%
%ADD10C,0.008*%
%LNCONTOUR*%
G90*
G70*
G54D10*
G54D10*
X393Y827D02*
X394Y827D01*
X395Y827D01*
X396Y827D01*
X397Y827D01*
X398Y827D01*
X399Y827D01*
X400Y827D01*
X401Y827D01*
X402Y827D01*
X403Y827D01*
X404Y827D01*
X405Y827D01*
X406Y827D01*
X407Y827D01*
X408Y827D01*
X409Y827D01*
X410Y827D01*
X411Y827D01*
X412Y827D01*
X413Y827D01*
X414Y827D01*
X415Y827D01*
X416Y827D01*
X417Y827D01*
X418Y827D01*
X419Y827D01*
X420Y827D01*
X421Y827D01*
X422Y827D01*
X423Y827D01*
X424Y827D01*
X425Y827D01*
X426Y827D01*
X427Y827D01*
X428Y827D01*
X429Y827D01*
X430Y827D01*
X431Y827D01*
X432Y827D01*
X433Y826D01*
X434Y826D01*
X435Y826D01*
X436Y826D01*
X437Y826D01*
X438Y826D01*
X439Y826D01*
X440Y826D01*
X441Y826D01*
X442Y826D01*
X443Y826D01*
X444Y826D01*
X445Y826D01*
X446Y826D01*
X447Y826D01*
X448Y825D01*
X449Y825D01*
X450Y825D01*
X451Y825D01*
X452Y825D01*
X453Y825D01*
X454Y825D01*
X455Y825D01*
X456Y825D01*
X457Y825D01*
X458Y824D01*
X459Y824D01*
X460Y824D01*
X461Y824D01*
X462Y824D01*
X463Y824D01*
X464Y824D01*
X465Y824D01*
X466Y824D01*
X467Y823D01*
X468Y823D01*
X469Y823D01*
X470Y823D01*
X471Y823D01*
X472Y823D01*
X473Y823D01*
X474Y822D01*
X475Y822D01*
X476Y822D01*
X477Y822D01*
X478Y822D01*
X479Y822D01*
X480Y821D01*
X481Y821D01*
X482Y821D01*
X483Y821D01*
X484Y821D01*
X485Y821D01*
X486Y820D01*
X487Y820D01*
X488Y820D01*
X489Y820D01*
X490Y820D01*
X491Y819D01*
X492Y819D01*
X493Y819D01*
X494Y819D01*
X495Y819D01*
X496Y819D01*
X497Y818D01*
X498Y818D01*
X499Y818D01*
X500Y818D01*
X501Y817D01*
X502Y817D01*
X503Y817D01*
X504Y817D01*
X505Y817D01*
X506Y816D01*
X507Y816D01*
X508Y816D01*
X509Y816D01*
X510Y815D01*
X511Y815D01*
X512Y815D01*
X513Y815D01*
X514Y814D01*
X515Y814D01*
X516Y814D01*
X517Y814D01*
X518Y813D01*
X519Y813D01*
X520Y813D01*
X521Y813D01*
X522Y812D01*
X523Y812D01*
X524Y812D01*
X525Y811D01*
X526Y811D01*
X527Y811D01*
X528Y811D01*
X529Y810D01*
X530Y810D01*
X531Y810D01*
X532Y809D01*
X533Y809D01*
X534Y809D01*
X535Y808D01*
X536Y808D01*
X537Y808D01*
X538Y807D01*
X539Y807D01*
X540Y807D01*
X541Y807D01*
X542Y806D01*
X543Y806D01*
X544Y806D01*
X545Y805D01*
X546Y805D01*
X547Y805D01*
X548Y804D01*
X549Y804D01*
X550Y803D01*
X551Y803D01*
X552Y803D01*
X553Y802D01*
X554Y802D01*
X555Y802D01*
X556Y801D01*
X557Y801D01*
X558Y801D01*
X559Y800D01*
X560Y800D01*
X561Y799D01*
X562Y799D01*
X563Y799D01*
X564Y798D01*
X565Y798D01*
X566Y797D01*
X567Y797D01*
X568Y797D01*
X569Y796D01*
X570Y796D01*
X571Y795D01*
X572Y795D01*
X573Y795D01*
X574Y794D01*
X575Y794D01*
X576Y793D01*
X577Y793D01*
X578Y792D01*
X579Y792D01*
X580Y791D01*
X581Y791D01*
X582Y791D01*
X583Y790D01*
X584Y790D01*
X585Y789D01*
X586Y789D01*
X587Y788D01*
X588Y788D01*
X589Y787D01*
X590Y787D01*
X591Y786D01*
X592Y786D01*
X593Y785D01*
X594Y785D01*
X595Y784D01*
X596Y784D01*
X597Y783D01*
X598Y783D01*
X599Y782D01*
X600Y782D01*
X601Y781D01*
X602Y781D01*
X603Y780D01*
X604Y780D01*
X605Y779D01*
X606Y779D01*
X607Y778D01*
X608Y778D01*
X609Y777D01*
X610Y777D01*
X611Y776D01*
X612Y776D01*
X613Y775D01*
X614Y774D01*
X615Y774D01*
X616Y773D01*
X617Y773D01*
X618Y772D01*
X619Y772D01*
X620Y771D01*
X621Y770D01*
X622Y770D01*
X623Y769D01*
X624Y769D01*
X625Y768D01*
X626Y768D01*
X627Y767D01*
X628Y766D01*
X629Y766D01*
X630Y765D01*
X631Y764D01*
X632Y764D01*
X633Y763D01*
X634Y762D01*
X635Y762D01*
X636Y761D01*
X637Y761D01*
X638Y760D01*
X639Y759D01*
X640Y759D01*
X641Y758D01*
X642Y757D01*
X643Y757D01*
X644Y756D01*
X645Y755D01*
X646Y755D01*
X647Y754D01*
X648Y753D01*
X649Y752D01*
X650Y752D01*
X651Y751D01*
X652Y750D01*
X653Y750D01*
X654Y749D01*
X655Y748D01*
X656Y747D01*
X657Y747D01*
X658Y746D01*
X659Y745D01*
X660Y745D01*
X661Y744D01*
X662Y743D01*
X663Y742D01*
X664Y741D01*
X665Y741D01*
X666Y740D01*
X667Y739D01*
X668Y738D01*
X669Y738D01*
X670Y737D01*
X671Y736D01*
X672Y735D01*
X673Y734D01*
X674Y734D01*
X675Y733D01*
X676Y732D01*
X677Y731D01*
X678Y730D01*
X679Y729D01*
X680Y729D01*
X681Y728D01*
X682Y727D01*
X683Y726D01*
X684Y725D01*
X685Y724D01*
X686Y723D01*
X687Y722D01*
X688Y722D01*
X689Y721D01*
X690Y720D01*
X691Y719D01*
X692Y718D01*
X693Y717D01*
X694Y716D01*
X695Y715D01*
X696Y714D01*
X697Y713D01*
X698Y712D01*
X699Y711D01*
X700Y710D01*
X701Y709D01*
X702Y708D01*
X703Y707D01*
X704Y707D01*
X705Y706D01*
X705Y705D01*
X706Y704D01*
X707Y703D01*
X708Y702D01*
X709Y701D01*
X710Y700D01*
X711Y699D01*
X712Y698D01*
X713Y697D01*
X714Y696D01*
X715Y695D01*
X716Y694D01*
X717Y693D01*
X718Y692D01*
X719Y691D01*
X720Y690D01*
X720Y689D01*
X721Y688D01*
X722Y687D01*
X723Y686D01*
X724Y685D01*
X725Y684D01*
X726Y683D01*
X727Y682D01*
X727Y681D01*
X728Y680D01*
X729Y679D01*
X730Y678D01*
X731Y677D01*
X732Y676D01*
X732Y675D01*
X733Y674D01*
X734Y673D01*
X735Y672D01*
X736Y671D01*
X736Y670D01*
X737Y669D01*
X738Y668D01*
X739Y667D01*
X739Y666D01*
X740Y665D01*
X741Y664D01*
X742Y663D01*
X743Y662D01*
X743Y661D01*
X744Y660D01*
X745Y659D01*
X745Y658D01*
X746Y657D01*
X747Y656D01*
X748Y655D01*
X748Y654D01*
X749Y653D01*
X750Y652D01*
X750Y651D01*
X751Y650D01*
X752Y649D01*
X753Y648D01*
X753Y647D01*
X754Y646D01*
X755Y645D01*
X755Y644D01*
X756Y643D01*
X757Y642D01*
X757Y641D01*
X758Y640D01*
X759Y639D01*
X759Y638D01*
X760Y637D01*
X760Y636D01*
X761Y635D01*
X762Y634D01*
X762Y633D01*
X763Y632D01*
X764Y631D01*
X764Y630D01*
X765Y629D01*
X766Y628D01*
X766Y627D01*
X767Y626D01*
X767Y625D01*
X768Y624D01*
X768Y623D01*
X769Y622D01*
X770Y621D01*
X770Y620D01*
X771Y619D01*
X771Y618D01*
X772Y617D01*
X772Y616D01*
X773Y615D01*
X774Y614D01*
X774Y613D01*
X775Y612D01*
X775Y611D01*
X776Y610D01*
X776Y609D01*
X777Y608D01*
X777Y607D01*
X778Y606D01*
X778Y605D01*
X779Y604D01*
X779Y603D01*
X780Y602D01*
X780Y601D01*
X781Y600D01*
X781Y599D01*
X782Y598D01*
X782Y597D01*
X783Y596D01*
X783Y595D01*
X784Y594D01*
X784Y593D01*
X785Y592D01*
X785Y591D01*
X786Y590D01*
X786Y589D01*
X787Y588D01*
X787Y587D01*
X788Y586D01*
X788Y585D01*
X789Y584D01*
X789Y582D01*
X790Y581D01*
X790Y580D01*
X791Y579D01*
X791Y578D01*
X792Y577D01*
X792Y576D01*
X793Y575D01*
X793Y573D01*
X794Y572D01*
X794Y571D01*
X795Y570D01*
X795Y568D01*
X796Y567D01*
X796Y566D01*
X797Y565D01*
X797Y563D01*
X798Y562D01*
X798Y561D01*
X799Y560D01*
X799Y558D01*
X800Y557D01*
X800Y555D01*
X801Y554D01*
X801Y552D01*
X802Y551D01*
X802Y549D01*
X803Y548D01*
X803Y547D01*
X804Y546D01*
X804Y544D01*
X805Y543D01*
X805Y540D01*
X806Y539D01*
X806Y537D01*
X807Y536D01*
X807Y534D01*
X808Y533D01*
X808Y531D01*
X809Y530D01*
X809Y527D01*
X810Y526D01*
X810Y524D01*
X811Y523D01*
X811Y520D01*
X812Y519D01*
X812Y516D01*
X813Y515D01*
X813Y512D01*
X814Y511D01*
X814Y508D01*
X815Y507D01*
X815Y503D01*
X816Y502D01*
X816Y499D01*
X817Y498D01*
X817Y493D01*
X818Y492D01*
X818Y488D01*
X819Y487D01*
X819Y482D01*
X820Y481D01*
X820Y476D01*
X821Y475D01*
X821Y469D01*
X822Y468D01*
X822Y460D01*
X823Y459D01*
X823Y450D01*
X824Y449D01*
X824Y435D01*
X825Y434D01*
X825Y395D01*
X824Y394D01*
X824Y380D01*
X823Y379D01*
X823Y370D01*
X822Y369D01*
X822Y361D01*
X821Y360D01*
X821Y354D01*
X820Y353D01*
X820Y348D01*
X819Y347D01*
X819Y342D01*
X818Y341D01*
X818Y337D01*
X817Y336D01*
X817Y331D01*
X816Y330D01*
X816Y327D01*
X815Y326D01*
X815Y322D01*
X814Y321D01*
X814Y318D01*
X813Y317D01*
X813Y314D01*
X812Y313D01*
X812Y310D01*
X811Y309D01*
X811Y306D01*
X810Y305D01*
X810Y303D01*
X809Y302D01*
X809Y299D01*
X808Y298D01*
X808Y296D01*
X807Y295D01*
X807Y293D01*
X806Y292D01*
X806Y290D01*
X805Y289D01*
X805Y286D01*
X804Y285D01*
X804Y283D01*
X803Y282D01*
X803Y281D01*
X802Y280D01*
X802Y278D01*
X801Y277D01*
X801Y275D01*
X800Y274D01*
X800Y272D01*
X799Y271D01*
X799Y269D01*
X798Y268D01*
X798Y267D01*
X797Y266D01*
X797Y264D01*
X796Y263D01*
X796Y262D01*
X795Y261D01*
X795Y259D01*
X794Y258D01*
X794Y257D01*
X793Y256D01*
X793Y254D01*
X792Y253D01*
X792Y252D01*
X791Y251D01*
X791Y250D01*
X790Y249D01*
X790Y248D01*
X789Y247D01*
X789Y245D01*
X788Y244D01*
X788Y243D01*
X787Y242D01*
X787Y241D01*
X786Y240D01*
X786Y239D01*
X785Y238D01*
X785Y237D01*
X784Y236D01*
X784Y235D01*
X783Y234D01*
X783Y233D01*
X782Y232D01*
X782Y231D01*
X781Y230D01*
X781Y229D01*
X780Y228D01*
X780Y227D01*
X779Y226D01*
X779Y225D01*
X778Y224D01*
X778Y223D01*
X777Y222D01*
X777Y221D01*
X776Y220D01*
X776Y219D01*
X775Y218D01*
X775Y217D01*
X774Y216D01*
X774Y215D01*
X773Y214D01*
X772Y213D01*
X772Y212D01*
X771Y211D01*
X771Y210D01*
X770Y209D01*
X770Y208D01*
X769Y207D01*
X768Y206D01*
X768Y205D01*
X767Y204D01*
X767Y203D01*
X766Y202D01*
X766Y201D01*
X765Y200D01*
X764Y199D01*
X764Y198D01*
X763Y197D01*
X762Y196D01*
X762Y195D01*
X761Y194D01*
X760Y193D01*
X760Y192D01*
X759Y191D01*
X759Y190D01*
X758Y190D01*
X757Y189D01*
X757Y187D01*
X756Y186D01*
X755Y185D01*
X755Y184D01*
X754Y183D01*
X753Y182D01*
X753Y181D01*
X752Y180D01*
X751Y179D01*
X750Y178D01*
X750Y177D01*
X749Y176D01*
X748Y175D01*
X748Y174D01*
X747Y173D01*
X746Y172D01*
X745Y171D01*
X745Y170D01*
X744Y169D01*
X743Y168D01*
X743Y167D01*
X742Y166D01*
X741Y165D01*
X740Y164D01*
X739Y163D01*
X739Y162D01*
X738Y161D01*
X737Y160D01*
X736Y159D01*
X736Y158D01*
X735Y157D01*
X734Y156D01*
X733Y155D01*
X732Y154D01*
X732Y153D01*
X731Y152D01*
X730Y151D01*
X729Y150D01*
X728Y149D01*
X727Y148D01*
X727Y147D01*
X726Y146D01*
X725Y145D01*
X724Y144D01*
X723Y143D01*
X722Y142D01*
X721Y141D01*
X720Y140D01*
X720Y139D01*
X719Y138D01*
X718Y137D01*
X717Y136D01*
X716Y135D01*
X715Y134D01*
X714Y133D01*
X713Y132D01*
X712Y131D01*
X711Y130D01*
X710Y129D01*
X709Y128D01*
X708Y127D01*
X707Y126D01*
X706Y125D01*
X705Y124D01*
X705Y123D01*
X704Y122D01*
X703Y122D01*
X702Y121D01*
X701Y120D01*
X700Y119D01*
X699Y118D01*
X698Y117D01*
X697Y116D01*
X696Y115D01*
X695Y114D01*
X694Y113D01*
X693Y112D01*
X692Y111D01*
X691Y110D01*
X690Y109D01*
X689Y108D01*
X688Y107D01*
X687Y107D01*
X686Y106D01*
X685Y105D01*
X684Y104D01*
X683Y103D01*
X682Y102D01*
X681Y101D01*
X680Y100D01*
X679Y100D01*
X678Y99D01*
X677Y98D01*
X676Y97D01*
X675Y96D01*
X674Y95D01*
X673Y95D01*
X672Y94D01*
X671Y93D01*
X670Y92D01*
X669Y91D01*
X668Y91D01*
X667Y90D01*
X666Y89D01*
X665Y88D01*
X664Y88D01*
X663Y87D01*
X662Y86D01*
X661Y85D01*
X660Y84D01*
X659Y84D01*
X658Y83D01*
X657Y82D01*
X656Y82D01*
X655Y81D01*
X654Y80D01*
X653Y79D01*
X652Y79D01*
X651Y78D01*
X650Y77D01*
X649Y77D01*
X648Y76D01*
X647Y75D01*
X646Y74D01*
X645Y74D01*
X644Y73D01*
X643Y72D01*
X642Y72D01*
X641Y71D01*
X640Y70D01*
X639Y70D01*
X638Y69D01*
X637Y68D01*
X636Y68D01*
X635Y67D01*
X634Y67D01*
X633Y66D01*
X632Y65D01*
X631Y65D01*
X630Y64D01*
X629Y63D01*
X628Y63D01*
X627Y62D01*
X626Y61D01*
X625Y61D01*
X624Y60D01*
X623Y60D01*
X622Y59D01*
X621Y59D01*
X620Y58D01*
X619Y57D01*
X618Y57D01*
X617Y56D01*
X616Y56D01*
X615Y55D01*
X614Y55D01*
X613Y54D01*
X612Y53D01*
X611Y53D01*
X610Y52D01*
X609Y52D01*
X608Y51D01*
X607Y51D01*
X606Y50D01*
X605Y50D01*
X604Y49D01*
X603Y49D01*
X602Y48D01*
X601Y48D01*
X600Y47D01*
X599Y47D01*
X598Y46D01*
X597Y46D01*
X596Y45D01*
X595Y45D01*
X594Y44D01*
X593Y44D01*
X592Y43D01*
X591Y43D01*
X590Y42D01*
X589Y42D01*
X588Y41D01*
X587Y41D01*
X586Y40D01*
X585Y40D01*
X584Y39D01*
X583Y39D01*
X582Y38D01*
X581Y38D01*
X580Y38D01*
X579Y37D01*
X578Y37D01*
X577Y36D01*
X576Y36D01*
X575Y35D01*
X574Y35D01*
X573Y34D01*
X572Y34D01*
X571Y34D01*
X570Y33D01*
X569Y33D01*
X568Y32D01*
X567Y32D01*
X566Y32D01*
X565Y31D01*
X564Y31D01*
X563Y30D01*
X562Y30D01*
X561Y30D01*
X560Y29D01*
X559Y29D01*
X558Y28D01*
X557Y28D01*
X556Y28D01*
X555Y27D01*
X554Y27D01*
X553Y27D01*
X552Y26D01*
X551Y26D01*
X550Y26D01*
X549Y25D01*
X548Y25D01*
X547Y25D01*
X546Y24D01*
X545Y24D01*
X544Y23D01*
X543Y23D01*
X542Y23D01*
X541Y22D01*
X540Y22D01*
X539Y22D01*
X538Y22D01*
X537Y21D01*
X536Y21D01*
X535Y21D01*
X534Y20D01*
X533Y20D01*
X532Y20D01*
X531Y19D01*
X530Y19D01*
X529Y19D01*
X528Y18D01*
X527Y18D01*
X526Y18D01*
X525Y18D01*
X524Y17D01*
X523Y17D01*
X522Y17D01*
X521Y16D01*
X520Y16D01*
X519Y16D01*
X518Y16D01*
X517Y15D01*
X516Y15D01*
X515Y15D01*
X514Y15D01*
X513Y14D01*
X512Y14D01*
X511Y14D01*
X510Y14D01*
X509Y13D01*
X508Y13D01*
X507Y13D01*
X506Y13D01*
X505Y12D01*
X504Y12D01*
X503Y12D01*
X502Y12D01*
X501Y12D01*
X500Y11D01*
X499Y11D01*
X498Y11D01*
X497Y11D01*
X496Y10D01*
X495Y10D01*
X494Y10D01*
X493Y10D01*
X492Y10D01*
X491Y10D01*
X490Y9D01*
X489Y9D01*
X488Y9D01*
X487Y9D01*
X486Y9D01*
X485Y8D01*
X484Y8D01*
X483Y8D01*
X482Y8D01*
X481Y8D01*
X480Y8D01*
X479Y7D01*
X478Y7D01*
X477Y7D01*
X476Y7D01*
X475Y7D01*
X474Y7D01*
X473Y6D01*
X472Y6D01*
X471Y6D01*
X470Y6D01*
X469Y6D01*
X468Y6D01*
X467Y6D01*
X466Y5D01*
X465Y5D01*
X464Y5D01*
X463Y5D01*
X462Y5D01*
X461Y5D01*
X460Y5D01*
X459Y5D01*
X458Y5D01*
X457Y4D01*
X456Y4D01*
X455Y4D01*
X454Y4D01*
X453Y4D01*
X452Y4D01*
X451Y4D01*
X450Y4D01*
X449Y4D01*
X448Y4D01*
X447Y3D01*
X446Y3D01*
X445Y3D01*
X444Y3D01*
X443Y3D01*
X442Y3D01*
X441Y3D01*
X440Y3D01*
X439Y3D01*
X438Y3D01*
X437Y3D01*
X436Y3D01*
X435Y3D01*
X434Y3D01*
X433Y3D01*
X432Y2D01*
X431Y2D01*
X430Y2D01*
X429Y2D01*
X428Y2D01*
X427Y2D01*
X426Y2D01*
X425Y2D01*
X424Y2D01*
X423Y2D01*
X422Y2D01*
X421Y2D01*
X420Y2D01*
X419Y2D01*
X418Y2D01*
X417Y2D01*
X416Y2D01*
X415Y2D01*
X414Y2D01*
X413Y2D01*
X412Y2D01*
X411Y2D01*
X410Y2D01*
X409Y2D01*
X408Y2D01*
X407Y2D01*
X406Y2D01*
X405Y2D01*
X404Y2D01*
X403Y2D01*
X402Y2D01*
X401Y2D01*
X400Y2D01*
X399Y2D01*
X398Y2D01*
X397Y2D01*
X396Y2D01*
X395Y2D01*
X394Y2D01*
X393Y2D01*
X392Y3D01*
X391Y3D01*
X390Y3D01*
X389Y3D01*
X388Y3D01*
X387Y3D01*
X386Y3D01*
X385Y3D01*
X384Y3D01*
X383Y3D01*
X382Y3D01*
X381Y3D01*
X380Y3D01*
X379Y3D01*
X378Y3D01*
X377Y4D01*
X376Y4D01*
X375Y4D01*
X374Y4D01*
X373Y4D01*
X372Y4D01*
X371Y4D01*
X370Y4D01*
X369Y4D01*
X368Y4D01*
X367Y5D01*
X366Y5D01*
X365Y5D01*
X364Y5D01*
X363Y5D01*
X362Y5D01*
X361Y5D01*
X360Y5D01*
X359Y5D01*
X358Y6D01*
X357Y6D01*
X356Y6D01*
X355Y6D01*
X354Y6D01*
X353Y6D01*
X352Y6D01*
X351Y7D01*
X350Y7D01*
X349Y7D01*
X348Y7D01*
X347Y7D01*
X346Y7D01*
X345Y8D01*
X344Y8D01*
X343Y8D01*
X342Y8D01*
X341Y8D01*
X340Y8D01*
X339Y9D01*
X338Y9D01*
X337Y9D01*
X336Y9D01*
X335Y9D01*
X334Y10D01*
X333Y10D01*
X332Y10D01*
X331Y10D01*
X330Y10D01*
X329Y10D01*
X328Y11D01*
X327Y11D01*
X326Y11D01*
X325Y11D01*
X324Y12D01*
X323Y12D01*
X322Y12D01*
X321Y12D01*
X320Y12D01*
X319Y13D01*
X318Y13D01*
X317Y13D01*
X316Y13D01*
X315Y14D01*
X314Y14D01*
X313Y14D01*
X312Y14D01*
X311Y15D01*
X310Y15D01*
X309Y15D01*
X308Y15D01*
X307Y16D01*
X306Y16D01*
X305Y16D01*
X304Y16D01*
X303Y17D01*
X302Y17D01*
X301Y17D01*
X300Y18D01*
X299Y18D01*
X298Y18D01*
X297Y18D01*
X296Y19D01*
X295Y19D01*
X294Y19D01*
X293Y20D01*
X292Y20D01*
X291Y20D01*
X290Y21D01*
X289Y21D01*
X288Y21D01*
X287Y22D01*
X286Y22D01*
X285Y22D01*
X284Y22D01*
X283Y23D01*
X282Y23D01*
X281Y23D01*
X280Y24D01*
X279Y24D01*
X278Y25D01*
X277Y25D01*
X276Y25D01*
X275Y26D01*
X274Y26D01*
X273Y26D01*
X272Y27D01*
X271Y27D01*
X270Y27D01*
X269Y28D01*
X268Y28D01*
X267Y28D01*
X266Y29D01*
X265Y29D01*
X264Y30D01*
X263Y30D01*
X262Y30D01*
X261Y31D01*
X260Y31D01*
X259Y32D01*
X258Y32D01*
X257Y32D01*
X256Y33D01*
X255Y33D01*
X254Y34D01*
X253Y34D01*
X252Y34D01*
X251Y35D01*
X250Y35D01*
X249Y36D01*
X248Y36D01*
X247Y37D01*
X246Y37D01*
X245Y38D01*
X244Y38D01*
X243Y38D01*
X242Y39D01*
X241Y39D01*
X240Y40D01*
X239Y40D01*
X238Y41D01*
X237Y41D01*
X236Y42D01*
X235Y42D01*
X234Y43D01*
X233Y43D01*
X232Y44D01*
X231Y44D01*
X230Y45D01*
X229Y45D01*
X228Y46D01*
X227Y46D01*
X226Y47D01*
X225Y47D01*
X224Y48D01*
X223Y48D01*
X222Y49D01*
X221Y49D01*
X220Y50D01*
X219Y50D01*
X218Y51D01*
X217Y51D01*
X216Y52D01*
X215Y52D01*
X214Y53D01*
X213Y53D01*
X212Y54D01*
X211Y55D01*
X210Y55D01*
X209Y56D01*
X208Y56D01*
X207Y57D01*
X206Y57D01*
X205Y58D01*
X204Y59D01*
X203Y59D01*
X202Y60D01*
X201Y60D01*
X200Y61D01*
X199Y61D01*
X198Y62D01*
X197Y63D01*
X196Y63D01*
X195Y64D01*
X194Y65D01*
X193Y65D01*
X192Y66D01*
X191Y67D01*
X190Y67D01*
X189Y68D01*
X188Y68D01*
X187Y69D01*
X186Y70D01*
X185Y70D01*
X184Y71D01*
X183Y72D01*
X182Y72D01*
X181Y73D01*
X180Y74D01*
X179Y74D01*
X178Y75D01*
X177Y76D01*
X176Y77D01*
X175Y77D01*
X174Y78D01*
X173Y79D01*
X172Y79D01*
X171Y80D01*
X170Y81D01*
X169Y82D01*
X168Y82D01*
X167Y83D01*
X166Y84D01*
X165Y84D01*
X164Y85D01*
X163Y86D01*
X162Y87D01*
X161Y88D01*
X160Y88D01*
X159Y89D01*
X158Y90D01*
X157Y91D01*
X156Y91D01*
X155Y92D01*
X154Y93D01*
X153Y94D01*
X152Y95D01*
X151Y95D01*
X150Y96D01*
X149Y97D01*
X148Y98D01*
X147Y99D01*
X146Y100D01*
X145Y100D01*
X144Y101D01*
X143Y102D01*
X142Y103D01*
X141Y104D01*
X140Y105D01*
X139Y106D01*
X138Y107D01*
X137Y107D01*
X136Y108D01*
X135Y109D01*
X134Y110D01*
X133Y111D01*
X132Y112D01*
X131Y113D01*
X130Y114D01*
X129Y115D01*
X128Y116D01*
X127Y117D01*
X126Y118D01*
X125Y119D01*
X124Y120D01*
X123Y121D01*
X122Y122D01*
X121Y122D01*
X120Y123D01*
X120Y124D01*
X119Y125D01*
X118Y126D01*
X117Y127D01*
X116Y128D01*
X115Y129D01*
X114Y130D01*
X113Y131D01*
X112Y132D01*
X111Y133D01*
X110Y134D01*
X109Y135D01*
X108Y136D01*
X107Y137D01*
X106Y138D01*
X105Y139D01*
X105Y140D01*
X104Y141D01*
X103Y142D01*
X102Y143D01*
X101Y144D01*
X100Y145D01*
X99Y146D01*
X98Y147D01*
X98Y148D01*
X97Y149D01*
X96Y150D01*
X95Y151D01*
X94Y152D01*
X93Y153D01*
X93Y154D01*
X92Y155D01*
X91Y156D01*
X90Y157D01*
X89Y158D01*
X89Y159D01*
X88Y160D01*
X87Y161D01*
X86Y162D01*
X86Y163D01*
X85Y164D01*
X84Y165D01*
X83Y166D01*
X82Y167D01*
X82Y168D01*
X81Y169D01*
X80Y170D01*
X80Y171D01*
X79Y172D01*
X78Y173D01*
X77Y174D01*
X77Y175D01*
X76Y176D01*
X75Y177D01*
X75Y178D01*
X74Y179D01*
X73Y180D01*
X72Y181D01*
X72Y182D01*
X71Y183D01*
X70Y184D01*
X70Y185D01*
X69Y186D01*
X68Y187D01*
X68Y188D01*
X67Y189D01*
X66Y190D01*
X66Y191D01*
X65Y192D01*
X65Y193D01*
X64Y194D01*
X63Y195D01*
X63Y196D01*
X62Y197D01*
X61Y198D01*
X61Y199D01*
X60Y200D01*
X59Y201D01*
X59Y202D01*
X58Y203D01*
X58Y204D01*
X57Y205D01*
X57Y206D01*
X56Y207D01*
X55Y208D01*
X55Y209D01*
X54Y210D01*
X54Y211D01*
X53Y212D01*
X53Y213D01*
X52Y214D01*
X51Y215D01*
X51Y216D01*
X50Y217D01*
X50Y218D01*
X49Y219D01*
X49Y220D01*
X48Y221D01*
X48Y222D01*
X47Y223D01*
X47Y224D01*
X46Y225D01*
X46Y226D01*
X45Y227D01*
X45Y228D01*
X44Y229D01*
X44Y230D01*
X43Y231D01*
X43Y232D01*
X42Y233D01*
X42Y234D01*
X41Y235D01*
X41Y236D01*
X40Y237D01*
X40Y238D01*
X39Y239D01*
X39Y240D01*
X38Y241D01*
X38Y242D01*
X37Y243D01*
X37Y244D01*
X36Y245D01*
X36Y247D01*
X35Y248D01*
X35Y249D01*
X34Y250D01*
X34Y251D01*
X33Y252D01*
X33Y253D01*
X32Y254D01*
X32Y256D01*
X31Y257D01*
X31Y258D01*
X30Y259D01*
X30Y261D01*
X29Y262D01*
X29Y263D01*
X28Y264D01*
X28Y266D01*
X27Y267D01*
X27Y268D01*
X26Y269D01*
X26Y271D01*
X25Y272D01*
X25Y274D01*
X24Y275D01*
X24Y277D01*
X23Y278D01*
X23Y279D01*
X22Y280D01*
X22Y282D01*
X21Y283D01*
X21Y285D01*
X20Y286D01*
X20Y289D01*
X19Y290D01*
X19Y292D01*
X18Y293D01*
X18Y295D01*
X17Y296D01*
X17Y298D01*
X16Y299D01*
X16Y302D01*
X15Y303D01*
X15Y305D01*
X14Y306D01*
X14Y309D01*
X13Y310D01*
X13Y313D01*
X12Y314D01*
X12Y317D01*
X11Y318D01*
X11Y321D01*
X10Y322D01*
X10Y326D01*
X9Y327D01*
X9Y330D01*
X8Y331D01*
X8Y336D01*
X7Y337D01*
X7Y341D01*
X6Y342D01*
X6Y347D01*
X5Y348D01*
X5Y353D01*
X4Y354D01*
X4Y360D01*
X3Y361D01*
X3Y369D01*
X2Y370D01*
X2Y379D01*
X1Y380D01*
X1Y394D01*
X0Y395D01*
X0Y434D01*
X1Y435D01*
X1Y449D01*
X2Y450D01*
X2Y459D01*
X3Y460D01*
X3Y468D01*
X4Y469D01*
X4Y475D01*
X5Y476D01*
X5Y481D01*
X6Y482D01*
X6Y487D01*
X7Y488D01*
X7Y492D01*
X8Y493D01*
X8Y498D01*
X9Y499D01*
X9Y502D01*
X10Y503D01*
X10Y507D01*
X11Y508D01*
X11Y511D01*
X12Y512D01*
X12Y515D01*
X13Y516D01*
X13Y519D01*
X14Y520D01*
X14Y523D01*
X15Y524D01*
X15Y526D01*
X16Y527D01*
X16Y530D01*
X17Y531D01*
X17Y533D01*
X18Y534D01*
X18Y536D01*
X19Y537D01*
X19Y539D01*
X20Y540D01*
X20Y543D01*
X21Y544D01*
X21Y546D01*
X22Y547D01*
X22Y549D01*
X23Y550D01*
X23Y551D01*
X24Y552D01*
X24Y554D01*
X25Y555D01*
X25Y557D01*
X26Y558D01*
X26Y560D01*
X27Y561D01*
X27Y562D01*
X28Y563D01*
X28Y565D01*
X29Y566D01*
X29Y567D01*
X30Y568D01*
X30Y570D01*
X31Y571D01*
X31Y572D01*
X32Y573D01*
X32Y575D01*
X33Y576D01*
X33Y577D01*
X34Y578D01*
X34Y579D01*
X35Y580D01*
X35Y581D01*
X36Y582D01*
X36Y584D01*
X37Y585D01*
X37Y586D01*
X38Y587D01*
X38Y588D01*
X39Y589D01*
X39Y590D01*
X40Y591D01*
X40Y592D01*
X41Y593D01*
X41Y594D01*
X42Y595D01*
X42Y596D01*
X43Y597D01*
X43Y598D01*
X44Y599D01*
X44Y600D01*
X45Y601D01*
X45Y602D01*
X46Y603D01*
X46Y604D01*
X47Y605D01*
X47Y606D01*
X48Y607D01*
X48Y608D01*
X49Y609D01*
X49Y610D01*
X50Y611D01*
X50Y612D01*
X51Y613D01*
X51Y614D01*
X52Y615D01*
X53Y616D01*
X53Y617D01*
X54Y618D01*
X54Y619D01*
X55Y620D01*
X55Y621D01*
X56Y622D01*
X57Y623D01*
X57Y624D01*
X58Y625D01*
X58Y626D01*
X59Y627D01*
X59Y628D01*
X60Y629D01*
X61Y630D01*
X61Y631D01*
X62Y632D01*
X63Y633D01*
X63Y634D01*
X64Y635D01*
X65Y636D01*
X65Y637D01*
X66Y638D01*
X66Y639D01*
X67Y640D01*
X68Y641D01*
X68Y642D01*
X69Y643D01*
X70Y644D01*
X70Y645D01*
X71Y646D01*
X72Y647D01*
X72Y648D01*
X73Y649D01*
X74Y650D01*
X75Y651D01*
X75Y652D01*
X76Y653D01*
X77Y654D01*
X77Y655D01*
X78Y656D01*
X79Y657D01*
X80Y658D01*
X80Y659D01*
X81Y660D01*
X82Y661D01*
X82Y662D01*
X83Y663D01*
X84Y664D01*
X85Y665D01*
X86Y666D01*
X86Y667D01*
X87Y668D01*
X88Y669D01*
X89Y670D01*
X89Y671D01*
X90Y672D01*
X91Y673D01*
X92Y674D01*
X93Y675D01*
X93Y676D01*
X94Y677D01*
X95Y678D01*
X96Y679D01*
X97Y680D01*
X98Y681D01*
X98Y682D01*
X99Y683D01*
X100Y684D01*
X101Y685D01*
X102Y686D01*
X103Y687D01*
X104Y688D01*
X105Y689D01*
X105Y690D01*
X106Y691D01*
X107Y692D01*
X108Y693D01*
X109Y694D01*
X110Y695D01*
X111Y696D01*
X112Y697D01*
X113Y698D01*
X114Y699D01*
X115Y700D01*
X116Y701D01*
X117Y702D01*
X118Y703D01*
X119Y704D01*
X120Y705D01*
X120Y706D01*
X121Y707D01*
X122Y707D01*
X123Y708D01*
X124Y709D01*
X125Y710D01*
X126Y711D01*
X127Y712D01*
X128Y713D01*
X129Y714D01*
X130Y715D01*
X131Y716D01*
X132Y717D01*
X133Y718D01*
X134Y719D01*
X135Y720D01*
X136Y721D01*
X137Y722D01*
X138Y722D01*
X139Y723D01*
X140Y724D01*
X141Y725D01*
X142Y726D01*
X143Y727D01*
X144Y728D01*
X145Y729D01*
X146Y729D01*
X147Y730D01*
X148Y731D01*
X149Y732D01*
X150Y733D01*
X151Y734D01*
X152Y734D01*
X153Y735D01*
X154Y736D01*
X155Y737D01*
X156Y738D01*
X157Y738D01*
X158Y739D01*
X159Y740D01*
X160Y741D01*
X161Y741D01*
X162Y742D01*
X163Y743D01*
X164Y744D01*
X165Y745D01*
X166Y745D01*
X167Y746D01*
X168Y747D01*
X169Y747D01*
X170Y748D01*
X171Y749D01*
X172Y750D01*
X173Y750D01*
X174Y751D01*
X175Y752D01*
X176Y752D01*
X177Y753D01*
X178Y754D01*
X179Y755D01*
X180Y755D01*
X181Y756D01*
X182Y757D01*
X183Y757D01*
X184Y758D01*
X185Y759D01*
X186Y759D01*
X187Y760D01*
X188Y761D01*
X189Y761D01*
X190Y762D01*
X191Y762D01*
X192Y763D01*
X193Y764D01*
X194Y764D01*
X195Y765D01*
X196Y766D01*
X197Y766D01*
X198Y767D01*
X199Y768D01*
X200Y768D01*
X201Y769D01*
X202Y769D01*
X203Y770D01*
X204Y770D01*
X205Y771D01*
X206Y772D01*
X207Y772D01*
X208Y773D01*
X209Y773D01*
X210Y774D01*
X211Y774D01*
X212Y775D01*
X213Y776D01*
X214Y776D01*
X215Y777D01*
X216Y777D01*
X217Y778D01*
X218Y778D01*
X219Y779D01*
X220Y779D01*
X221Y780D01*
X222Y780D01*
X223Y781D01*
X224Y781D01*
X225Y782D01*
X226Y782D01*
X227Y783D01*
X228Y783D01*
X229Y784D01*
X230Y784D01*
X231Y785D01*
X232Y785D01*
X233Y786D01*
X234Y786D01*
X235Y787D01*
X236Y787D01*
X237Y788D01*
X238Y788D01*
X239Y789D01*
X240Y789D01*
X241Y790D01*
X242Y790D01*
X243Y791D01*
X244Y791D01*
X245Y791D01*
X246Y792D01*
X247Y792D01*
X248Y793D01*
X249Y793D01*
X250Y794D01*
X251Y794D01*
X252Y795D01*
X253Y795D01*
X254Y795D01*
X255Y796D01*
X256Y796D01*
X257Y797D01*
X258Y797D01*
X259Y797D01*
X260Y798D01*
X261Y798D01*
X262Y799D01*
X263Y799D01*
X264Y799D01*
X265Y800D01*
X266Y800D01*
X267Y801D01*
X268Y801D01*
X269Y801D01*
X270Y802D01*
X271Y802D01*
X272Y802D01*
X273Y803D01*
X274Y803D01*
X275Y803D01*
X276Y804D01*
X277Y804D01*
X278Y805D01*
X279Y805D01*
X280Y805D01*
X281Y806D01*
X282Y806D01*
X283Y806D01*
X284Y807D01*
X285Y807D01*
X286Y807D01*
X287Y807D01*
X288Y808D01*
X289Y808D01*
X290Y808D01*
X291Y809D01*
X292Y809D01*
X293Y809D01*
X294Y810D01*
X295Y810D01*
X296Y810D01*
X297Y811D01*
X298Y811D01*
X299Y811D01*
X300Y811D01*
X301Y812D01*
X302Y812D01*
X303Y812D01*
X304Y813D01*
X305Y813D01*
X306Y813D01*
X307Y813D01*
X308Y814D01*
X309Y814D01*
X310Y814D01*
X311Y814D01*
X312Y815D01*
X313Y815D01*
X314Y815D01*
X315Y815D01*
X316Y816D01*
X317Y816D01*
X318Y816D01*
X319Y816D01*
X320Y817D01*
X321Y817D01*
X322Y817D01*
X323Y817D01*
X324Y817D01*
X325Y818D01*
X326Y818D01*
X327Y818D01*
X328Y818D01*
X329Y819D01*
X330Y819D01*
X331Y819D01*
X332Y819D01*
X333Y819D01*
X334Y819D01*
X335Y820D01*
X336Y820D01*
X337Y820D01*
X338Y820D01*
X339Y820D01*
X340Y821D01*
X341Y821D01*
X342Y821D01*
X343Y821D01*
X344Y821D01*
X345Y821D01*
X346Y822D01*
X347Y822D01*
X348Y822D01*
X349Y822D01*
X350Y822D01*
X351Y822D01*
X352Y823D01*
X353Y823D01*
X354Y823D01*
X355Y823D01*
X356Y823D01*
X357Y823D01*
X358Y823D01*
X359Y824D01*
X360Y824D01*
X361Y824D01*
X362Y824D01*
X363Y824D01*
X364Y824D01*
X365Y824D01*
X366Y824D01*
X367Y824D01*
X368Y825D01*
X369Y825D01*
X370Y825D01*
X371Y825D01*
X372Y825D01*
X373Y825D01*
X374Y825D01*
X375Y825D01*
X376Y825D01*
X377Y825D01*
X378Y826D01*
X379Y826D01*
X380Y826D01*
X381Y826D01*
X382Y826D01*
X383Y826D01*
X384Y826D01*
X385Y826D01*
X386Y826D01*
X387Y826D01*
X388Y826D01*
X389Y826D01*
X390Y826D01*
X391Y826D01*
X392Y826D01*
X393Y827D01*
D02*
G04 End of contour*
M02*