G04 MADE WITH FRITZING*
G04 WWW.FRITZING.ORG*
G04 DOUBLE SIDED*
G04 HOLES PLATED*
G04 CONTOUR ON CENTER OF CONTOUR VECTOR*
%ASAXBY*%
%FSLAX23Y23*%
%MOIN*%
%OFA0B0*%
%SFA1.0B1.0*%
%ADD10C,0.010000*%
%ADD11C,0.008000*%
%ADD12R,0.001000X0.001000*%
%LNSILK1*%
G90*
G70*
G54D10*
X224Y392D02*
X224Y692D01*
D02*
X224Y692D02*
X124Y692D01*
D02*
X124Y692D02*
X124Y392D01*
G54D11*
D02*
X339Y716D02*
X239Y616D01*
D02*
X239Y616D02*
X239Y316D01*
D02*
X239Y316D02*
X339Y216D01*
D02*
X339Y216D02*
X389Y216D01*
D02*
X339Y716D02*
X389Y716D01*
D02*
X589Y716D02*
X649Y716D01*
D02*
X589Y216D02*
X649Y216D01*
G54D10*
D02*
X231Y313D02*
X339Y209D01*
D02*
X305Y173D02*
X197Y277D01*
D02*
X177Y227D02*
X131Y207D01*
G54D12*
X394Y826D02*
X433Y826D01*
X379Y825D02*
X448Y825D01*
X369Y824D02*
X458Y824D01*
X360Y823D02*
X467Y823D01*
X353Y822D02*
X474Y822D01*
X347Y821D02*
X480Y821D01*
X341Y820D02*
X486Y820D01*
X336Y819D02*
X491Y819D01*
X330Y818D02*
X393Y818D01*
X434Y818D02*
X497Y818D01*
X326Y817D02*
X378Y817D01*
X449Y817D02*
X501Y817D01*
X321Y816D02*
X368Y816D01*
X459Y816D02*
X506Y816D01*
X317Y815D02*
X359Y815D01*
X468Y815D02*
X510Y815D01*
X313Y814D02*
X352Y814D01*
X475Y814D02*
X514Y814D01*
X309Y813D02*
X346Y813D01*
X481Y813D02*
X518Y813D01*
X305Y812D02*
X340Y812D01*
X487Y812D02*
X522Y812D01*
X302Y811D02*
X335Y811D01*
X492Y811D02*
X525Y811D01*
X298Y810D02*
X330Y810D01*
X497Y810D02*
X529Y810D01*
X295Y809D02*
X325Y809D01*
X502Y809D02*
X532Y809D01*
X292Y808D02*
X321Y808D01*
X506Y808D02*
X535Y808D01*
X289Y807D02*
X317Y807D01*
X510Y807D02*
X538Y807D01*
X285Y806D02*
X313Y806D01*
X514Y806D02*
X542Y806D01*
X282Y805D02*
X309Y805D01*
X518Y805D02*
X545Y805D01*
X279Y804D02*
X305Y804D01*
X522Y804D02*
X548Y804D01*
X277Y803D02*
X301Y803D01*
X526Y803D02*
X550Y803D01*
X274Y802D02*
X298Y802D01*
X529Y802D02*
X553Y802D01*
X271Y801D02*
X295Y801D01*
X532Y801D02*
X556Y801D01*
X268Y800D02*
X291Y800D01*
X536Y800D02*
X559Y800D01*
X266Y799D02*
X288Y799D01*
X539Y799D02*
X561Y799D01*
X263Y798D02*
X285Y798D01*
X542Y798D02*
X564Y798D01*
X261Y797D02*
X282Y797D01*
X545Y797D02*
X566Y797D01*
X258Y796D02*
X279Y796D01*
X548Y796D02*
X569Y796D01*
X256Y795D02*
X277Y795D01*
X550Y795D02*
X571Y795D01*
X253Y794D02*
X274Y794D01*
X553Y794D02*
X574Y794D01*
X251Y793D02*
X271Y793D01*
X556Y793D02*
X576Y793D01*
X249Y792D02*
X268Y792D01*
X559Y792D02*
X578Y792D01*
X247Y791D02*
X266Y791D01*
X561Y791D02*
X580Y791D01*
X244Y790D02*
X263Y790D01*
X564Y790D02*
X583Y790D01*
X242Y789D02*
X261Y789D01*
X566Y789D02*
X585Y789D01*
X240Y788D02*
X258Y788D01*
X569Y788D02*
X587Y788D01*
X238Y787D02*
X256Y787D01*
X571Y787D02*
X589Y787D01*
X236Y786D02*
X254Y786D01*
X573Y786D02*
X591Y786D01*
X234Y785D02*
X251Y785D01*
X576Y785D02*
X593Y785D01*
X232Y784D02*
X249Y784D01*
X578Y784D02*
X595Y784D01*
X230Y783D02*
X247Y783D01*
X580Y783D02*
X597Y783D01*
X228Y782D02*
X245Y782D01*
X582Y782D02*
X599Y782D01*
X226Y781D02*
X243Y781D01*
X584Y781D02*
X601Y781D01*
X224Y780D02*
X240Y780D01*
X587Y780D02*
X603Y780D01*
X222Y779D02*
X238Y779D01*
X589Y779D02*
X605Y779D01*
X220Y778D02*
X236Y778D01*
X591Y778D02*
X607Y778D01*
X218Y777D02*
X234Y777D01*
X593Y777D02*
X609Y777D01*
X216Y776D02*
X232Y776D01*
X595Y776D02*
X611Y776D01*
X214Y775D02*
X230Y775D01*
X597Y775D02*
X613Y775D01*
X213Y774D02*
X228Y774D01*
X599Y774D02*
X614Y774D01*
X211Y773D02*
X226Y773D01*
X601Y773D02*
X616Y773D01*
X209Y772D02*
X224Y772D01*
X603Y772D02*
X618Y772D01*
X207Y771D02*
X222Y771D01*
X605Y771D02*
X620Y771D01*
X206Y770D02*
X221Y770D01*
X606Y770D02*
X621Y770D01*
X204Y769D02*
X219Y769D01*
X608Y769D02*
X623Y769D01*
X202Y768D02*
X217Y768D01*
X610Y768D02*
X625Y768D01*
X200Y767D02*
X215Y767D01*
X612Y767D02*
X627Y767D01*
X199Y766D02*
X214Y766D01*
X613Y766D02*
X628Y766D01*
X197Y765D02*
X212Y765D01*
X615Y765D02*
X630Y765D01*
X196Y764D02*
X210Y764D01*
X617Y764D02*
X631Y764D01*
X194Y763D02*
X208Y763D01*
X619Y763D02*
X633Y763D01*
X193Y762D02*
X207Y762D01*
X620Y762D02*
X634Y762D01*
X191Y761D02*
X205Y761D01*
X622Y761D02*
X636Y761D01*
X189Y760D02*
X203Y760D01*
X624Y760D02*
X638Y760D01*
X188Y759D02*
X202Y759D01*
X625Y759D02*
X639Y759D01*
X186Y758D02*
X200Y758D01*
X627Y758D02*
X641Y758D01*
X185Y757D02*
X198Y757D01*
X629Y757D02*
X642Y757D01*
X183Y756D02*
X197Y756D01*
X630Y756D02*
X644Y756D01*
X182Y755D02*
X195Y755D01*
X632Y755D02*
X645Y755D01*
X180Y754D02*
X194Y754D01*
X633Y754D02*
X647Y754D01*
X179Y753D02*
X192Y753D01*
X635Y753D02*
X648Y753D01*
X178Y752D02*
X191Y752D01*
X636Y752D02*
X649Y752D01*
X176Y751D02*
X189Y751D01*
X638Y751D02*
X651Y751D01*
X175Y750D02*
X188Y750D01*
X639Y750D02*
X652Y750D01*
X173Y749D02*
X186Y749D01*
X641Y749D02*
X654Y749D01*
X172Y748D02*
X185Y748D01*
X642Y748D02*
X655Y748D01*
X171Y747D02*
X183Y747D01*
X644Y747D02*
X656Y747D01*
X169Y746D02*
X182Y746D01*
X645Y746D02*
X658Y746D01*
X168Y745D02*
X180Y745D01*
X647Y745D02*
X659Y745D01*
X166Y744D02*
X179Y744D01*
X648Y744D02*
X661Y744D01*
X165Y743D02*
X178Y743D01*
X649Y743D02*
X662Y743D01*
X164Y742D02*
X176Y742D01*
X651Y742D02*
X663Y742D01*
X163Y741D02*
X175Y741D01*
X652Y741D02*
X664Y741D01*
X161Y740D02*
X173Y740D01*
X654Y740D02*
X666Y740D01*
X160Y739D02*
X172Y739D01*
X655Y739D02*
X667Y739D01*
X159Y738D02*
X171Y738D01*
X656Y738D02*
X668Y738D01*
X157Y737D02*
X169Y737D01*
X658Y737D02*
X670Y737D01*
X156Y736D02*
X168Y736D01*
X659Y736D02*
X671Y736D01*
X155Y735D02*
X167Y735D01*
X660Y735D02*
X672Y735D01*
X154Y734D02*
X165Y734D01*
X662Y734D02*
X673Y734D01*
X152Y733D02*
X164Y733D01*
X663Y733D02*
X675Y733D01*
X151Y732D02*
X163Y732D01*
X664Y732D02*
X676Y732D01*
X150Y731D02*
X162Y731D01*
X665Y731D02*
X677Y731D01*
X149Y730D02*
X160Y730D01*
X667Y730D02*
X678Y730D01*
X148Y729D02*
X159Y729D01*
X668Y729D02*
X679Y729D01*
X146Y728D02*
X158Y728D01*
X669Y728D02*
X681Y728D01*
X145Y727D02*
X157Y727D01*
X670Y727D02*
X682Y727D01*
X144Y726D02*
X155Y726D01*
X672Y726D02*
X683Y726D01*
X143Y725D02*
X154Y725D01*
X673Y725D02*
X684Y725D01*
X142Y724D02*
X153Y724D01*
X674Y724D02*
X685Y724D01*
X141Y723D02*
X152Y723D01*
X675Y723D02*
X686Y723D01*
X140Y722D02*
X151Y722D01*
X676Y722D02*
X687Y722D01*
X138Y721D02*
X150Y721D01*
X677Y721D02*
X689Y721D01*
X137Y720D02*
X148Y720D01*
X679Y720D02*
X690Y720D01*
X136Y719D02*
X147Y719D01*
X649Y719D02*
X655Y719D01*
X680Y719D02*
X691Y719D01*
X135Y718D02*
X146Y718D01*
X649Y718D02*
X661Y718D01*
X681Y718D02*
X692Y718D01*
X134Y717D02*
X145Y717D01*
X649Y717D02*
X665Y717D01*
X682Y717D02*
X693Y717D01*
X133Y716D02*
X144Y716D01*
X649Y716D02*
X669Y716D01*
X683Y716D02*
X694Y716D01*
X132Y715D02*
X143Y715D01*
X649Y715D02*
X672Y715D01*
X684Y715D02*
X695Y715D01*
X131Y714D02*
X141Y714D01*
X649Y714D02*
X674Y714D01*
X686Y714D02*
X696Y714D01*
X130Y713D02*
X140Y713D01*
X649Y713D02*
X677Y713D01*
X687Y713D02*
X697Y713D01*
X129Y712D02*
X139Y712D01*
X649Y712D02*
X679Y712D01*
X688Y712D02*
X698Y712D01*
X128Y711D02*
X138Y711D01*
X655Y711D02*
X681Y711D01*
X689Y711D02*
X699Y711D01*
X127Y710D02*
X137Y710D01*
X661Y710D02*
X683Y710D01*
X690Y710D02*
X700Y710D01*
X126Y709D02*
X136Y709D01*
X666Y709D02*
X685Y709D01*
X691Y709D02*
X701Y709D01*
X125Y708D02*
X135Y708D01*
X669Y708D02*
X687Y708D01*
X692Y708D02*
X702Y708D01*
X124Y707D02*
X134Y707D01*
X672Y707D02*
X688Y707D01*
X693Y707D02*
X703Y707D01*
X122Y706D02*
X133Y706D01*
X674Y706D02*
X690Y706D01*
X694Y706D02*
X705Y706D01*
X121Y705D02*
X132Y705D01*
X677Y705D02*
X691Y705D01*
X695Y705D02*
X706Y705D01*
X121Y704D02*
X131Y704D01*
X679Y704D02*
X693Y704D01*
X696Y704D02*
X706Y704D01*
X120Y703D02*
X130Y703D01*
X681Y703D02*
X694Y703D01*
X697Y703D02*
X707Y703D01*
X119Y702D02*
X129Y702D01*
X683Y702D02*
X695Y702D01*
X698Y702D02*
X708Y702D01*
X118Y701D02*
X128Y701D01*
X684Y701D02*
X697Y701D01*
X699Y701D02*
X709Y701D01*
X117Y700D02*
X127Y700D01*
X686Y700D02*
X698Y700D01*
X700Y700D02*
X710Y700D01*
X116Y699D02*
X126Y699D01*
X687Y699D02*
X699Y699D01*
X701Y699D02*
X711Y699D01*
X115Y698D02*
X125Y698D01*
X689Y698D02*
X700Y698D01*
X702Y698D02*
X712Y698D01*
X114Y697D02*
X124Y697D01*
X690Y697D02*
X701Y697D01*
X703Y697D02*
X713Y697D01*
X113Y696D02*
X123Y696D01*
X692Y696D02*
X702Y696D01*
X704Y696D02*
X714Y696D01*
X112Y695D02*
X122Y695D01*
X693Y695D02*
X703Y695D01*
X705Y695D02*
X715Y695D01*
X111Y694D02*
X121Y694D01*
X694Y694D02*
X704Y694D01*
X706Y694D02*
X716Y694D01*
X110Y693D02*
X120Y693D01*
X695Y693D02*
X705Y693D01*
X707Y693D02*
X717Y693D01*
X109Y692D02*
X119Y692D01*
X696Y692D02*
X706Y692D01*
X708Y692D02*
X718Y692D01*
X108Y691D02*
X118Y691D01*
X697Y691D02*
X707Y691D01*
X709Y691D02*
X719Y691D01*
X107Y690D02*
X117Y690D01*
X698Y690D02*
X708Y690D01*
X710Y690D02*
X720Y690D01*
X106Y689D02*
X116Y689D01*
X699Y689D02*
X709Y689D01*
X711Y689D02*
X721Y689D01*
X106Y688D02*
X115Y688D01*
X700Y688D02*
X710Y688D01*
X712Y688D02*
X721Y688D01*
X105Y687D02*
X114Y687D01*
X701Y687D02*
X710Y687D01*
X713Y687D02*
X722Y687D01*
X104Y686D02*
X113Y686D01*
X702Y686D02*
X711Y686D01*
X714Y686D02*
X723Y686D01*
X103Y685D02*
X112Y685D01*
X703Y685D02*
X712Y685D01*
X715Y685D02*
X724Y685D01*
X102Y684D02*
X112Y684D01*
X704Y684D02*
X713Y684D01*
X715Y684D02*
X725Y684D01*
X101Y683D02*
X111Y683D01*
X705Y683D02*
X713Y683D01*
X716Y683D02*
X726Y683D01*
X100Y682D02*
X110Y682D01*
X705Y682D02*
X714Y682D01*
X717Y682D02*
X727Y682D01*
X99Y681D02*
X109Y681D01*
X706Y681D02*
X715Y681D01*
X718Y681D02*
X728Y681D01*
X99Y680D02*
X108Y680D01*
X707Y680D02*
X715Y680D01*
X719Y680D02*
X728Y680D01*
X98Y679D02*
X107Y679D01*
X707Y679D02*
X716Y679D01*
X720Y679D02*
X729Y679D01*
X97Y678D02*
X106Y678D01*
X708Y678D02*
X716Y678D01*
X721Y678D02*
X730Y678D01*
X96Y677D02*
X106Y677D01*
X709Y677D02*
X717Y677D01*
X721Y677D02*
X731Y677D01*
X95Y676D02*
X105Y676D01*
X709Y676D02*
X718Y676D01*
X722Y676D02*
X732Y676D01*
X94Y675D02*
X104Y675D01*
X710Y675D02*
X718Y675D01*
X723Y675D02*
X733Y675D01*
X94Y674D02*
X103Y674D01*
X711Y674D02*
X719Y674D01*
X724Y674D02*
X733Y674D01*
X93Y673D02*
X102Y673D01*
X711Y673D02*
X719Y673D01*
X725Y673D02*
X734Y673D01*
X92Y672D02*
X101Y672D01*
X712Y672D02*
X720Y672D01*
X726Y672D02*
X735Y672D01*
X91Y671D02*
X100Y671D01*
X712Y671D02*
X720Y671D01*
X727Y671D02*
X736Y671D01*
X90Y670D02*
X100Y670D01*
X713Y670D02*
X720Y670D01*
X727Y670D02*
X737Y670D01*
X90Y669D02*
X99Y669D01*
X713Y669D02*
X721Y669D01*
X728Y669D02*
X737Y669D01*
X89Y668D02*
X98Y668D01*
X714Y668D02*
X721Y668D01*
X729Y668D02*
X738Y668D01*
X88Y667D02*
X97Y667D01*
X714Y667D02*
X722Y667D01*
X730Y667D02*
X739Y667D01*
X87Y666D02*
X96Y666D01*
X714Y666D02*
X722Y666D01*
X731Y666D02*
X740Y666D01*
X87Y665D02*
X96Y665D01*
X715Y665D02*
X722Y665D01*
X731Y665D02*
X740Y665D01*
X86Y664D02*
X95Y664D01*
X715Y664D02*
X723Y664D01*
X732Y664D02*
X741Y664D01*
X85Y663D02*
X94Y663D01*
X716Y663D02*
X723Y663D01*
X733Y663D02*
X742Y663D01*
X84Y662D02*
X93Y662D01*
X716Y662D02*
X723Y662D01*
X734Y662D02*
X743Y662D01*
X83Y661D02*
X92Y661D01*
X716Y661D02*
X724Y661D01*
X735Y661D02*
X744Y661D01*
X83Y660D02*
X92Y660D01*
X717Y660D02*
X724Y660D01*
X735Y660D02*
X744Y660D01*
X82Y659D02*
X91Y659D01*
X717Y659D02*
X724Y659D01*
X736Y659D02*
X745Y659D01*
X81Y658D02*
X90Y658D01*
X717Y658D02*
X725Y658D01*
X737Y658D02*
X746Y658D01*
X81Y657D02*
X89Y657D01*
X718Y657D02*
X725Y657D01*
X738Y657D02*
X746Y657D01*
X80Y656D02*
X89Y656D01*
X718Y656D02*
X725Y656D01*
X738Y656D02*
X747Y656D01*
X79Y655D02*
X88Y655D01*
X718Y655D02*
X725Y655D01*
X739Y655D02*
X748Y655D01*
X78Y654D02*
X87Y654D01*
X718Y654D02*
X725Y654D01*
X740Y654D02*
X749Y654D01*
X78Y653D02*
X86Y653D01*
X719Y653D02*
X726Y653D01*
X741Y653D02*
X749Y653D01*
X77Y652D02*
X86Y652D01*
X638Y652D02*
X690Y652D01*
X719Y652D02*
X726Y652D01*
X741Y652D02*
X750Y652D01*
X76Y651D02*
X85Y651D01*
X637Y651D02*
X690Y651D01*
X719Y651D02*
X726Y651D01*
X742Y651D02*
X751Y651D01*
X76Y650D02*
X84Y650D01*
X637Y650D02*
X691Y650D01*
X719Y650D02*
X726Y650D01*
X743Y650D02*
X751Y650D01*
X75Y649D02*
X84Y649D01*
X637Y649D02*
X691Y649D01*
X719Y649D02*
X726Y649D01*
X743Y649D02*
X752Y649D01*
X74Y648D02*
X83Y648D01*
X637Y648D02*
X691Y648D01*
X720Y648D02*
X726Y648D01*
X744Y648D02*
X753Y648D01*
X73Y647D02*
X82Y647D01*
X637Y647D02*
X691Y647D01*
X720Y647D02*
X727Y647D01*
X745Y647D02*
X754Y647D01*
X73Y646D02*
X81Y646D01*
X637Y646D02*
X691Y646D01*
X720Y646D02*
X727Y646D01*
X746Y646D02*
X754Y646D01*
X72Y645D02*
X81Y645D01*
X637Y645D02*
X643Y645D01*
X661Y645D02*
X667Y645D01*
X684Y645D02*
X691Y645D01*
X720Y645D02*
X727Y645D01*
X746Y645D02*
X755Y645D01*
X71Y644D02*
X80Y644D01*
X637Y644D02*
X643Y644D01*
X661Y644D02*
X667Y644D01*
X684Y644D02*
X691Y644D01*
X720Y644D02*
X727Y644D01*
X747Y644D02*
X756Y644D01*
X71Y643D02*
X79Y643D01*
X637Y643D02*
X643Y643D01*
X661Y643D02*
X667Y643D01*
X684Y643D02*
X691Y643D01*
X720Y643D02*
X727Y643D01*
X748Y643D02*
X756Y643D01*
X70Y642D02*
X79Y642D01*
X637Y642D02*
X643Y642D01*
X661Y642D02*
X667Y642D01*
X684Y642D02*
X691Y642D01*
X720Y642D02*
X727Y642D01*
X748Y642D02*
X757Y642D01*
X69Y641D02*
X78Y641D01*
X637Y641D02*
X643Y641D01*
X661Y641D02*
X667Y641D01*
X684Y641D02*
X691Y641D01*
X720Y641D02*
X727Y641D01*
X749Y641D02*
X758Y641D01*
X69Y640D02*
X77Y640D01*
X637Y640D02*
X643Y640D01*
X661Y640D02*
X667Y640D01*
X684Y640D02*
X691Y640D01*
X720Y640D02*
X727Y640D01*
X750Y640D02*
X758Y640D01*
X68Y639D02*
X77Y639D01*
X637Y639D02*
X643Y639D01*
X661Y639D02*
X667Y639D01*
X684Y639D02*
X691Y639D01*
X720Y639D02*
X727Y639D01*
X750Y639D02*
X759Y639D01*
X67Y638D02*
X76Y638D01*
X637Y638D02*
X643Y638D01*
X661Y638D02*
X667Y638D01*
X684Y638D02*
X691Y638D01*
X720Y638D02*
X727Y638D01*
X751Y638D02*
X760Y638D01*
X67Y637D02*
X75Y637D01*
X637Y637D02*
X643Y637D01*
X661Y637D02*
X667Y637D01*
X684Y637D02*
X691Y637D01*
X720Y637D02*
X727Y637D01*
X752Y637D02*
X760Y637D01*
X66Y636D02*
X75Y636D01*
X637Y636D02*
X643Y636D01*
X661Y636D02*
X667Y636D01*
X684Y636D02*
X691Y636D01*
X720Y636D02*
X727Y636D01*
X752Y636D02*
X761Y636D01*
X66Y635D02*
X74Y635D01*
X637Y635D02*
X643Y635D01*
X661Y635D02*
X667Y635D01*
X684Y635D02*
X691Y635D01*
X720Y635D02*
X727Y635D01*
X753Y635D02*
X761Y635D01*
X65Y634D02*
X73Y634D01*
X637Y634D02*
X643Y634D01*
X661Y634D02*
X667Y634D01*
X684Y634D02*
X691Y634D01*
X720Y634D02*
X727Y634D01*
X754Y634D02*
X762Y634D01*
X64Y633D02*
X73Y633D01*
X637Y633D02*
X643Y633D01*
X661Y633D02*
X667Y633D01*
X684Y633D02*
X691Y633D01*
X720Y633D02*
X727Y633D01*
X754Y633D02*
X763Y633D01*
X64Y632D02*
X72Y632D01*
X637Y632D02*
X643Y632D01*
X661Y632D02*
X667Y632D01*
X684Y632D02*
X691Y632D01*
X720Y632D02*
X727Y632D01*
X755Y632D02*
X763Y632D01*
X63Y631D02*
X71Y631D01*
X637Y631D02*
X644Y631D01*
X661Y631D02*
X667Y631D01*
X684Y631D02*
X690Y631D01*
X720Y631D02*
X727Y631D01*
X756Y631D02*
X764Y631D01*
X62Y630D02*
X71Y630D01*
X638Y630D02*
X644Y630D01*
X661Y630D02*
X667Y630D01*
X684Y630D02*
X690Y630D01*
X720Y630D02*
X727Y630D01*
X756Y630D02*
X765Y630D01*
X62Y629D02*
X70Y629D01*
X638Y629D02*
X644Y629D01*
X660Y629D02*
X668Y629D01*
X684Y629D02*
X690Y629D01*
X720Y629D02*
X727Y629D01*
X757Y629D02*
X765Y629D01*
X61Y628D02*
X69Y628D01*
X638Y628D02*
X645Y628D01*
X660Y628D02*
X668Y628D01*
X683Y628D02*
X690Y628D01*
X720Y628D02*
X727Y628D01*
X758Y628D02*
X766Y628D01*
X60Y627D02*
X69Y627D01*
X638Y627D02*
X646Y627D01*
X659Y627D02*
X669Y627D01*
X682Y627D02*
X690Y627D01*
X720Y627D02*
X727Y627D01*
X758Y627D02*
X767Y627D01*
X60Y626D02*
X68Y626D01*
X639Y626D02*
X647Y626D01*
X657Y626D02*
X670Y626D01*
X681Y626D02*
X689Y626D01*
X720Y626D02*
X726Y626D01*
X759Y626D02*
X767Y626D01*
X59Y625D02*
X68Y625D01*
X639Y625D02*
X650Y625D01*
X655Y625D02*
X673Y625D01*
X678Y625D02*
X689Y625D01*
X719Y625D02*
X726Y625D01*
X759Y625D02*
X768Y625D01*
X59Y624D02*
X67Y624D01*
X640Y624D02*
X688Y624D01*
X719Y624D02*
X726Y624D01*
X760Y624D02*
X768Y624D01*
X58Y623D02*
X66Y623D01*
X641Y623D02*
X687Y623D01*
X719Y623D02*
X726Y623D01*
X761Y623D02*
X769Y623D01*
X58Y622D02*
X66Y622D01*
X642Y622D02*
X663Y622D01*
X665Y622D02*
X686Y622D01*
X719Y622D02*
X726Y622D01*
X761Y622D02*
X769Y622D01*
X57Y621D02*
X65Y621D01*
X643Y621D02*
X662Y621D01*
X666Y621D02*
X685Y621D01*
X719Y621D02*
X726Y621D01*
X762Y621D02*
X770Y621D01*
X56Y620D02*
X65Y620D01*
X644Y620D02*
X660Y620D01*
X668Y620D02*
X684Y620D01*
X718Y620D02*
X725Y620D01*
X762Y620D02*
X771Y620D01*
X56Y619D02*
X64Y619D01*
X646Y619D02*
X658Y619D01*
X670Y619D02*
X682Y619D01*
X718Y619D02*
X725Y619D01*
X763Y619D02*
X771Y619D01*
X55Y618D02*
X63Y618D01*
X650Y618D02*
X653Y618D01*
X674Y618D02*
X677Y618D01*
X718Y618D02*
X725Y618D01*
X764Y618D02*
X772Y618D01*
X55Y617D02*
X63Y617D01*
X718Y617D02*
X725Y617D01*
X764Y617D02*
X772Y617D01*
X54Y616D02*
X62Y616D01*
X717Y616D02*
X724Y616D01*
X765Y616D02*
X773Y616D01*
X54Y615D02*
X62Y615D01*
X717Y615D02*
X724Y615D01*
X765Y615D02*
X773Y615D01*
X53Y614D02*
X61Y614D01*
X717Y614D02*
X724Y614D01*
X766Y614D02*
X774Y614D01*
X52Y613D02*
X61Y613D01*
X716Y613D02*
X724Y613D01*
X766Y613D02*
X775Y613D01*
X52Y612D02*
X60Y612D01*
X716Y612D02*
X723Y612D01*
X767Y612D02*
X775Y612D01*
X51Y611D02*
X59Y611D01*
X716Y611D02*
X723Y611D01*
X768Y611D02*
X776Y611D01*
X51Y610D02*
X59Y610D01*
X715Y610D02*
X723Y610D01*
X768Y610D02*
X776Y610D01*
X50Y609D02*
X58Y609D01*
X715Y609D02*
X722Y609D01*
X769Y609D02*
X777Y609D01*
X50Y608D02*
X58Y608D01*
X715Y608D02*
X722Y608D01*
X769Y608D02*
X777Y608D01*
X49Y607D02*
X57Y607D01*
X714Y607D02*
X722Y607D01*
X770Y607D02*
X778Y607D01*
X49Y606D02*
X57Y606D01*
X714Y606D02*
X721Y606D01*
X770Y606D02*
X778Y606D01*
X48Y605D02*
X56Y605D01*
X713Y605D02*
X721Y605D01*
X771Y605D02*
X779Y605D01*
X48Y604D02*
X55Y604D01*
X713Y604D02*
X720Y604D01*
X772Y604D02*
X779Y604D01*
X47Y603D02*
X55Y603D01*
X712Y603D02*
X720Y603D01*
X772Y603D02*
X780Y603D01*
X47Y602D02*
X54Y602D01*
X712Y602D02*
X719Y602D01*
X773Y602D02*
X780Y602D01*
X46Y601D02*
X54Y601D01*
X644Y601D02*
X645Y601D01*
X711Y601D02*
X719Y601D01*
X773Y601D02*
X781Y601D01*
X46Y600D02*
X53Y600D01*
X644Y600D02*
X648Y600D01*
X710Y600D02*
X718Y600D01*
X774Y600D02*
X781Y600D01*
X45Y599D02*
X53Y599D01*
X644Y599D02*
X652Y599D01*
X710Y599D02*
X718Y599D01*
X774Y599D02*
X782Y599D01*
X45Y598D02*
X52Y598D01*
X644Y598D02*
X655Y598D01*
X709Y598D02*
X718Y598D01*
X775Y598D02*
X782Y598D01*
X44Y597D02*
X52Y597D01*
X644Y597D02*
X659Y597D01*
X709Y597D02*
X717Y597D01*
X775Y597D02*
X783Y597D01*
X44Y596D02*
X51Y596D01*
X644Y596D02*
X662Y596D01*
X708Y596D02*
X716Y596D01*
X776Y596D02*
X783Y596D01*
X43Y595D02*
X51Y595D01*
X644Y595D02*
X665Y595D01*
X707Y595D02*
X716Y595D01*
X776Y595D02*
X784Y595D01*
X43Y594D02*
X50Y594D01*
X645Y594D02*
X669Y594D01*
X707Y594D02*
X715Y594D01*
X777Y594D02*
X784Y594D01*
X42Y593D02*
X50Y593D01*
X648Y593D02*
X672Y593D01*
X706Y593D02*
X715Y593D01*
X777Y593D02*
X785Y593D01*
X42Y592D02*
X49Y592D01*
X649Y592D02*
X676Y592D01*
X705Y592D02*
X714Y592D01*
X778Y592D02*
X785Y592D01*
X41Y591D02*
X49Y591D01*
X649Y591D02*
X679Y591D01*
X703Y591D02*
X713Y591D01*
X778Y591D02*
X786Y591D01*
X41Y590D02*
X48Y590D01*
X649Y590D02*
X655Y590D01*
X658Y590D02*
X682Y590D01*
X702Y590D02*
X713Y590D01*
X779Y590D02*
X786Y590D01*
X40Y589D02*
X48Y589D01*
X649Y589D02*
X655Y589D01*
X662Y589D02*
X686Y589D01*
X701Y589D02*
X710Y589D01*
X712Y589D02*
X712Y589D01*
X779Y589D02*
X787Y589D01*
X40Y588D02*
X47Y588D01*
X649Y588D02*
X655Y588D01*
X665Y588D02*
X689Y588D01*
X700Y588D02*
X710Y588D01*
X780Y588D02*
X787Y588D01*
X39Y587D02*
X47Y587D01*
X649Y587D02*
X655Y587D01*
X669Y587D02*
X690Y587D01*
X699Y587D02*
X710Y587D01*
X780Y587D02*
X788Y587D01*
X39Y586D02*
X46Y586D01*
X649Y586D02*
X655Y586D01*
X672Y586D02*
X690Y586D01*
X698Y586D02*
X709Y586D01*
X781Y586D02*
X788Y586D01*
X38Y585D02*
X46Y585D01*
X649Y585D02*
X655Y585D01*
X675Y585D02*
X690Y585D01*
X697Y585D02*
X708Y585D01*
X781Y585D02*
X789Y585D01*
X38Y584D02*
X46Y584D01*
X649Y584D02*
X655Y584D01*
X672Y584D02*
X690Y584D01*
X696Y584D02*
X707Y584D01*
X781Y584D02*
X789Y584D01*
X37Y583D02*
X45Y583D01*
X649Y583D02*
X655Y583D01*
X669Y583D02*
X690Y583D01*
X695Y583D02*
X705Y583D01*
X782Y583D02*
X790Y583D01*
X37Y582D02*
X45Y582D01*
X649Y582D02*
X655Y582D01*
X665Y582D02*
X689Y582D01*
X694Y582D02*
X704Y582D01*
X782Y582D02*
X790Y582D01*
X37Y581D02*
X44Y581D01*
X649Y581D02*
X655Y581D01*
X662Y581D02*
X686Y581D01*
X693Y581D02*
X703Y581D01*
X783Y581D02*
X790Y581D01*
X36Y580D02*
X44Y580D01*
X649Y580D02*
X655Y580D01*
X658Y580D02*
X682Y580D01*
X692Y580D02*
X702Y580D01*
X783Y580D02*
X791Y580D01*
X36Y579D02*
X43Y579D01*
X649Y579D02*
X679Y579D01*
X691Y579D02*
X701Y579D01*
X784Y579D02*
X791Y579D01*
X35Y578D02*
X43Y578D01*
X649Y578D02*
X676Y578D01*
X690Y578D02*
X700Y578D01*
X784Y578D02*
X792Y578D01*
X35Y577D02*
X42Y577D01*
X648Y577D02*
X672Y577D01*
X689Y577D02*
X699Y577D01*
X785Y577D02*
X792Y577D01*
X34Y576D02*
X42Y576D01*
X645Y576D02*
X669Y576D01*
X688Y576D02*
X698Y576D01*
X785Y576D02*
X793Y576D01*
X34Y575D02*
X41Y575D01*
X644Y575D02*
X665Y575D01*
X687Y575D02*
X697Y575D01*
X786Y575D02*
X793Y575D01*
X33Y574D02*
X41Y574D01*
X644Y574D02*
X662Y574D01*
X686Y574D02*
X696Y574D01*
X786Y574D02*
X794Y574D01*
X33Y573D02*
X41Y573D01*
X644Y573D02*
X659Y573D01*
X685Y573D02*
X695Y573D01*
X786Y573D02*
X794Y573D01*
X33Y572D02*
X40Y572D01*
X644Y572D02*
X655Y572D01*
X684Y572D02*
X694Y572D01*
X787Y572D02*
X794Y572D01*
X32Y571D02*
X40Y571D01*
X644Y571D02*
X652Y571D01*
X684Y571D02*
X693Y571D01*
X787Y571D02*
X795Y571D01*
X32Y570D02*
X39Y570D01*
X644Y570D02*
X648Y570D01*
X683Y570D02*
X692Y570D01*
X788Y570D02*
X795Y570D01*
X31Y569D02*
X39Y569D01*
X644Y569D02*
X645Y569D01*
X682Y569D02*
X691Y569D01*
X788Y569D02*
X796Y569D01*
X31Y568D02*
X38Y568D01*
X681Y568D02*
X690Y568D01*
X789Y568D02*
X796Y568D01*
X31Y567D02*
X38Y567D01*
X680Y567D02*
X690Y567D01*
X789Y567D02*
X796Y567D01*
X30Y566D02*
X38Y566D01*
X680Y566D02*
X689Y566D01*
X789Y566D02*
X797Y566D01*
X30Y565D02*
X37Y565D01*
X679Y565D02*
X688Y565D01*
X790Y565D02*
X797Y565D01*
X29Y564D02*
X37Y564D01*
X678Y564D02*
X687Y564D01*
X790Y564D02*
X798Y564D01*
X29Y563D02*
X36Y563D01*
X677Y563D02*
X686Y563D01*
X791Y563D02*
X798Y563D01*
X29Y562D02*
X36Y562D01*
X677Y562D02*
X685Y562D01*
X791Y562D02*
X798Y562D01*
X28Y561D02*
X36Y561D01*
X676Y561D02*
X685Y561D01*
X791Y561D02*
X799Y561D01*
X28Y560D02*
X35Y560D01*
X675Y560D02*
X684Y560D01*
X792Y560D02*
X799Y560D01*
X27Y559D02*
X35Y559D01*
X674Y559D02*
X683Y559D01*
X792Y559D02*
X800Y559D01*
X27Y558D02*
X34Y558D01*
X133Y558D02*
X133Y558D01*
X674Y558D02*
X682Y558D01*
X793Y558D02*
X800Y558D01*
X27Y557D02*
X34Y557D01*
X133Y557D02*
X133Y557D01*
X673Y557D02*
X682Y557D01*
X793Y557D02*
X800Y557D01*
X26Y556D02*
X34Y556D01*
X673Y556D02*
X681Y556D01*
X793Y556D02*
X801Y556D01*
X26Y555D02*
X33Y555D01*
X672Y555D02*
X680Y555D01*
X794Y555D02*
X801Y555D01*
X26Y554D02*
X33Y554D01*
X671Y554D02*
X680Y554D01*
X794Y554D02*
X801Y554D01*
X25Y553D02*
X33Y553D01*
X671Y553D02*
X679Y553D01*
X794Y553D02*
X802Y553D01*
X25Y552D02*
X32Y552D01*
X217Y552D02*
X217Y552D01*
X670Y552D02*
X678Y552D01*
X680Y552D02*
X689Y552D01*
X795Y552D02*
X802Y552D01*
X25Y551D02*
X32Y551D01*
X669Y551D02*
X690Y551D01*
X795Y551D02*
X802Y551D01*
X24Y550D02*
X32Y550D01*
X669Y550D02*
X677Y550D01*
X679Y550D02*
X690Y550D01*
X795Y550D02*
X803Y550D01*
X24Y549D02*
X31Y549D01*
X668Y549D02*
X676Y549D01*
X679Y549D02*
X691Y549D01*
X796Y549D02*
X803Y549D01*
X23Y548D02*
X31Y548D01*
X668Y548D02*
X676Y548D01*
X679Y548D02*
X691Y548D01*
X796Y548D02*
X803Y548D01*
X23Y547D02*
X30Y547D01*
X667Y547D02*
X675Y547D01*
X679Y547D02*
X691Y547D01*
X797Y547D02*
X804Y547D01*
X23Y546D02*
X30Y546D01*
X666Y546D02*
X674Y546D01*
X682Y546D02*
X691Y546D01*
X797Y546D02*
X804Y546D01*
X22Y545D02*
X30Y545D01*
X666Y545D02*
X674Y545D01*
X684Y545D02*
X691Y545D01*
X797Y545D02*
X805Y545D01*
X22Y544D02*
X29Y544D01*
X665Y544D02*
X673Y544D01*
X684Y544D02*
X691Y544D01*
X798Y544D02*
X805Y544D01*
X22Y543D02*
X29Y543D01*
X665Y543D02*
X673Y543D01*
X684Y543D02*
X691Y543D01*
X798Y543D02*
X805Y543D01*
X21Y542D02*
X29Y542D01*
X664Y542D02*
X672Y542D01*
X684Y542D02*
X691Y542D01*
X798Y542D02*
X806Y542D01*
X21Y541D02*
X28Y541D01*
X664Y541D02*
X672Y541D01*
X684Y541D02*
X691Y541D01*
X799Y541D02*
X806Y541D01*
X21Y540D02*
X28Y540D01*
X663Y540D02*
X671Y540D01*
X684Y540D02*
X691Y540D01*
X799Y540D02*
X806Y540D01*
X21Y539D02*
X28Y539D01*
X663Y539D02*
X670Y539D01*
X684Y539D02*
X691Y539D01*
X799Y539D02*
X806Y539D01*
X20Y538D02*
X27Y538D01*
X644Y538D02*
X691Y538D01*
X800Y538D02*
X807Y538D01*
X20Y537D02*
X27Y537D01*
X644Y537D02*
X691Y537D01*
X800Y537D02*
X807Y537D01*
X20Y536D02*
X27Y536D01*
X644Y536D02*
X691Y536D01*
X800Y536D02*
X807Y536D01*
X19Y535D02*
X26Y535D01*
X644Y535D02*
X691Y535D01*
X801Y535D02*
X808Y535D01*
X19Y534D02*
X26Y534D01*
X644Y534D02*
X691Y534D01*
X801Y534D02*
X808Y534D01*
X19Y533D02*
X26Y533D01*
X644Y533D02*
X691Y533D01*
X801Y533D02*
X808Y533D01*
X18Y532D02*
X26Y532D01*
X644Y532D02*
X691Y532D01*
X801Y532D02*
X809Y532D01*
X18Y531D02*
X25Y531D01*
X659Y531D02*
X667Y531D01*
X684Y531D02*
X691Y531D01*
X802Y531D02*
X809Y531D01*
X18Y530D02*
X25Y530D01*
X659Y530D02*
X666Y530D01*
X684Y530D02*
X691Y530D01*
X802Y530D02*
X809Y530D01*
X17Y529D02*
X25Y529D01*
X658Y529D02*
X666Y529D01*
X684Y529D02*
X691Y529D01*
X802Y529D02*
X810Y529D01*
X17Y528D02*
X24Y528D01*
X658Y528D02*
X665Y528D01*
X684Y528D02*
X691Y528D01*
X803Y528D02*
X810Y528D01*
X17Y527D02*
X24Y527D01*
X657Y527D02*
X665Y527D01*
X684Y527D02*
X691Y527D01*
X803Y527D02*
X810Y527D01*
X17Y526D02*
X24Y526D01*
X657Y526D02*
X664Y526D01*
X684Y526D02*
X691Y526D01*
X803Y526D02*
X810Y526D01*
X16Y525D02*
X23Y525D01*
X657Y525D02*
X664Y525D01*
X684Y525D02*
X691Y525D01*
X804Y525D02*
X811Y525D01*
X16Y524D02*
X23Y524D01*
X656Y524D02*
X664Y524D01*
X684Y524D02*
X691Y524D01*
X804Y524D02*
X811Y524D01*
X16Y523D02*
X23Y523D01*
X656Y523D02*
X663Y523D01*
X680Y523D02*
X691Y523D01*
X804Y523D02*
X811Y523D01*
X15Y522D02*
X23Y522D01*
X655Y522D02*
X663Y522D01*
X679Y522D02*
X691Y522D01*
X804Y522D02*
X812Y522D01*
X15Y521D02*
X22Y521D01*
X213Y521D02*
X213Y521D01*
X655Y521D02*
X662Y521D01*
X679Y521D02*
X691Y521D01*
X805Y521D02*
X812Y521D01*
X15Y520D02*
X22Y520D01*
X213Y520D02*
X214Y520D01*
X655Y520D02*
X662Y520D01*
X679Y520D02*
X690Y520D01*
X805Y520D02*
X812Y520D01*
X15Y519D02*
X22Y519D01*
X212Y519D02*
X215Y519D01*
X654Y519D02*
X662Y519D01*
X679Y519D02*
X690Y519D01*
X805Y519D02*
X812Y519D01*
X14Y518D02*
X22Y518D01*
X212Y518D02*
X216Y518D01*
X654Y518D02*
X661Y518D01*
X680Y518D02*
X690Y518D01*
X805Y518D02*
X813Y518D01*
X14Y517D02*
X21Y517D01*
X211Y517D02*
X216Y517D01*
X654Y517D02*
X661Y517D01*
X682Y517D02*
X688Y517D01*
X806Y517D02*
X813Y517D01*
X14Y516D02*
X21Y516D01*
X210Y516D02*
X216Y516D01*
X653Y516D02*
X661Y516D01*
X806Y516D02*
X813Y516D01*
X14Y515D02*
X21Y515D01*
X210Y515D02*
X217Y515D01*
X653Y515D02*
X660Y515D01*
X806Y515D02*
X813Y515D01*
X13Y514D02*
X21Y514D01*
X211Y514D02*
X217Y514D01*
X653Y514D02*
X660Y514D01*
X806Y514D02*
X814Y514D01*
X13Y513D02*
X20Y513D01*
X208Y513D02*
X217Y513D01*
X652Y513D02*
X660Y513D01*
X807Y513D02*
X814Y513D01*
X13Y512D02*
X20Y512D01*
X207Y512D02*
X216Y512D01*
X652Y512D02*
X659Y512D01*
X807Y512D02*
X814Y512D01*
X13Y511D02*
X20Y511D01*
X206Y511D02*
X216Y511D01*
X652Y511D02*
X659Y511D01*
X807Y511D02*
X814Y511D01*
X12Y510D02*
X20Y510D01*
X205Y510D02*
X216Y510D01*
X651Y510D02*
X659Y510D01*
X807Y510D02*
X815Y510D01*
X12Y509D02*
X19Y509D01*
X204Y509D02*
X215Y509D01*
X651Y509D02*
X658Y509D01*
X808Y509D02*
X815Y509D01*
X12Y508D02*
X19Y508D01*
X203Y508D02*
X214Y508D01*
X651Y508D02*
X658Y508D01*
X808Y508D02*
X815Y508D01*
X12Y507D02*
X19Y507D01*
X147Y507D02*
X147Y507D01*
X202Y507D02*
X212Y507D01*
X651Y507D02*
X658Y507D01*
X808Y507D02*
X815Y507D01*
X11Y506D02*
X19Y506D01*
X650Y506D02*
X658Y506D01*
X808Y506D02*
X816Y506D01*
X11Y505D02*
X18Y505D01*
X650Y505D02*
X657Y505D01*
X809Y505D02*
X816Y505D01*
X11Y504D02*
X18Y504D01*
X650Y504D02*
X657Y504D01*
X809Y504D02*
X816Y504D01*
X11Y503D02*
X18Y503D01*
X650Y503D02*
X657Y503D01*
X809Y503D02*
X816Y503D01*
X11Y502D02*
X18Y502D01*
X649Y502D02*
X657Y502D01*
X680Y502D02*
X689Y502D01*
X809Y502D02*
X816Y502D01*
X10Y501D02*
X17Y501D01*
X649Y501D02*
X656Y501D01*
X679Y501D02*
X690Y501D01*
X810Y501D02*
X817Y501D01*
X10Y500D02*
X17Y500D01*
X649Y500D02*
X656Y500D01*
X679Y500D02*
X690Y500D01*
X810Y500D02*
X817Y500D01*
X10Y499D02*
X17Y499D01*
X649Y499D02*
X656Y499D01*
X679Y499D02*
X690Y499D01*
X810Y499D02*
X817Y499D01*
X10Y498D02*
X17Y498D01*
X649Y498D02*
X656Y498D01*
X679Y498D02*
X691Y498D01*
X810Y498D02*
X817Y498D01*
X9Y497D02*
X17Y497D01*
X648Y497D02*
X655Y497D01*
X679Y497D02*
X691Y497D01*
X810Y497D02*
X818Y497D01*
X9Y496D02*
X16Y496D01*
X648Y496D02*
X655Y496D01*
X681Y496D02*
X691Y496D01*
X811Y496D02*
X818Y496D01*
X9Y495D02*
X16Y495D01*
X648Y495D02*
X655Y495D01*
X684Y495D02*
X691Y495D01*
X811Y495D02*
X818Y495D01*
X9Y494D02*
X16Y494D01*
X648Y494D02*
X655Y494D01*
X684Y494D02*
X691Y494D01*
X811Y494D02*
X818Y494D01*
X9Y493D02*
X16Y493D01*
X648Y493D02*
X655Y493D01*
X684Y493D02*
X691Y493D01*
X811Y493D02*
X818Y493D01*
X9Y492D02*
X16Y492D01*
X647Y492D02*
X655Y492D01*
X684Y492D02*
X691Y492D01*
X811Y492D02*
X818Y492D01*
X8Y491D02*
X15Y491D01*
X647Y491D02*
X654Y491D01*
X684Y491D02*
X691Y491D01*
X812Y491D02*
X819Y491D01*
X8Y490D02*
X15Y490D01*
X647Y490D02*
X654Y490D01*
X684Y490D02*
X691Y490D01*
X812Y490D02*
X819Y490D01*
X8Y489D02*
X15Y489D01*
X647Y489D02*
X654Y489D01*
X684Y489D02*
X691Y489D01*
X812Y489D02*
X819Y489D01*
X8Y488D02*
X15Y488D01*
X644Y488D02*
X691Y488D01*
X812Y488D02*
X819Y488D01*
X8Y487D02*
X15Y487D01*
X644Y487D02*
X691Y487D01*
X812Y487D02*
X819Y487D01*
X7Y486D02*
X14Y486D01*
X644Y486D02*
X691Y486D01*
X813Y486D02*
X820Y486D01*
X7Y485D02*
X14Y485D01*
X644Y485D02*
X691Y485D01*
X813Y485D02*
X820Y485D01*
X7Y484D02*
X14Y484D01*
X644Y484D02*
X691Y484D01*
X813Y484D02*
X820Y484D01*
X7Y483D02*
X14Y483D01*
X644Y483D02*
X691Y483D01*
X813Y483D02*
X820Y483D01*
X7Y482D02*
X14Y482D01*
X644Y482D02*
X691Y482D01*
X813Y482D02*
X820Y482D01*
X7Y481D02*
X14Y481D01*
X646Y481D02*
X653Y481D01*
X684Y481D02*
X691Y481D01*
X813Y481D02*
X820Y481D01*
X6Y480D02*
X13Y480D01*
X646Y480D02*
X653Y480D01*
X684Y480D02*
X691Y480D01*
X814Y480D02*
X821Y480D01*
X6Y479D02*
X13Y479D01*
X646Y479D02*
X653Y479D01*
X684Y479D02*
X691Y479D01*
X814Y479D02*
X821Y479D01*
X6Y478D02*
X13Y478D01*
X646Y478D02*
X653Y478D01*
X684Y478D02*
X691Y478D01*
X814Y478D02*
X821Y478D01*
X6Y477D02*
X13Y477D01*
X646Y477D02*
X653Y477D01*
X684Y477D02*
X691Y477D01*
X814Y477D02*
X821Y477D01*
X6Y476D02*
X13Y476D01*
X646Y476D02*
X653Y476D01*
X684Y476D02*
X691Y476D01*
X814Y476D02*
X821Y476D01*
X6Y475D02*
X13Y475D01*
X646Y475D02*
X653Y475D01*
X684Y475D02*
X691Y475D01*
X814Y475D02*
X821Y475D01*
X5Y474D02*
X12Y474D01*
X646Y474D02*
X653Y474D01*
X684Y474D02*
X691Y474D01*
X815Y474D02*
X822Y474D01*
X5Y473D02*
X12Y473D01*
X646Y473D02*
X653Y473D01*
X680Y473D02*
X691Y473D01*
X815Y473D02*
X822Y473D01*
X5Y472D02*
X12Y472D01*
X646Y472D02*
X652Y472D01*
X679Y472D02*
X691Y472D01*
X815Y472D02*
X822Y472D01*
X5Y471D02*
X12Y471D01*
X645Y471D02*
X652Y471D01*
X679Y471D02*
X691Y471D01*
X815Y471D02*
X822Y471D01*
X5Y470D02*
X12Y470D01*
X645Y470D02*
X652Y470D01*
X679Y470D02*
X690Y470D01*
X815Y470D02*
X822Y470D01*
X5Y469D02*
X12Y469D01*
X645Y469D02*
X652Y469D01*
X679Y469D02*
X690Y469D01*
X815Y469D02*
X822Y469D01*
X5Y468D02*
X12Y468D01*
X645Y468D02*
X652Y468D01*
X680Y468D02*
X690Y468D01*
X815Y468D02*
X822Y468D01*
X4Y467D02*
X11Y467D01*
X645Y467D02*
X652Y467D01*
X681Y467D02*
X688Y467D01*
X816Y467D02*
X823Y467D01*
X4Y466D02*
X11Y466D01*
X645Y466D02*
X652Y466D01*
X816Y466D02*
X823Y466D01*
X4Y465D02*
X11Y465D01*
X645Y465D02*
X652Y465D01*
X816Y465D02*
X823Y465D01*
X4Y464D02*
X11Y464D01*
X645Y464D02*
X652Y464D01*
X816Y464D02*
X823Y464D01*
X4Y463D02*
X11Y463D01*
X645Y463D02*
X652Y463D01*
X816Y463D02*
X823Y463D01*
X4Y462D02*
X11Y462D01*
X645Y462D02*
X652Y462D01*
X816Y462D02*
X823Y462D01*
X4Y461D02*
X11Y461D01*
X645Y461D02*
X652Y461D01*
X816Y461D02*
X823Y461D01*
X4Y460D02*
X11Y460D01*
X645Y460D02*
X652Y460D01*
X816Y460D02*
X823Y460D01*
X4Y459D02*
X11Y459D01*
X646Y459D02*
X653Y459D01*
X816Y459D02*
X823Y459D01*
X3Y458D02*
X10Y458D01*
X646Y458D02*
X653Y458D01*
X817Y458D02*
X824Y458D01*
X3Y457D02*
X10Y457D01*
X646Y457D02*
X653Y457D01*
X817Y457D02*
X824Y457D01*
X3Y456D02*
X10Y456D01*
X646Y456D02*
X653Y456D01*
X817Y456D02*
X824Y456D01*
X3Y455D02*
X10Y455D01*
X646Y455D02*
X653Y455D01*
X817Y455D02*
X824Y455D01*
X3Y454D02*
X10Y454D01*
X646Y454D02*
X653Y454D01*
X817Y454D02*
X824Y454D01*
X3Y453D02*
X10Y453D01*
X646Y453D02*
X653Y453D01*
X817Y453D02*
X824Y453D01*
X3Y452D02*
X10Y452D01*
X646Y452D02*
X653Y452D01*
X817Y452D02*
X824Y452D01*
X3Y451D02*
X10Y451D01*
X646Y451D02*
X653Y451D01*
X817Y451D02*
X824Y451D01*
X3Y450D02*
X10Y450D01*
X646Y450D02*
X653Y450D01*
X817Y450D02*
X824Y450D01*
X3Y449D02*
X10Y449D01*
X646Y449D02*
X653Y449D01*
X817Y449D02*
X824Y449D01*
X2Y448D02*
X9Y448D01*
X646Y448D02*
X653Y448D01*
X818Y448D02*
X825Y448D01*
X2Y447D02*
X9Y447D01*
X646Y447D02*
X653Y447D01*
X818Y447D02*
X825Y447D01*
X2Y446D02*
X9Y446D01*
X647Y446D02*
X654Y446D01*
X818Y446D02*
X825Y446D01*
X2Y445D02*
X9Y445D01*
X647Y445D02*
X654Y445D01*
X818Y445D02*
X825Y445D01*
X2Y444D02*
X9Y444D01*
X647Y444D02*
X654Y444D01*
X818Y444D02*
X825Y444D01*
X2Y443D02*
X9Y443D01*
X647Y443D02*
X654Y443D01*
X818Y443D02*
X825Y443D01*
X2Y442D02*
X9Y442D01*
X647Y442D02*
X654Y442D01*
X818Y442D02*
X825Y442D01*
X2Y441D02*
X9Y441D01*
X647Y441D02*
X654Y441D01*
X818Y441D02*
X825Y441D01*
X2Y440D02*
X9Y440D01*
X647Y440D02*
X654Y440D01*
X818Y440D02*
X825Y440D01*
X2Y439D02*
X9Y439D01*
X648Y439D02*
X655Y439D01*
X818Y439D02*
X825Y439D01*
X2Y438D02*
X9Y438D01*
X648Y438D02*
X655Y438D01*
X818Y438D02*
X825Y438D01*
X2Y437D02*
X9Y437D01*
X648Y437D02*
X655Y437D01*
X818Y437D02*
X825Y437D01*
X2Y436D02*
X9Y436D01*
X648Y436D02*
X655Y436D01*
X818Y436D02*
X825Y436D01*
X2Y435D02*
X9Y435D01*
X648Y435D02*
X655Y435D01*
X818Y435D02*
X825Y435D01*
X2Y434D02*
X9Y434D01*
X649Y434D02*
X656Y434D01*
X818Y434D02*
X825Y434D01*
X1Y433D02*
X8Y433D01*
X649Y433D02*
X656Y433D01*
X819Y433D02*
X826Y433D01*
X1Y432D02*
X8Y432D01*
X287Y432D02*
X290Y432D01*
X649Y432D02*
X656Y432D01*
X819Y432D02*
X826Y432D01*
X1Y431D02*
X8Y431D01*
X285Y431D02*
X292Y431D01*
X649Y431D02*
X656Y431D01*
X819Y431D02*
X826Y431D01*
X1Y430D02*
X8Y430D01*
X284Y430D02*
X295Y430D01*
X649Y430D02*
X656Y430D01*
X819Y430D02*
X826Y430D01*
X1Y429D02*
X8Y429D01*
X283Y429D02*
X297Y429D01*
X650Y429D02*
X657Y429D01*
X819Y429D02*
X826Y429D01*
X1Y428D02*
X8Y428D01*
X222Y428D02*
X222Y428D01*
X282Y428D02*
X300Y428D01*
X650Y428D02*
X657Y428D01*
X819Y428D02*
X826Y428D01*
X1Y427D02*
X8Y427D01*
X221Y427D02*
X223Y427D01*
X282Y427D02*
X302Y427D01*
X650Y427D02*
X657Y427D01*
X819Y427D02*
X826Y427D01*
X1Y426D02*
X8Y426D01*
X220Y426D02*
X224Y426D01*
X281Y426D02*
X304Y426D01*
X650Y426D02*
X657Y426D01*
X819Y426D02*
X826Y426D01*
X1Y425D02*
X8Y425D01*
X219Y425D02*
X225Y425D01*
X281Y425D02*
X288Y425D01*
X290Y425D02*
X306Y425D01*
X651Y425D02*
X658Y425D01*
X819Y425D02*
X826Y425D01*
X1Y424D02*
X8Y424D01*
X219Y424D02*
X224Y424D01*
X281Y424D02*
X287Y424D01*
X292Y424D02*
X306Y424D01*
X651Y424D02*
X658Y424D01*
X819Y424D02*
X826Y424D01*
X1Y423D02*
X8Y423D01*
X219Y423D02*
X223Y423D01*
X280Y423D02*
X287Y423D01*
X294Y423D02*
X307Y423D01*
X651Y423D02*
X658Y423D01*
X819Y423D02*
X826Y423D01*
X1Y422D02*
X8Y422D01*
X219Y422D02*
X222Y422D01*
X280Y422D02*
X286Y422D01*
X297Y422D02*
X308Y422D01*
X310Y422D02*
X314Y422D01*
X651Y422D02*
X659Y422D01*
X819Y422D02*
X826Y422D01*
X1Y421D02*
X8Y421D01*
X219Y421D02*
X221Y421D01*
X279Y421D02*
X286Y421D01*
X299Y421D02*
X317Y421D01*
X652Y421D02*
X659Y421D01*
X819Y421D02*
X826Y421D01*
X1Y420D02*
X8Y420D01*
X219Y420D02*
X220Y420D01*
X279Y420D02*
X286Y420D01*
X301Y420D02*
X320Y420D01*
X652Y420D02*
X659Y420D01*
X819Y420D02*
X826Y420D01*
X1Y419D02*
X8Y419D01*
X219Y419D02*
X219Y419D01*
X279Y419D02*
X285Y419D01*
X302Y419D02*
X322Y419D01*
X652Y419D02*
X659Y419D01*
X819Y419D02*
X826Y419D01*
X1Y418D02*
X8Y418D01*
X278Y418D02*
X285Y418D01*
X303Y418D02*
X325Y418D01*
X653Y418D02*
X660Y418D01*
X819Y418D02*
X826Y418D01*
X1Y417D02*
X8Y417D01*
X278Y417D02*
X284Y417D01*
X303Y417D02*
X327Y417D01*
X653Y417D02*
X660Y417D01*
X819Y417D02*
X826Y417D01*
X1Y416D02*
X8Y416D01*
X277Y416D02*
X284Y416D01*
X303Y416D02*
X329Y416D01*
X653Y416D02*
X660Y416D01*
X819Y416D02*
X826Y416D01*
X1Y415D02*
X8Y415D01*
X277Y415D02*
X284Y415D01*
X302Y415D02*
X310Y415D01*
X314Y415D02*
X330Y415D01*
X654Y415D02*
X661Y415D01*
X819Y415D02*
X826Y415D01*
X1Y414D02*
X8Y414D01*
X277Y414D02*
X283Y414D01*
X302Y414D02*
X309Y414D01*
X317Y414D02*
X331Y414D01*
X654Y414D02*
X661Y414D01*
X819Y414D02*
X826Y414D01*
X1Y413D02*
X8Y413D01*
X276Y413D02*
X283Y413D01*
X302Y413D02*
X308Y413D01*
X319Y413D02*
X331Y413D01*
X654Y413D02*
X661Y413D01*
X819Y413D02*
X826Y413D01*
X1Y412D02*
X8Y412D01*
X276Y412D02*
X282Y412D01*
X301Y412D02*
X308Y412D01*
X322Y412D02*
X332Y412D01*
X655Y412D02*
X662Y412D01*
X819Y412D02*
X826Y412D01*
X1Y411D02*
X8Y411D01*
X275Y411D02*
X282Y411D01*
X301Y411D02*
X307Y411D01*
X324Y411D02*
X332Y411D01*
X655Y411D02*
X662Y411D01*
X819Y411D02*
X826Y411D01*
X1Y410D02*
X8Y410D01*
X275Y410D02*
X282Y410D01*
X300Y410D02*
X307Y410D01*
X326Y410D02*
X332Y410D01*
X655Y410D02*
X663Y410D01*
X819Y410D02*
X826Y410D01*
X1Y409D02*
X8Y409D01*
X275Y409D02*
X281Y409D01*
X300Y409D02*
X307Y409D01*
X325Y409D02*
X332Y409D01*
X656Y409D02*
X663Y409D01*
X819Y409D02*
X826Y409D01*
X1Y408D02*
X8Y408D01*
X274Y408D02*
X281Y408D01*
X300Y408D02*
X306Y408D01*
X325Y408D02*
X332Y408D01*
X656Y408D02*
X663Y408D01*
X819Y408D02*
X826Y408D01*
X1Y407D02*
X8Y407D01*
X274Y407D02*
X280Y407D01*
X299Y407D02*
X306Y407D01*
X325Y407D02*
X331Y407D01*
X656Y407D02*
X664Y407D01*
X819Y407D02*
X826Y407D01*
X1Y406D02*
X8Y406D01*
X273Y406D02*
X280Y406D01*
X299Y406D02*
X305Y406D01*
X324Y406D02*
X331Y406D01*
X657Y406D02*
X664Y406D01*
X819Y406D02*
X826Y406D01*
X1Y405D02*
X8Y405D01*
X273Y405D02*
X280Y405D01*
X298Y405D02*
X305Y405D01*
X324Y405D02*
X330Y405D01*
X657Y405D02*
X665Y405D01*
X819Y405D02*
X826Y405D01*
X1Y404D02*
X8Y404D01*
X273Y404D02*
X279Y404D01*
X298Y404D02*
X304Y404D01*
X323Y404D02*
X330Y404D01*
X658Y404D02*
X665Y404D01*
X819Y404D02*
X826Y404D01*
X1Y403D02*
X8Y403D01*
X273Y403D02*
X279Y403D01*
X298Y403D02*
X304Y403D01*
X323Y403D02*
X330Y403D01*
X658Y403D02*
X665Y403D01*
X819Y403D02*
X826Y403D01*
X1Y402D02*
X8Y402D01*
X274Y402D02*
X278Y402D01*
X297Y402D02*
X304Y402D01*
X323Y402D02*
X329Y402D01*
X658Y402D02*
X666Y402D01*
X819Y402D02*
X826Y402D01*
X1Y401D02*
X8Y401D01*
X276Y401D02*
X276Y401D01*
X298Y401D02*
X303Y401D01*
X322Y401D02*
X329Y401D01*
X659Y401D02*
X666Y401D01*
X819Y401D02*
X826Y401D01*
X1Y400D02*
X8Y400D01*
X298Y400D02*
X303Y400D01*
X322Y400D02*
X328Y400D01*
X659Y400D02*
X667Y400D01*
X819Y400D02*
X826Y400D01*
X1Y399D02*
X8Y399D01*
X299Y399D02*
X302Y399D01*
X321Y399D02*
X328Y399D01*
X660Y399D02*
X667Y399D01*
X819Y399D02*
X826Y399D01*
X1Y398D02*
X8Y398D01*
X321Y398D02*
X328Y398D01*
X660Y398D02*
X668Y398D01*
X819Y398D02*
X826Y398D01*
X1Y397D02*
X8Y397D01*
X191Y397D02*
X197Y397D01*
X321Y397D02*
X327Y397D01*
X661Y397D02*
X668Y397D01*
X819Y397D02*
X826Y397D01*
X1Y396D02*
X8Y396D01*
X125Y396D02*
X224Y396D01*
X320Y396D02*
X327Y396D01*
X661Y396D02*
X669Y396D01*
X819Y396D02*
X826Y396D01*
X1Y395D02*
X8Y395D01*
X125Y395D02*
X224Y395D01*
X320Y395D02*
X326Y395D01*
X662Y395D02*
X669Y395D01*
X819Y395D02*
X826Y395D01*
X1Y394D02*
X8Y394D01*
X125Y394D02*
X224Y394D01*
X319Y394D02*
X326Y394D01*
X662Y394D02*
X670Y394D01*
X819Y394D02*
X826Y394D01*
X2Y393D02*
X9Y393D01*
X125Y393D02*
X224Y393D01*
X319Y393D02*
X325Y393D01*
X663Y393D02*
X670Y393D01*
X818Y393D02*
X825Y393D01*
X2Y392D02*
X9Y392D01*
X125Y392D02*
X224Y392D01*
X319Y392D02*
X325Y392D01*
X663Y392D02*
X671Y392D01*
X818Y392D02*
X825Y392D01*
X2Y391D02*
X9Y391D01*
X125Y391D02*
X224Y391D01*
X318Y391D02*
X325Y391D01*
X664Y391D02*
X671Y391D01*
X818Y391D02*
X825Y391D01*
X2Y390D02*
X9Y390D01*
X125Y390D02*
X224Y390D01*
X318Y390D02*
X324Y390D01*
X664Y390D02*
X672Y390D01*
X818Y390D02*
X825Y390D01*
X2Y389D02*
X9Y389D01*
X125Y389D02*
X153Y389D01*
X169Y389D02*
X224Y389D01*
X317Y389D02*
X324Y389D01*
X665Y389D02*
X672Y389D01*
X818Y389D02*
X825Y389D01*
X2Y388D02*
X9Y388D01*
X125Y388D02*
X149Y388D01*
X173Y388D02*
X224Y388D01*
X317Y388D02*
X323Y388D01*
X665Y388D02*
X673Y388D01*
X818Y388D02*
X825Y388D01*
X2Y387D02*
X9Y387D01*
X125Y387D02*
X146Y387D01*
X177Y387D02*
X223Y387D01*
X317Y387D02*
X323Y387D01*
X666Y387D02*
X674Y387D01*
X818Y387D02*
X825Y387D01*
X2Y386D02*
X9Y386D01*
X86Y386D02*
X87Y386D01*
X317Y386D02*
X323Y386D01*
X666Y386D02*
X674Y386D01*
X818Y386D02*
X825Y386D01*
X2Y385D02*
X9Y385D01*
X84Y385D02*
X88Y385D01*
X317Y385D02*
X322Y385D01*
X667Y385D02*
X675Y385D01*
X818Y385D02*
X825Y385D01*
X2Y384D02*
X9Y384D01*
X82Y384D02*
X88Y384D01*
X318Y384D02*
X321Y384D01*
X667Y384D02*
X675Y384D01*
X818Y384D02*
X825Y384D01*
X2Y383D02*
X9Y383D01*
X79Y383D02*
X88Y383D01*
X668Y383D02*
X676Y383D01*
X818Y383D02*
X825Y383D01*
X2Y382D02*
X9Y382D01*
X79Y382D02*
X89Y382D01*
X669Y382D02*
X677Y382D01*
X818Y382D02*
X825Y382D01*
X2Y381D02*
X9Y381D01*
X79Y381D02*
X89Y381D01*
X669Y381D02*
X677Y381D01*
X818Y381D02*
X825Y381D01*
X2Y380D02*
X9Y380D01*
X80Y380D02*
X90Y380D01*
X670Y380D02*
X678Y380D01*
X818Y380D02*
X825Y380D01*
X2Y379D02*
X9Y379D01*
X80Y379D02*
X90Y379D01*
X275Y379D02*
X290Y379D01*
X670Y379D02*
X679Y379D01*
X818Y379D02*
X825Y379D01*
X3Y378D02*
X10Y378D01*
X81Y378D02*
X91Y378D01*
X266Y378D02*
X292Y378D01*
X671Y378D02*
X679Y378D01*
X817Y378D02*
X824Y378D01*
X3Y377D02*
X10Y377D01*
X81Y377D02*
X91Y377D01*
X264Y377D02*
X294Y377D01*
X672Y377D02*
X680Y377D01*
X817Y377D02*
X824Y377D01*
X3Y376D02*
X10Y376D01*
X82Y376D02*
X91Y376D01*
X263Y376D02*
X295Y376D01*
X672Y376D02*
X681Y376D01*
X817Y376D02*
X824Y376D01*
X3Y375D02*
X10Y375D01*
X82Y375D02*
X92Y375D01*
X262Y375D02*
X296Y375D01*
X673Y375D02*
X681Y375D01*
X817Y375D02*
X824Y375D01*
X3Y374D02*
X10Y374D01*
X82Y374D02*
X92Y374D01*
X261Y374D02*
X297Y374D01*
X674Y374D02*
X682Y374D01*
X817Y374D02*
X824Y374D01*
X3Y373D02*
X10Y373D01*
X83Y373D02*
X93Y373D01*
X260Y373D02*
X298Y373D01*
X674Y373D02*
X683Y373D01*
X817Y373D02*
X824Y373D01*
X3Y372D02*
X10Y372D01*
X83Y372D02*
X93Y372D01*
X260Y372D02*
X274Y372D01*
X289Y372D02*
X299Y372D01*
X675Y372D02*
X684Y372D01*
X817Y372D02*
X824Y372D01*
X3Y371D02*
X10Y371D01*
X84Y371D02*
X94Y371D01*
X259Y371D02*
X267Y371D01*
X291Y371D02*
X300Y371D01*
X676Y371D02*
X684Y371D01*
X817Y371D02*
X824Y371D01*
X3Y370D02*
X10Y370D01*
X84Y370D02*
X94Y370D01*
X259Y370D02*
X265Y370D01*
X292Y370D02*
X300Y370D01*
X676Y370D02*
X685Y370D01*
X817Y370D02*
X824Y370D01*
X3Y369D02*
X10Y369D01*
X85Y369D02*
X94Y369D01*
X116Y369D02*
X116Y369D01*
X258Y369D02*
X265Y369D01*
X293Y369D02*
X301Y369D01*
X677Y369D02*
X686Y369D01*
X817Y369D02*
X824Y369D01*
X4Y368D02*
X11Y368D01*
X85Y368D02*
X95Y368D01*
X113Y368D02*
X117Y368D01*
X258Y368D02*
X265Y368D01*
X294Y368D02*
X302Y368D01*
X678Y368D02*
X687Y368D01*
X816Y368D02*
X823Y368D01*
X4Y367D02*
X11Y367D01*
X85Y367D02*
X95Y367D01*
X111Y367D02*
X117Y367D01*
X258Y367D02*
X264Y367D01*
X295Y367D02*
X303Y367D01*
X679Y367D02*
X688Y367D01*
X816Y367D02*
X823Y367D01*
X4Y366D02*
X11Y366D01*
X86Y366D02*
X96Y366D01*
X109Y366D02*
X117Y366D01*
X122Y366D02*
X123Y366D01*
X257Y366D02*
X264Y366D01*
X296Y366D02*
X304Y366D01*
X679Y366D02*
X688Y366D01*
X816Y366D02*
X823Y366D01*
X4Y365D02*
X11Y365D01*
X86Y365D02*
X96Y365D01*
X106Y365D02*
X122Y365D01*
X257Y365D02*
X264Y365D01*
X296Y365D02*
X305Y365D01*
X680Y365D02*
X689Y365D01*
X816Y365D02*
X823Y365D01*
X4Y364D02*
X11Y364D01*
X87Y364D02*
X97Y364D01*
X104Y364D02*
X122Y364D01*
X256Y364D02*
X266Y364D01*
X297Y364D02*
X306Y364D01*
X681Y364D02*
X690Y364D01*
X816Y364D02*
X823Y364D01*
X4Y363D02*
X11Y363D01*
X87Y363D02*
X97Y363D01*
X102Y363D02*
X121Y363D01*
X256Y363D02*
X269Y363D01*
X298Y363D02*
X307Y363D01*
X682Y363D02*
X691Y363D01*
X816Y363D02*
X823Y363D01*
X4Y362D02*
X11Y362D01*
X88Y362D02*
X97Y362D01*
X99Y362D02*
X121Y362D01*
X256Y362D02*
X271Y362D01*
X299Y362D02*
X307Y362D01*
X682Y362D02*
X692Y362D01*
X816Y362D02*
X823Y362D01*
X4Y361D02*
X11Y361D01*
X88Y361D02*
X121Y361D01*
X255Y361D02*
X274Y361D01*
X300Y361D02*
X308Y361D01*
X683Y361D02*
X693Y361D01*
X816Y361D02*
X823Y361D01*
X4Y360D02*
X11Y360D01*
X88Y360D02*
X120Y360D01*
X255Y360D02*
X276Y360D01*
X301Y360D02*
X309Y360D01*
X684Y360D02*
X694Y360D01*
X816Y360D02*
X823Y360D01*
X5Y359D02*
X12Y359D01*
X89Y359D02*
X120Y359D01*
X254Y359D02*
X279Y359D01*
X302Y359D02*
X309Y359D01*
X685Y359D02*
X695Y359D01*
X815Y359D02*
X822Y359D01*
X5Y358D02*
X12Y358D01*
X89Y358D02*
X114Y358D01*
X116Y358D02*
X120Y358D01*
X254Y358D02*
X261Y358D01*
X263Y358D02*
X281Y358D01*
X303Y358D02*
X309Y358D01*
X686Y358D02*
X696Y358D01*
X815Y358D02*
X822Y358D01*
X5Y357D02*
X12Y357D01*
X88Y357D02*
X112Y357D01*
X117Y357D02*
X119Y357D01*
X254Y357D02*
X260Y357D01*
X266Y357D02*
X284Y357D01*
X303Y357D02*
X309Y357D01*
X687Y357D02*
X697Y357D01*
X815Y357D02*
X822Y357D01*
X5Y356D02*
X12Y356D01*
X85Y356D02*
X110Y356D01*
X117Y356D02*
X119Y356D01*
X254Y356D02*
X260Y356D01*
X268Y356D02*
X286Y356D01*
X304Y356D02*
X310Y356D01*
X688Y356D02*
X697Y356D01*
X815Y356D02*
X822Y356D01*
X5Y355D02*
X12Y355D01*
X83Y355D02*
X107Y355D01*
X118Y355D02*
X119Y355D01*
X254Y355D02*
X259Y355D01*
X271Y355D02*
X288Y355D01*
X303Y355D02*
X310Y355D01*
X689Y355D02*
X699Y355D01*
X815Y355D02*
X822Y355D01*
X5Y354D02*
X12Y354D01*
X80Y354D02*
X105Y354D01*
X118Y354D02*
X119Y354D01*
X255Y354D02*
X258Y354D01*
X273Y354D02*
X291Y354D01*
X303Y354D02*
X309Y354D01*
X689Y354D02*
X700Y354D01*
X815Y354D02*
X822Y354D01*
X5Y353D02*
X12Y353D01*
X78Y353D02*
X103Y353D01*
X118Y353D02*
X119Y353D01*
X276Y353D02*
X293Y353D01*
X303Y353D02*
X309Y353D01*
X690Y353D02*
X701Y353D01*
X815Y353D02*
X822Y353D01*
X6Y352D02*
X13Y352D01*
X76Y352D02*
X100Y352D01*
X119Y352D02*
X119Y352D01*
X278Y352D02*
X296Y352D01*
X302Y352D02*
X309Y352D01*
X691Y352D02*
X702Y352D01*
X814Y352D02*
X821Y352D01*
X6Y351D02*
X13Y351D01*
X73Y351D02*
X98Y351D01*
X281Y351D02*
X298Y351D01*
X302Y351D02*
X309Y351D01*
X692Y351D02*
X703Y351D01*
X814Y351D02*
X821Y351D01*
X6Y350D02*
X13Y350D01*
X71Y350D02*
X96Y350D01*
X283Y350D02*
X308Y350D01*
X693Y350D02*
X704Y350D01*
X814Y350D02*
X821Y350D01*
X6Y349D02*
X13Y349D01*
X71Y349D02*
X93Y349D01*
X286Y349D02*
X308Y349D01*
X694Y349D02*
X705Y349D01*
X814Y349D02*
X821Y349D01*
X6Y348D02*
X13Y348D01*
X72Y348D02*
X91Y348D01*
X288Y348D02*
X307Y348D01*
X695Y348D02*
X706Y348D01*
X814Y348D02*
X821Y348D01*
X6Y347D02*
X13Y347D01*
X72Y347D02*
X88Y347D01*
X291Y347D02*
X307Y347D01*
X696Y347D02*
X707Y347D01*
X814Y347D02*
X821Y347D01*
X7Y346D02*
X14Y346D01*
X73Y346D02*
X86Y346D01*
X293Y346D02*
X307Y346D01*
X697Y346D02*
X708Y346D01*
X813Y346D02*
X820Y346D01*
X7Y345D02*
X14Y345D01*
X72Y345D02*
X84Y345D01*
X295Y345D02*
X306Y345D01*
X698Y345D02*
X710Y345D01*
X813Y345D02*
X820Y345D01*
X7Y344D02*
X14Y344D01*
X70Y344D02*
X81Y344D01*
X298Y344D02*
X306Y344D01*
X700Y344D02*
X711Y344D01*
X813Y344D02*
X820Y344D01*
X7Y343D02*
X14Y343D01*
X68Y343D02*
X79Y343D01*
X299Y343D02*
X305Y343D01*
X701Y343D02*
X710Y343D01*
X712Y343D02*
X712Y343D01*
X813Y343D02*
X820Y343D01*
X7Y342D02*
X14Y342D01*
X69Y342D02*
X79Y342D01*
X298Y342D02*
X305Y342D01*
X702Y342D02*
X709Y342D01*
X711Y342D02*
X712Y342D01*
X813Y342D02*
X820Y342D01*
X7Y341D02*
X14Y341D01*
X69Y341D02*
X79Y341D01*
X298Y341D02*
X304Y341D01*
X703Y341D02*
X713Y341D01*
X813Y341D02*
X820Y341D01*
X8Y340D02*
X15Y340D01*
X70Y340D02*
X80Y340D01*
X298Y340D02*
X304Y340D01*
X704Y340D02*
X714Y340D01*
X812Y340D02*
X819Y340D01*
X8Y339D02*
X15Y339D01*
X70Y339D02*
X80Y339D01*
X247Y339D02*
X249Y339D01*
X298Y339D02*
X304Y339D01*
X705Y339D02*
X715Y339D01*
X812Y339D02*
X819Y339D01*
X8Y338D02*
X15Y338D01*
X71Y338D02*
X80Y338D01*
X246Y338D02*
X251Y338D01*
X298Y338D02*
X303Y338D01*
X706Y338D02*
X715Y338D01*
X812Y338D02*
X819Y338D01*
X8Y337D02*
X15Y337D01*
X71Y337D02*
X81Y337D01*
X246Y337D02*
X251Y337D01*
X298Y337D02*
X303Y337D01*
X707Y337D02*
X716Y337D01*
X812Y337D02*
X819Y337D01*
X8Y336D02*
X15Y336D01*
X71Y336D02*
X81Y336D01*
X245Y336D02*
X251Y336D01*
X300Y336D02*
X301Y336D01*
X708Y336D02*
X717Y336D01*
X812Y336D02*
X819Y336D01*
X9Y335D02*
X16Y335D01*
X72Y335D02*
X82Y335D01*
X245Y335D02*
X251Y335D01*
X709Y335D02*
X717Y335D01*
X811Y335D02*
X818Y335D01*
X9Y334D02*
X16Y334D01*
X72Y334D02*
X82Y334D01*
X244Y334D02*
X251Y334D01*
X709Y334D02*
X718Y334D01*
X811Y334D02*
X818Y334D01*
X9Y333D02*
X16Y333D01*
X73Y333D02*
X83Y333D01*
X244Y333D02*
X250Y333D01*
X710Y333D02*
X718Y333D01*
X811Y333D02*
X818Y333D01*
X9Y332D02*
X16Y332D01*
X73Y332D02*
X83Y332D01*
X243Y332D02*
X250Y332D01*
X711Y332D02*
X719Y332D01*
X811Y332D02*
X818Y332D01*
X9Y331D02*
X16Y331D01*
X74Y331D02*
X83Y331D01*
X243Y331D02*
X250Y331D01*
X711Y331D02*
X719Y331D01*
X811Y331D02*
X818Y331D01*
X9Y330D02*
X17Y330D01*
X74Y330D02*
X84Y330D01*
X243Y330D02*
X249Y330D01*
X712Y330D02*
X720Y330D01*
X810Y330D02*
X818Y330D01*
X10Y329D02*
X17Y329D01*
X74Y329D02*
X84Y329D01*
X242Y329D02*
X249Y329D01*
X713Y329D02*
X721Y329D01*
X810Y329D02*
X817Y329D01*
X10Y328D02*
X17Y328D01*
X75Y328D02*
X85Y328D01*
X242Y328D02*
X248Y328D01*
X713Y328D02*
X721Y328D01*
X810Y328D02*
X817Y328D01*
X10Y327D02*
X17Y327D01*
X75Y327D02*
X85Y327D01*
X241Y327D02*
X248Y327D01*
X714Y327D02*
X721Y327D01*
X810Y327D02*
X817Y327D01*
X10Y326D02*
X17Y326D01*
X76Y326D02*
X86Y326D01*
X241Y326D02*
X248Y326D01*
X714Y326D02*
X722Y326D01*
X810Y326D02*
X817Y326D01*
X11Y325D02*
X18Y325D01*
X76Y325D02*
X86Y325D01*
X241Y325D02*
X247Y325D01*
X715Y325D02*
X722Y325D01*
X809Y325D02*
X816Y325D01*
X11Y324D02*
X18Y324D01*
X77Y324D02*
X86Y324D01*
X240Y324D02*
X247Y324D01*
X715Y324D02*
X723Y324D01*
X809Y324D02*
X816Y324D01*
X11Y323D02*
X18Y323D01*
X77Y323D02*
X87Y323D01*
X240Y323D02*
X246Y323D01*
X716Y323D02*
X723Y323D01*
X809Y323D02*
X816Y323D01*
X11Y322D02*
X18Y322D01*
X77Y322D02*
X87Y322D01*
X239Y322D02*
X246Y322D01*
X716Y322D02*
X724Y322D01*
X809Y322D02*
X816Y322D01*
X11Y321D02*
X19Y321D01*
X78Y321D02*
X88Y321D01*
X239Y321D02*
X246Y321D01*
X290Y321D02*
X294Y321D01*
X717Y321D02*
X724Y321D01*
X808Y321D02*
X816Y321D01*
X12Y320D02*
X19Y320D01*
X78Y320D02*
X88Y320D01*
X194Y320D02*
X195Y320D01*
X239Y320D02*
X245Y320D01*
X265Y320D02*
X267Y320D01*
X290Y320D02*
X295Y320D01*
X717Y320D02*
X724Y320D01*
X808Y320D02*
X815Y320D01*
X12Y319D02*
X19Y319D01*
X79Y319D02*
X88Y319D01*
X193Y319D02*
X196Y319D01*
X238Y319D02*
X245Y319D01*
X264Y319D02*
X268Y319D01*
X289Y319D02*
X295Y319D01*
X717Y319D02*
X725Y319D01*
X808Y319D02*
X815Y319D01*
X12Y318D02*
X19Y318D01*
X79Y318D02*
X89Y318D01*
X192Y318D02*
X197Y318D01*
X238Y318D02*
X244Y318D01*
X263Y318D02*
X269Y318D01*
X289Y318D02*
X295Y318D01*
X718Y318D02*
X725Y318D01*
X808Y318D02*
X815Y318D01*
X12Y317D02*
X20Y317D01*
X79Y317D02*
X89Y317D01*
X191Y317D02*
X198Y317D01*
X237Y317D02*
X244Y317D01*
X263Y317D02*
X269Y317D01*
X288Y317D02*
X295Y317D01*
X718Y317D02*
X725Y317D01*
X807Y317D02*
X815Y317D01*
X13Y316D02*
X20Y316D01*
X80Y316D02*
X90Y316D01*
X190Y316D02*
X199Y316D01*
X228Y316D02*
X228Y316D01*
X237Y316D02*
X244Y316D01*
X262Y316D02*
X269Y316D01*
X288Y316D02*
X294Y316D01*
X719Y316D02*
X726Y316D01*
X807Y316D02*
X814Y316D01*
X13Y315D02*
X20Y315D01*
X80Y315D02*
X90Y315D01*
X189Y315D02*
X200Y315D01*
X227Y315D02*
X229Y315D01*
X237Y315D02*
X243Y315D01*
X262Y315D02*
X269Y315D01*
X287Y315D02*
X294Y315D01*
X719Y315D02*
X726Y315D01*
X807Y315D02*
X814Y315D01*
X13Y314D02*
X20Y314D01*
X81Y314D02*
X91Y314D01*
X188Y314D02*
X202Y314D01*
X226Y314D02*
X230Y314D01*
X236Y314D02*
X243Y314D01*
X262Y314D02*
X268Y314D01*
X287Y314D02*
X294Y314D01*
X719Y314D02*
X726Y314D01*
X807Y314D02*
X814Y314D01*
X13Y313D02*
X21Y313D01*
X81Y313D02*
X91Y313D01*
X135Y313D02*
X136Y313D01*
X189Y313D02*
X203Y313D01*
X225Y313D02*
X231Y313D01*
X236Y313D02*
X246Y313D01*
X261Y313D02*
X268Y313D01*
X287Y313D02*
X293Y313D01*
X719Y313D02*
X726Y313D01*
X806Y313D02*
X814Y313D01*
X14Y312D02*
X21Y312D01*
X82Y312D02*
X91Y312D01*
X136Y312D02*
X137Y312D01*
X190Y312D02*
X204Y312D01*
X224Y312D02*
X232Y312D01*
X235Y312D02*
X248Y312D01*
X261Y312D02*
X267Y312D01*
X286Y312D02*
X293Y312D01*
X720Y312D02*
X727Y312D01*
X806Y312D02*
X813Y312D01*
X14Y311D02*
X21Y311D01*
X82Y311D02*
X92Y311D01*
X136Y311D02*
X139Y311D01*
X191Y311D02*
X205Y311D01*
X223Y311D02*
X233Y311D01*
X235Y311D02*
X251Y311D01*
X260Y311D02*
X267Y311D01*
X286Y311D02*
X292Y311D01*
X720Y311D02*
X727Y311D01*
X806Y311D02*
X813Y311D01*
X14Y310D02*
X21Y310D01*
X82Y310D02*
X92Y310D01*
X137Y310D02*
X140Y310D01*
X192Y310D02*
X206Y310D01*
X222Y310D02*
X234Y310D01*
X236Y310D02*
X253Y310D01*
X260Y310D02*
X267Y310D01*
X285Y310D02*
X292Y310D01*
X370Y310D02*
X376Y310D01*
X394Y310D02*
X399Y310D01*
X417Y310D02*
X423Y310D01*
X720Y310D02*
X727Y310D01*
X806Y310D02*
X813Y310D01*
X14Y309D02*
X22Y309D01*
X83Y309D02*
X93Y309D01*
X137Y309D02*
X142Y309D01*
X193Y309D02*
X207Y309D01*
X221Y309D02*
X234Y309D01*
X238Y309D02*
X255Y309D01*
X260Y309D02*
X266Y309D01*
X285Y309D02*
X292Y309D01*
X370Y309D02*
X376Y309D01*
X394Y309D02*
X400Y309D01*
X417Y309D02*
X423Y309D01*
X720Y309D02*
X727Y309D01*
X805Y309D02*
X813Y309D01*
X15Y308D02*
X22Y308D01*
X83Y308D02*
X93Y308D01*
X138Y308D02*
X145Y308D01*
X194Y308D02*
X208Y308D01*
X220Y308D02*
X233Y308D01*
X240Y308D02*
X266Y308D01*
X285Y308D02*
X291Y308D01*
X370Y308D02*
X376Y308D01*
X394Y308D02*
X400Y308D01*
X417Y308D02*
X423Y308D01*
X721Y308D02*
X728Y308D01*
X805Y308D02*
X812Y308D01*
X15Y307D02*
X22Y307D01*
X84Y307D02*
X94Y307D01*
X138Y307D02*
X147Y307D01*
X195Y307D02*
X209Y307D01*
X219Y307D02*
X232Y307D01*
X243Y307D02*
X265Y307D01*
X284Y307D02*
X291Y307D01*
X370Y307D02*
X376Y307D01*
X394Y307D02*
X400Y307D01*
X417Y307D02*
X424Y307D01*
X721Y307D02*
X728Y307D01*
X805Y307D02*
X812Y307D01*
X15Y306D02*
X22Y306D01*
X84Y306D02*
X94Y306D01*
X138Y306D02*
X148Y306D01*
X196Y306D02*
X210Y306D01*
X218Y306D02*
X231Y306D01*
X245Y306D02*
X265Y306D01*
X284Y306D02*
X290Y306D01*
X370Y306D02*
X376Y306D01*
X394Y306D02*
X400Y306D01*
X418Y306D02*
X424Y306D01*
X721Y306D02*
X728Y306D01*
X805Y306D02*
X812Y306D01*
X15Y305D02*
X23Y305D01*
X85Y305D02*
X94Y305D01*
X139Y305D02*
X149Y305D01*
X197Y305D02*
X211Y305D01*
X217Y305D02*
X230Y305D01*
X248Y305D02*
X265Y305D01*
X283Y305D02*
X290Y305D01*
X370Y305D02*
X376Y305D01*
X394Y305D02*
X400Y305D01*
X418Y305D02*
X424Y305D01*
X721Y305D02*
X728Y305D01*
X804Y305D02*
X812Y305D01*
X16Y304D02*
X23Y304D01*
X85Y304D02*
X95Y304D01*
X139Y304D02*
X149Y304D01*
X199Y304D02*
X212Y304D01*
X216Y304D02*
X229Y304D01*
X250Y304D02*
X268Y304D01*
X283Y304D02*
X290Y304D01*
X370Y304D02*
X376Y304D01*
X394Y304D02*
X400Y304D01*
X418Y304D02*
X424Y304D01*
X721Y304D02*
X728Y304D01*
X804Y304D02*
X811Y304D01*
X16Y303D02*
X23Y303D01*
X85Y303D02*
X95Y303D01*
X138Y303D02*
X150Y303D01*
X200Y303D02*
X213Y303D01*
X215Y303D02*
X228Y303D01*
X253Y303D02*
X270Y303D01*
X283Y303D02*
X289Y303D01*
X371Y303D02*
X377Y303D01*
X394Y303D02*
X400Y303D01*
X418Y303D02*
X424Y303D01*
X722Y303D02*
X728Y303D01*
X804Y303D02*
X811Y303D01*
X16Y302D02*
X23Y302D01*
X86Y302D02*
X96Y302D01*
X136Y302D02*
X150Y302D01*
X201Y302D02*
X227Y302D01*
X255Y302D02*
X273Y302D01*
X282Y302D02*
X289Y302D01*
X371Y302D02*
X377Y302D01*
X394Y302D02*
X400Y302D01*
X418Y302D02*
X424Y302D01*
X722Y302D02*
X728Y302D01*
X804Y302D02*
X811Y302D01*
X17Y301D02*
X24Y301D01*
X86Y301D02*
X96Y301D01*
X134Y301D02*
X150Y301D01*
X202Y301D02*
X226Y301D01*
X258Y301D02*
X275Y301D01*
X282Y301D02*
X288Y301D01*
X371Y301D02*
X377Y301D01*
X394Y301D02*
X400Y301D01*
X418Y301D02*
X424Y301D01*
X722Y301D02*
X729Y301D01*
X803Y301D02*
X810Y301D01*
X17Y300D02*
X24Y300D01*
X87Y300D02*
X97Y300D01*
X131Y300D02*
X151Y300D01*
X203Y300D02*
X225Y300D01*
X260Y300D02*
X278Y300D01*
X281Y300D02*
X288Y300D01*
X371Y300D02*
X377Y300D01*
X394Y300D02*
X400Y300D01*
X418Y300D02*
X424Y300D01*
X722Y300D02*
X729Y300D01*
X803Y300D02*
X810Y300D01*
X17Y299D02*
X24Y299D01*
X87Y299D02*
X97Y299D01*
X130Y299D02*
X151Y299D01*
X204Y299D02*
X224Y299D01*
X262Y299D02*
X288Y299D01*
X371Y299D02*
X377Y299D01*
X394Y299D02*
X400Y299D01*
X418Y299D02*
X424Y299D01*
X722Y299D02*
X729Y299D01*
X803Y299D02*
X810Y299D01*
X17Y298D02*
X25Y298D01*
X88Y298D02*
X97Y298D01*
X129Y298D02*
X152Y298D01*
X205Y298D02*
X223Y298D01*
X265Y298D02*
X287Y298D01*
X371Y298D02*
X377Y298D01*
X394Y298D02*
X401Y298D01*
X404Y298D02*
X424Y298D01*
X722Y298D02*
X729Y298D01*
X802Y298D02*
X810Y298D01*
X18Y297D02*
X25Y297D01*
X88Y297D02*
X98Y297D01*
X129Y297D02*
X152Y297D01*
X206Y297D02*
X222Y297D01*
X267Y297D02*
X287Y297D01*
X371Y297D02*
X377Y297D01*
X390Y297D02*
X424Y297D01*
X722Y297D02*
X729Y297D01*
X802Y297D02*
X809Y297D01*
X18Y296D02*
X25Y296D01*
X88Y296D02*
X98Y296D01*
X129Y296D02*
X139Y296D01*
X143Y296D02*
X153Y296D01*
X207Y296D02*
X222Y296D01*
X270Y296D02*
X286Y296D01*
X371Y296D02*
X424Y296D01*
X722Y296D02*
X729Y296D01*
X802Y296D02*
X809Y296D01*
X18Y295D02*
X26Y295D01*
X89Y295D02*
X99Y295D01*
X129Y295D02*
X136Y295D01*
X143Y295D02*
X153Y295D01*
X208Y295D02*
X221Y295D01*
X272Y295D02*
X286Y295D01*
X371Y295D02*
X424Y295D01*
X722Y295D02*
X729Y295D01*
X801Y295D02*
X809Y295D01*
X19Y294D02*
X26Y294D01*
X89Y294D02*
X99Y294D01*
X130Y294D02*
X134Y294D01*
X144Y294D02*
X153Y294D01*
X207Y294D02*
X220Y294D01*
X275Y294D02*
X285Y294D01*
X371Y294D02*
X424Y294D01*
X722Y294D02*
X729Y294D01*
X801Y294D02*
X808Y294D01*
X19Y293D02*
X26Y293D01*
X90Y293D02*
X100Y293D01*
X144Y293D02*
X154Y293D01*
X206Y293D02*
X219Y293D01*
X277Y293D02*
X285Y293D01*
X371Y293D02*
X424Y293D01*
X722Y293D02*
X729Y293D01*
X801Y293D02*
X808Y293D01*
X19Y292D02*
X26Y292D01*
X90Y292D02*
X100Y292D01*
X144Y292D02*
X154Y292D01*
X205Y292D02*
X218Y292D01*
X280Y292D02*
X285Y292D01*
X371Y292D02*
X418Y292D01*
X722Y292D02*
X729Y292D01*
X801Y292D02*
X808Y292D01*
X20Y291D02*
X27Y291D01*
X91Y291D02*
X100Y291D01*
X145Y291D02*
X155Y291D01*
X204Y291D02*
X217Y291D01*
X282Y291D02*
X284Y291D01*
X371Y291D02*
X403Y291D01*
X722Y291D02*
X729Y291D01*
X800Y291D02*
X807Y291D01*
X20Y290D02*
X27Y290D01*
X91Y290D02*
X101Y290D01*
X145Y290D02*
X155Y290D01*
X203Y290D02*
X216Y290D01*
X372Y290D02*
X389Y290D01*
X722Y290D02*
X729Y290D01*
X800Y290D02*
X807Y290D01*
X20Y289D02*
X27Y289D01*
X91Y289D02*
X101Y289D01*
X107Y289D02*
X108Y289D01*
X146Y289D02*
X155Y289D01*
X202Y289D02*
X215Y289D01*
X372Y289D02*
X375Y289D01*
X722Y289D02*
X729Y289D01*
X800Y289D02*
X807Y289D01*
X21Y288D02*
X28Y288D01*
X92Y288D02*
X111Y288D01*
X146Y288D02*
X156Y288D01*
X201Y288D02*
X214Y288D01*
X722Y288D02*
X729Y288D01*
X799Y288D02*
X806Y288D01*
X21Y287D02*
X28Y287D01*
X92Y287D02*
X113Y287D01*
X146Y287D02*
X156Y287D01*
X200Y287D02*
X213Y287D01*
X722Y287D02*
X729Y287D01*
X799Y287D02*
X806Y287D01*
X21Y286D02*
X28Y286D01*
X93Y286D02*
X114Y286D01*
X147Y286D02*
X157Y286D01*
X199Y286D02*
X212Y286D01*
X722Y286D02*
X729Y286D01*
X799Y286D02*
X806Y286D01*
X21Y285D02*
X29Y285D01*
X93Y285D02*
X115Y285D01*
X147Y285D02*
X157Y285D01*
X198Y285D02*
X211Y285D01*
X722Y285D02*
X729Y285D01*
X798Y285D02*
X806Y285D01*
X22Y284D02*
X29Y284D01*
X93Y284D02*
X116Y284D01*
X148Y284D02*
X158Y284D01*
X197Y284D02*
X210Y284D01*
X722Y284D02*
X729Y284D01*
X798Y284D02*
X805Y284D01*
X22Y283D02*
X29Y283D01*
X91Y283D02*
X116Y283D01*
X148Y283D02*
X158Y283D01*
X196Y283D02*
X209Y283D01*
X278Y283D02*
X283Y283D01*
X722Y283D02*
X728Y283D01*
X798Y283D02*
X805Y283D01*
X22Y282D02*
X30Y282D01*
X89Y282D02*
X106Y282D01*
X108Y282D02*
X117Y282D01*
X149Y282D02*
X158Y282D01*
X195Y282D02*
X208Y282D01*
X276Y282D02*
X284Y282D01*
X721Y282D02*
X728Y282D01*
X797Y282D02*
X805Y282D01*
X23Y281D02*
X30Y281D01*
X86Y281D02*
X105Y281D01*
X110Y281D02*
X117Y281D01*
X149Y281D02*
X159Y281D01*
X194Y281D02*
X207Y281D01*
X275Y281D02*
X286Y281D01*
X721Y281D02*
X728Y281D01*
X797Y281D02*
X804Y281D01*
X23Y280D02*
X30Y280D01*
X84Y280D02*
X105Y280D01*
X111Y280D02*
X118Y280D01*
X149Y280D02*
X159Y280D01*
X169Y280D02*
X171Y280D01*
X195Y280D02*
X206Y280D01*
X274Y280D02*
X287Y280D01*
X721Y280D02*
X728Y280D01*
X797Y280D02*
X804Y280D01*
X23Y279D02*
X31Y279D01*
X82Y279D02*
X105Y279D01*
X111Y279D02*
X118Y279D01*
X150Y279D02*
X160Y279D01*
X168Y279D02*
X172Y279D01*
X196Y279D02*
X205Y279D01*
X273Y279D02*
X288Y279D01*
X721Y279D02*
X728Y279D01*
X796Y279D02*
X803Y279D01*
X24Y278D02*
X31Y278D01*
X82Y278D02*
X106Y278D01*
X112Y278D02*
X118Y278D01*
X150Y278D02*
X160Y278D01*
X167Y278D02*
X173Y278D01*
X197Y278D02*
X204Y278D01*
X272Y278D02*
X289Y278D01*
X721Y278D02*
X728Y278D01*
X796Y278D02*
X803Y278D01*
X24Y277D02*
X32Y277D01*
X82Y277D02*
X94Y277D01*
X96Y277D02*
X106Y277D01*
X112Y277D02*
X118Y277D01*
X151Y277D02*
X161Y277D01*
X167Y277D02*
X173Y277D01*
X198Y277D02*
X203Y277D01*
X271Y277D02*
X290Y277D01*
X720Y277D02*
X727Y277D01*
X795Y277D02*
X803Y277D01*
X25Y276D02*
X32Y276D01*
X83Y276D02*
X92Y276D01*
X97Y276D02*
X107Y276D01*
X113Y276D02*
X119Y276D01*
X151Y276D02*
X161Y276D01*
X167Y276D02*
X174Y276D01*
X199Y276D02*
X202Y276D01*
X270Y276D02*
X279Y276D01*
X282Y276D02*
X291Y276D01*
X720Y276D02*
X727Y276D01*
X795Y276D02*
X802Y276D01*
X25Y275D02*
X32Y275D01*
X83Y275D02*
X90Y275D01*
X97Y275D02*
X107Y275D01*
X113Y275D02*
X119Y275D01*
X152Y275D02*
X161Y275D01*
X167Y275D02*
X174Y275D01*
X200Y275D02*
X201Y275D01*
X269Y275D02*
X278Y275D01*
X283Y275D02*
X292Y275D01*
X421Y275D02*
X424Y275D01*
X720Y275D02*
X727Y275D01*
X795Y275D02*
X802Y275D01*
X25Y274D02*
X33Y274D01*
X84Y274D02*
X90Y274D01*
X98Y274D02*
X108Y274D01*
X112Y274D02*
X119Y274D01*
X152Y274D02*
X162Y274D01*
X168Y274D02*
X175Y274D01*
X268Y274D02*
X277Y274D01*
X284Y274D02*
X293Y274D01*
X420Y274D02*
X425Y274D01*
X720Y274D02*
X727Y274D01*
X794Y274D02*
X802Y274D01*
X26Y273D02*
X33Y273D01*
X84Y273D02*
X91Y273D01*
X98Y273D02*
X108Y273D01*
X112Y273D02*
X118Y273D01*
X152Y273D02*
X162Y273D01*
X168Y273D02*
X175Y273D01*
X267Y273D02*
X277Y273D01*
X285Y273D02*
X294Y273D01*
X420Y273D02*
X426Y273D01*
X719Y273D02*
X727Y273D01*
X794Y273D02*
X801Y273D01*
X26Y272D02*
X33Y272D01*
X84Y272D02*
X91Y272D01*
X99Y272D02*
X108Y272D01*
X110Y272D02*
X118Y272D01*
X153Y272D02*
X163Y272D01*
X169Y272D02*
X175Y272D01*
X266Y272D02*
X276Y272D01*
X286Y272D02*
X295Y272D01*
X420Y272D02*
X426Y272D01*
X719Y272D02*
X726Y272D01*
X794Y272D02*
X801Y272D01*
X26Y271D02*
X34Y271D01*
X85Y271D02*
X91Y271D01*
X99Y271D02*
X118Y271D01*
X153Y271D02*
X163Y271D01*
X169Y271D02*
X176Y271D01*
X265Y271D02*
X276Y271D01*
X287Y271D02*
X296Y271D01*
X420Y271D02*
X426Y271D01*
X719Y271D02*
X726Y271D01*
X793Y271D02*
X801Y271D01*
X27Y270D02*
X34Y270D01*
X85Y270D02*
X92Y270D01*
X99Y270D02*
X117Y270D01*
X154Y270D02*
X164Y270D01*
X170Y270D02*
X176Y270D01*
X264Y270D02*
X276Y270D01*
X288Y270D02*
X297Y270D01*
X420Y270D02*
X426Y270D01*
X718Y270D02*
X726Y270D01*
X793Y270D02*
X800Y270D01*
X27Y269D02*
X34Y269D01*
X86Y269D02*
X92Y269D01*
X100Y269D02*
X117Y269D01*
X154Y269D02*
X164Y269D01*
X170Y269D02*
X177Y269D01*
X263Y269D02*
X275Y269D01*
X289Y269D02*
X298Y269D01*
X420Y269D02*
X426Y269D01*
X718Y269D02*
X726Y269D01*
X793Y269D02*
X800Y269D01*
X27Y268D02*
X35Y268D01*
X86Y268D02*
X93Y268D01*
X100Y268D02*
X116Y268D01*
X155Y268D02*
X164Y268D01*
X170Y268D02*
X177Y268D01*
X219Y268D02*
X221Y268D01*
X262Y268D02*
X275Y268D01*
X290Y268D02*
X298Y268D01*
X420Y268D02*
X426Y268D01*
X718Y268D02*
X725Y268D01*
X792Y268D02*
X800Y268D01*
X28Y267D02*
X35Y267D01*
X87Y267D02*
X93Y267D01*
X99Y267D02*
X115Y267D01*
X155Y267D02*
X165Y267D01*
X171Y267D02*
X178Y267D01*
X217Y267D02*
X223Y267D01*
X261Y267D02*
X275Y267D01*
X291Y267D02*
X298Y267D01*
X420Y267D02*
X426Y267D01*
X717Y267D02*
X725Y267D01*
X792Y267D02*
X799Y267D01*
X28Y266D02*
X36Y266D01*
X87Y266D02*
X94Y266D01*
X96Y266D02*
X113Y266D01*
X155Y266D02*
X165Y266D01*
X171Y266D02*
X178Y266D01*
X217Y266D02*
X226Y266D01*
X261Y266D02*
X274Y266D01*
X292Y266D02*
X298Y266D01*
X420Y266D02*
X426Y266D01*
X717Y266D02*
X725Y266D01*
X791Y266D02*
X799Y266D01*
X29Y265D02*
X36Y265D01*
X87Y265D02*
X111Y265D01*
X156Y265D02*
X166Y265D01*
X169Y265D02*
X178Y265D01*
X217Y265D02*
X228Y265D01*
X260Y265D02*
X274Y265D01*
X292Y265D02*
X298Y265D01*
X420Y265D02*
X426Y265D01*
X717Y265D02*
X724Y265D01*
X791Y265D02*
X798Y265D01*
X29Y264D02*
X36Y264D01*
X88Y264D02*
X112Y264D01*
X156Y264D02*
X178Y264D01*
X217Y264D02*
X231Y264D01*
X259Y264D02*
X273Y264D01*
X291Y264D02*
X298Y264D01*
X420Y264D02*
X427Y264D01*
X716Y264D02*
X724Y264D01*
X791Y264D02*
X798Y264D01*
X29Y263D02*
X37Y263D01*
X88Y263D02*
X112Y263D01*
X157Y263D02*
X178Y263D01*
X217Y263D02*
X233Y263D01*
X258Y263D02*
X273Y263D01*
X290Y263D02*
X298Y263D01*
X421Y263D02*
X427Y263D01*
X716Y263D02*
X723Y263D01*
X790Y263D02*
X798Y263D01*
X30Y262D02*
X37Y262D01*
X89Y262D02*
X113Y262D01*
X157Y262D02*
X178Y262D01*
X218Y262D02*
X235Y262D01*
X258Y262D02*
X273Y262D01*
X289Y262D02*
X298Y262D01*
X421Y262D02*
X427Y262D01*
X715Y262D02*
X723Y262D01*
X790Y262D02*
X797Y262D01*
X30Y261D02*
X38Y261D01*
X89Y261D02*
X113Y261D01*
X158Y261D02*
X177Y261D01*
X220Y261D02*
X238Y261D01*
X258Y261D02*
X264Y261D01*
X266Y261D02*
X272Y261D01*
X288Y261D02*
X297Y261D01*
X421Y261D02*
X427Y261D01*
X715Y261D02*
X723Y261D01*
X789Y261D02*
X797Y261D01*
X31Y260D02*
X38Y260D01*
X90Y260D02*
X99Y260D01*
X103Y260D02*
X114Y260D01*
X158Y260D02*
X175Y260D01*
X223Y260D02*
X240Y260D01*
X259Y260D02*
X263Y260D01*
X265Y260D02*
X272Y260D01*
X288Y260D02*
X296Y260D01*
X421Y260D02*
X427Y260D01*
X714Y260D02*
X722Y260D01*
X789Y260D02*
X796Y260D01*
X31Y259D02*
X38Y259D01*
X90Y259D02*
X97Y259D01*
X104Y259D02*
X115Y259D01*
X155Y259D02*
X172Y259D01*
X225Y259D02*
X243Y259D01*
X260Y259D02*
X262Y259D01*
X265Y259D02*
X271Y259D01*
X287Y259D02*
X295Y259D01*
X421Y259D02*
X427Y259D01*
X714Y259D02*
X722Y259D01*
X789Y259D02*
X796Y259D01*
X31Y258D02*
X39Y258D01*
X90Y258D02*
X97Y258D01*
X105Y258D02*
X117Y258D01*
X153Y258D02*
X170Y258D01*
X228Y258D02*
X245Y258D01*
X264Y258D02*
X271Y258D01*
X286Y258D02*
X294Y258D01*
X421Y258D02*
X427Y258D01*
X713Y258D02*
X721Y258D01*
X788Y258D02*
X796Y258D01*
X32Y257D02*
X39Y257D01*
X91Y257D02*
X97Y257D01*
X105Y257D02*
X118Y257D01*
X150Y257D02*
X169Y257D01*
X230Y257D02*
X248Y257D01*
X264Y257D02*
X271Y257D01*
X285Y257D02*
X293Y257D01*
X421Y257D02*
X427Y257D01*
X713Y257D02*
X721Y257D01*
X788Y257D02*
X795Y257D01*
X32Y256D02*
X40Y256D01*
X91Y256D02*
X98Y256D01*
X105Y256D02*
X119Y256D01*
X149Y256D02*
X169Y256D01*
X233Y256D02*
X250Y256D01*
X264Y256D02*
X270Y256D01*
X284Y256D02*
X292Y256D01*
X421Y256D02*
X427Y256D01*
X712Y256D02*
X720Y256D01*
X787Y256D02*
X795Y256D01*
X33Y255D02*
X40Y255D01*
X92Y255D02*
X98Y255D01*
X106Y255D02*
X121Y255D01*
X148Y255D02*
X170Y255D01*
X235Y255D02*
X253Y255D01*
X263Y255D02*
X270Y255D01*
X283Y255D02*
X291Y255D01*
X421Y255D02*
X427Y255D01*
X712Y255D02*
X720Y255D01*
X787Y255D02*
X794Y255D01*
X33Y254D02*
X41Y254D01*
X92Y254D02*
X99Y254D01*
X106Y254D02*
X122Y254D01*
X147Y254D02*
X170Y254D01*
X238Y254D02*
X255Y254D01*
X263Y254D02*
X269Y254D01*
X282Y254D02*
X290Y254D01*
X421Y254D02*
X427Y254D01*
X711Y254D02*
X719Y254D01*
X786Y254D02*
X794Y254D01*
X33Y253D02*
X41Y253D01*
X92Y253D02*
X99Y253D01*
X107Y253D02*
X123Y253D01*
X147Y253D02*
X158Y253D01*
X161Y253D02*
X171Y253D01*
X240Y253D02*
X258Y253D01*
X262Y253D02*
X269Y253D01*
X281Y253D02*
X289Y253D01*
X421Y253D02*
X427Y253D01*
X710Y253D02*
X719Y253D01*
X786Y253D02*
X794Y253D01*
X34Y252D02*
X41Y252D01*
X93Y252D02*
X100Y252D01*
X107Y252D02*
X125Y252D01*
X147Y252D02*
X156Y252D01*
X161Y252D02*
X171Y252D01*
X243Y252D02*
X260Y252D01*
X262Y252D02*
X269Y252D01*
X280Y252D02*
X288Y252D01*
X313Y252D02*
X315Y252D01*
X421Y252D02*
X427Y252D01*
X710Y252D02*
X718Y252D01*
X786Y252D02*
X793Y252D01*
X34Y251D02*
X42Y251D01*
X93Y251D02*
X100Y251D01*
X107Y251D02*
X126Y251D01*
X148Y251D02*
X153Y251D01*
X162Y251D02*
X172Y251D01*
X245Y251D02*
X268Y251D01*
X279Y251D02*
X287Y251D01*
X312Y251D02*
X316Y251D01*
X421Y251D02*
X427Y251D01*
X709Y251D02*
X717Y251D01*
X785Y251D02*
X793Y251D01*
X35Y250D02*
X42Y250D01*
X94Y250D02*
X100Y250D01*
X108Y250D02*
X127Y250D01*
X149Y250D02*
X151Y250D01*
X162Y250D02*
X172Y250D01*
X247Y250D02*
X268Y250D01*
X278Y250D02*
X287Y250D01*
X311Y250D02*
X317Y250D01*
X421Y250D02*
X427Y250D01*
X708Y250D02*
X717Y250D01*
X785Y250D02*
X792Y250D01*
X35Y249D02*
X43Y249D01*
X94Y249D02*
X101Y249D01*
X108Y249D02*
X129Y249D01*
X163Y249D02*
X172Y249D01*
X250Y249D02*
X267Y249D01*
X277Y249D02*
X286Y249D01*
X310Y249D02*
X317Y249D01*
X422Y249D02*
X428Y249D01*
X708Y249D02*
X716Y249D01*
X784Y249D02*
X792Y249D01*
X36Y248D02*
X43Y248D01*
X95Y248D02*
X101Y248D01*
X109Y248D02*
X130Y248D01*
X163Y248D02*
X173Y248D01*
X252Y248D02*
X267Y248D01*
X277Y248D02*
X285Y248D01*
X309Y248D02*
X317Y248D01*
X421Y248D02*
X428Y248D01*
X707Y248D02*
X716Y248D01*
X784Y248D02*
X791Y248D01*
X36Y247D02*
X44Y247D01*
X95Y247D02*
X102Y247D01*
X109Y247D02*
X131Y247D01*
X163Y247D02*
X173Y247D01*
X255Y247D02*
X267Y247D01*
X277Y247D02*
X284Y247D01*
X308Y247D02*
X316Y247D01*
X407Y247D02*
X428Y247D01*
X706Y247D02*
X715Y247D01*
X783Y247D02*
X791Y247D01*
X37Y246D02*
X44Y246D01*
X95Y246D02*
X102Y246D01*
X110Y246D02*
X119Y246D01*
X122Y246D02*
X132Y246D01*
X164Y246D02*
X174Y246D01*
X244Y246D02*
X247Y246D01*
X257Y246D02*
X266Y246D01*
X277Y246D02*
X283Y246D01*
X307Y246D02*
X315Y246D01*
X392Y246D02*
X428Y246D01*
X705Y246D02*
X714Y246D01*
X783Y246D02*
X790Y246D01*
X37Y245D02*
X45Y245D01*
X96Y245D02*
X103Y245D01*
X110Y245D02*
X120Y245D01*
X123Y245D02*
X132Y245D01*
X164Y245D02*
X174Y245D01*
X241Y245D02*
X250Y245D01*
X260Y245D02*
X266Y245D01*
X277Y245D02*
X283Y245D01*
X306Y245D02*
X314Y245D01*
X378Y245D02*
X428Y245D01*
X704Y245D02*
X713Y245D01*
X782Y245D02*
X790Y245D01*
X37Y244D02*
X45Y244D01*
X96Y244D02*
X103Y244D01*
X110Y244D02*
X120Y244D01*
X124Y244D02*
X132Y244D01*
X165Y244D02*
X175Y244D01*
X239Y244D02*
X251Y244D01*
X262Y244D02*
X265Y244D01*
X277Y244D02*
X284Y244D01*
X305Y244D02*
X314Y244D01*
X376Y244D02*
X428Y244D01*
X703Y244D02*
X713Y244D01*
X782Y244D02*
X790Y244D01*
X38Y243D02*
X46Y243D01*
X97Y243D02*
X103Y243D01*
X111Y243D02*
X121Y243D01*
X126Y243D02*
X132Y243D01*
X165Y243D02*
X175Y243D01*
X238Y243D02*
X253Y243D01*
X277Y243D02*
X285Y243D01*
X304Y243D02*
X313Y243D01*
X375Y243D02*
X428Y243D01*
X703Y243D02*
X712Y243D01*
X781Y243D02*
X789Y243D01*
X38Y242D02*
X46Y242D01*
X97Y242D02*
X104Y242D01*
X111Y242D02*
X121Y242D01*
X127Y242D02*
X131Y242D01*
X166Y242D02*
X175Y242D01*
X237Y242D02*
X254Y242D01*
X277Y242D02*
X286Y242D01*
X303Y242D02*
X312Y242D01*
X375Y242D02*
X428Y242D01*
X702Y242D02*
X711Y242D01*
X781Y242D02*
X789Y242D01*
X39Y241D02*
X46Y241D01*
X98Y241D02*
X104Y241D01*
X112Y241D02*
X122Y241D01*
X129Y241D02*
X130Y241D01*
X166Y241D02*
X176Y241D01*
X236Y241D02*
X255Y241D01*
X278Y241D02*
X287Y241D01*
X302Y241D02*
X311Y241D01*
X375Y241D02*
X420Y241D01*
X540Y241D02*
X553Y241D01*
X701Y241D02*
X710Y241D01*
X781Y241D02*
X788Y241D01*
X39Y240D02*
X47Y240D01*
X98Y240D02*
X105Y240D01*
X112Y240D02*
X122Y240D01*
X166Y240D02*
X176Y240D01*
X235Y240D02*
X256Y240D01*
X279Y240D02*
X288Y240D01*
X301Y240D02*
X310Y240D01*
X375Y240D02*
X406Y240D01*
X540Y240D02*
X562Y240D01*
X700Y240D02*
X709Y240D01*
X780Y240D02*
X788Y240D01*
X40Y239D02*
X47Y239D01*
X98Y239D02*
X105Y239D01*
X113Y239D02*
X122Y239D01*
X167Y239D02*
X177Y239D01*
X234Y239D02*
X244Y239D01*
X247Y239D02*
X256Y239D01*
X280Y239D02*
X289Y239D01*
X300Y239D02*
X309Y239D01*
X376Y239D02*
X392Y239D01*
X540Y239D02*
X567Y239D01*
X698Y239D02*
X708Y239D01*
X780Y239D02*
X787Y239D01*
X40Y238D02*
X48Y238D01*
X99Y238D02*
X105Y238D01*
X113Y238D02*
X123Y238D01*
X167Y238D02*
X177Y238D01*
X233Y238D02*
X242Y238D01*
X249Y238D02*
X257Y238D01*
X281Y238D02*
X290Y238D01*
X299Y238D02*
X308Y238D01*
X540Y238D02*
X572Y238D01*
X697Y238D02*
X708Y238D01*
X779Y238D02*
X787Y238D01*
X41Y237D02*
X48Y237D01*
X99Y237D02*
X106Y237D01*
X113Y237D02*
X123Y237D01*
X168Y237D02*
X178Y237D01*
X233Y237D02*
X241Y237D01*
X250Y237D02*
X257Y237D01*
X282Y237D02*
X291Y237D01*
X298Y237D02*
X307Y237D01*
X540Y237D02*
X576Y237D01*
X696Y237D02*
X707Y237D01*
X779Y237D02*
X786Y237D01*
X41Y236D02*
X49Y236D01*
X100Y236D02*
X106Y236D01*
X114Y236D02*
X124Y236D01*
X168Y236D02*
X178Y236D01*
X232Y236D02*
X240Y236D01*
X251Y236D02*
X258Y236D01*
X283Y236D02*
X292Y236D01*
X297Y236D02*
X306Y236D01*
X540Y236D02*
X579Y236D01*
X695Y236D02*
X706Y236D01*
X778Y236D02*
X786Y236D01*
X42Y235D02*
X49Y235D01*
X100Y235D02*
X107Y235D01*
X114Y235D02*
X124Y235D01*
X169Y235D02*
X178Y235D01*
X231Y235D02*
X239Y235D01*
X252Y235D02*
X258Y235D01*
X284Y235D02*
X293Y235D01*
X296Y235D02*
X305Y235D01*
X540Y235D02*
X583Y235D01*
X694Y235D02*
X705Y235D01*
X778Y235D02*
X785Y235D01*
X42Y234D02*
X50Y234D01*
X101Y234D02*
X107Y234D01*
X115Y234D02*
X125Y234D01*
X169Y234D02*
X179Y234D01*
X230Y234D02*
X238Y234D01*
X252Y234D02*
X258Y234D01*
X285Y234D02*
X304Y234D01*
X540Y234D02*
X585Y234D01*
X692Y234D02*
X704Y234D01*
X777Y234D02*
X785Y234D01*
X43Y233D02*
X50Y233D01*
X101Y233D02*
X107Y233D01*
X115Y233D02*
X125Y233D01*
X169Y233D02*
X179Y233D01*
X229Y233D02*
X237Y233D01*
X252Y233D02*
X258Y233D01*
X286Y233D02*
X303Y233D01*
X557Y233D02*
X588Y233D01*
X691Y233D02*
X702Y233D01*
X777Y233D02*
X784Y233D01*
X43Y232D02*
X51Y232D01*
X101Y232D02*
X106Y232D01*
X116Y232D02*
X125Y232D01*
X170Y232D02*
X180Y232D01*
X228Y232D02*
X236Y232D01*
X252Y232D02*
X258Y232D01*
X288Y232D02*
X302Y232D01*
X564Y232D02*
X591Y232D01*
X690Y232D02*
X701Y232D01*
X776Y232D02*
X784Y232D01*
X44Y231D02*
X51Y231D01*
X102Y231D02*
X106Y231D01*
X116Y231D02*
X126Y231D01*
X170Y231D02*
X180Y231D01*
X227Y231D02*
X235Y231D01*
X251Y231D02*
X258Y231D01*
X289Y231D02*
X301Y231D01*
X569Y231D02*
X593Y231D01*
X688Y231D02*
X700Y231D01*
X776Y231D02*
X783Y231D01*
X44Y230D02*
X52Y230D01*
X116Y230D02*
X126Y230D01*
X171Y230D02*
X181Y230D01*
X226Y230D02*
X235Y230D01*
X250Y230D02*
X258Y230D01*
X290Y230D02*
X300Y230D01*
X573Y230D02*
X595Y230D01*
X686Y230D02*
X699Y230D01*
X775Y230D02*
X783Y230D01*
X45Y229D02*
X52Y229D01*
X117Y229D02*
X127Y229D01*
X171Y229D02*
X181Y229D01*
X225Y229D02*
X234Y229D01*
X249Y229D02*
X257Y229D01*
X291Y229D02*
X299Y229D01*
X577Y229D02*
X597Y229D01*
X685Y229D02*
X698Y229D01*
X775Y229D02*
X782Y229D01*
X45Y228D02*
X53Y228D01*
X117Y228D02*
X127Y228D01*
X172Y228D02*
X179Y228D01*
X224Y228D02*
X233Y228D01*
X248Y228D02*
X257Y228D01*
X292Y228D02*
X298Y228D01*
X580Y228D02*
X599Y228D01*
X683Y228D02*
X696Y228D01*
X774Y228D02*
X782Y228D01*
X46Y227D02*
X53Y227D01*
X118Y227D02*
X128Y227D01*
X172Y227D02*
X177Y227D01*
X223Y227D02*
X232Y227D01*
X247Y227D02*
X256Y227D01*
X293Y227D02*
X297Y227D01*
X583Y227D02*
X601Y227D01*
X681Y227D02*
X695Y227D01*
X774Y227D02*
X781Y227D01*
X46Y226D02*
X54Y226D01*
X118Y226D02*
X128Y226D01*
X172Y226D02*
X174Y226D01*
X222Y226D02*
X231Y226D01*
X246Y226D02*
X255Y226D01*
X294Y226D02*
X296Y226D01*
X586Y226D02*
X603Y226D01*
X678Y226D02*
X693Y226D01*
X773Y226D02*
X781Y226D01*
X47Y225D02*
X54Y225D01*
X119Y225D02*
X128Y225D01*
X223Y225D02*
X232Y225D01*
X246Y225D02*
X254Y225D01*
X295Y225D02*
X295Y225D01*
X588Y225D02*
X605Y225D01*
X676Y225D02*
X692Y225D01*
X773Y225D02*
X780Y225D01*
X47Y224D02*
X55Y224D01*
X119Y224D02*
X129Y224D01*
X224Y224D02*
X233Y224D01*
X245Y224D02*
X253Y224D01*
X590Y224D02*
X606Y224D01*
X673Y224D02*
X690Y224D01*
X772Y224D02*
X780Y224D01*
X48Y223D02*
X55Y223D01*
X119Y223D02*
X129Y223D01*
X225Y223D02*
X234Y223D01*
X244Y223D02*
X253Y223D01*
X593Y223D02*
X608Y223D01*
X670Y223D02*
X689Y223D01*
X772Y223D02*
X779Y223D01*
X48Y222D02*
X56Y222D01*
X120Y222D02*
X130Y222D01*
X226Y222D02*
X235Y222D01*
X243Y222D02*
X257Y222D01*
X595Y222D02*
X610Y222D01*
X666Y222D02*
X687Y222D01*
X771Y222D02*
X779Y222D01*
X49Y221D02*
X57Y221D01*
X120Y221D02*
X130Y221D01*
X227Y221D02*
X236Y221D01*
X242Y221D02*
X261Y221D01*
X597Y221D02*
X611Y221D01*
X661Y221D02*
X685Y221D01*
X770Y221D02*
X778Y221D01*
X49Y220D02*
X57Y220D01*
X121Y220D02*
X130Y220D01*
X228Y220D02*
X237Y220D01*
X241Y220D02*
X265Y220D01*
X599Y220D02*
X613Y220D01*
X650Y220D02*
X683Y220D01*
X770Y220D02*
X778Y220D01*
X50Y219D02*
X58Y219D01*
X121Y219D02*
X131Y219D01*
X229Y219D02*
X238Y219D01*
X240Y219D02*
X269Y219D01*
X600Y219D02*
X614Y219D01*
X649Y219D02*
X681Y219D01*
X769Y219D02*
X777Y219D01*
X50Y218D02*
X58Y218D01*
X122Y218D02*
X131Y218D01*
X156Y218D02*
X158Y218D01*
X230Y218D02*
X273Y218D01*
X602Y218D02*
X615Y218D01*
X649Y218D02*
X678Y218D01*
X769Y218D02*
X777Y218D01*
X51Y217D02*
X59Y217D01*
X122Y217D02*
X132Y217D01*
X154Y217D02*
X159Y217D01*
X231Y217D02*
X277Y217D01*
X604Y217D02*
X617Y217D01*
X649Y217D02*
X676Y217D01*
X768Y217D02*
X776Y217D01*
X51Y216D02*
X59Y216D01*
X122Y216D02*
X132Y216D01*
X152Y216D02*
X159Y216D01*
X232Y216D02*
X246Y216D01*
X252Y216D02*
X280Y216D01*
X605Y216D02*
X618Y216D01*
X649Y216D02*
X673Y216D01*
X768Y216D02*
X776Y216D01*
X52Y215D02*
X60Y215D01*
X123Y215D02*
X133Y215D01*
X150Y215D02*
X160Y215D01*
X233Y215D02*
X245Y215D01*
X256Y215D02*
X281Y215D01*
X607Y215D02*
X619Y215D01*
X649Y215D02*
X670Y215D01*
X767Y215D02*
X775Y215D01*
X52Y214D02*
X61Y214D01*
X123Y214D02*
X133Y214D01*
X150Y214D02*
X160Y214D01*
X234Y214D02*
X244Y214D01*
X260Y214D02*
X282Y214D01*
X608Y214D02*
X621Y214D01*
X649Y214D02*
X666Y214D01*
X766Y214D02*
X775Y214D01*
X53Y213D02*
X61Y213D01*
X124Y213D02*
X133Y213D01*
X151Y213D02*
X161Y213D01*
X235Y213D02*
X244Y213D01*
X265Y213D02*
X282Y213D01*
X610Y213D02*
X622Y213D01*
X649Y213D02*
X660Y213D01*
X766Y213D02*
X774Y213D01*
X54Y212D02*
X62Y212D01*
X124Y212D02*
X134Y212D01*
X151Y212D02*
X161Y212D01*
X236Y212D02*
X245Y212D01*
X269Y212D02*
X282Y212D01*
X336Y212D02*
X336Y212D01*
X611Y212D02*
X623Y212D01*
X765Y212D02*
X773Y212D01*
X54Y211D02*
X62Y211D01*
X124Y211D02*
X134Y211D01*
X152Y211D02*
X161Y211D01*
X237Y211D02*
X246Y211D01*
X273Y211D02*
X281Y211D01*
X335Y211D02*
X337Y211D01*
X613Y211D02*
X624Y211D01*
X765Y211D02*
X773Y211D01*
X55Y210D02*
X63Y210D01*
X125Y210D02*
X135Y210D01*
X152Y210D02*
X162Y210D01*
X238Y210D02*
X247Y210D01*
X277Y210D02*
X281Y210D01*
X334Y210D02*
X338Y210D01*
X614Y210D02*
X625Y210D01*
X764Y210D02*
X772Y210D01*
X55Y209D02*
X63Y209D01*
X125Y209D02*
X134Y209D01*
X152Y209D02*
X162Y209D01*
X239Y209D02*
X248Y209D01*
X333Y209D02*
X339Y209D01*
X615Y209D02*
X626Y209D01*
X764Y209D02*
X772Y209D01*
X56Y208D02*
X64Y208D01*
X126Y208D02*
X132Y208D01*
X153Y208D02*
X163Y208D01*
X240Y208D02*
X249Y208D01*
X332Y208D02*
X340Y208D01*
X617Y208D02*
X627Y208D01*
X763Y208D02*
X771Y208D01*
X56Y207D02*
X65Y207D01*
X126Y207D02*
X129Y207D01*
X153Y207D02*
X163Y207D01*
X241Y207D02*
X250Y207D01*
X331Y207D02*
X341Y207D01*
X618Y207D02*
X628Y207D01*
X762Y207D02*
X771Y207D01*
X57Y206D02*
X65Y206D01*
X127Y206D02*
X127Y206D01*
X154Y206D02*
X164Y206D01*
X242Y206D02*
X251Y206D01*
X330Y206D02*
X342Y206D01*
X619Y206D02*
X629Y206D01*
X762Y206D02*
X770Y206D01*
X58Y205D02*
X66Y205D01*
X154Y205D02*
X164Y205D01*
X243Y205D02*
X252Y205D01*
X329Y205D02*
X342Y205D01*
X620Y205D02*
X630Y205D01*
X761Y205D02*
X769Y205D01*
X58Y204D02*
X66Y204D01*
X155Y204D02*
X164Y204D01*
X244Y204D02*
X253Y204D01*
X310Y204D02*
X322Y204D01*
X328Y204D02*
X341Y204D01*
X621Y204D02*
X631Y204D01*
X761Y204D02*
X769Y204D01*
X59Y203D02*
X67Y203D01*
X155Y203D02*
X165Y203D01*
X245Y203D02*
X254Y203D01*
X299Y203D02*
X340Y203D01*
X622Y203D02*
X632Y203D01*
X760Y203D02*
X768Y203D01*
X59Y202D02*
X68Y202D01*
X155Y202D02*
X165Y202D01*
X246Y202D02*
X255Y202D01*
X293Y202D02*
X339Y202D01*
X623Y202D02*
X633Y202D01*
X759Y202D02*
X768Y202D01*
X60Y201D02*
X68Y201D01*
X156Y201D02*
X166Y201D01*
X247Y201D02*
X256Y201D01*
X288Y201D02*
X343Y201D01*
X624Y201D02*
X634Y201D01*
X759Y201D02*
X767Y201D01*
X60Y200D02*
X69Y200D01*
X156Y200D02*
X166Y200D01*
X248Y200D02*
X258Y200D01*
X284Y200D02*
X347Y200D01*
X625Y200D02*
X635Y200D01*
X758Y200D02*
X767Y200D01*
X61Y199D02*
X69Y199D01*
X157Y199D02*
X167Y199D01*
X249Y199D02*
X259Y199D01*
X281Y199D02*
X350Y199D01*
X626Y199D02*
X636Y199D01*
X758Y199D02*
X766Y199D01*
X62Y198D02*
X70Y198D01*
X157Y198D02*
X167Y198D01*
X251Y198D02*
X260Y198D01*
X278Y198D02*
X353Y198D01*
X627Y198D02*
X637Y198D01*
X757Y198D02*
X765Y198D01*
X62Y197D02*
X71Y197D01*
X158Y197D02*
X167Y197D01*
X252Y197D02*
X261Y197D01*
X275Y197D02*
X356Y197D01*
X628Y197D02*
X638Y197D01*
X756Y197D02*
X765Y197D01*
X63Y196D02*
X71Y196D01*
X158Y196D02*
X168Y196D01*
X253Y196D02*
X262Y196D01*
X272Y196D02*
X305Y196D01*
X320Y196D02*
X359Y196D01*
X629Y196D02*
X638Y196D01*
X756Y196D02*
X764Y196D01*
X64Y195D02*
X72Y195D01*
X158Y195D02*
X168Y195D01*
X254Y195D02*
X262Y195D01*
X270Y195D02*
X297Y195D01*
X319Y195D02*
X332Y195D01*
X334Y195D02*
X362Y195D01*
X630Y195D02*
X639Y195D01*
X755Y195D02*
X763Y195D01*
X64Y194D02*
X73Y194D01*
X159Y194D02*
X169Y194D01*
X255Y194D02*
X263Y194D01*
X267Y194D02*
X292Y194D01*
X318Y194D02*
X331Y194D01*
X339Y194D02*
X364Y194D01*
X631Y194D02*
X640Y194D01*
X754Y194D02*
X763Y194D01*
X65Y193D02*
X73Y193D01*
X159Y193D02*
X169Y193D01*
X256Y193D02*
X263Y193D01*
X265Y193D02*
X287Y193D01*
X318Y193D02*
X330Y193D01*
X344Y193D02*
X366Y193D01*
X632Y193D02*
X641Y193D01*
X754Y193D02*
X762Y193D01*
X66Y192D02*
X74Y192D01*
X160Y192D02*
X170Y192D01*
X257Y192D02*
X284Y192D01*
X317Y192D02*
X329Y192D01*
X347Y192D02*
X368Y192D01*
X633Y192D02*
X642Y192D01*
X753Y192D02*
X761Y192D01*
X66Y191D02*
X75Y191D01*
X160Y191D02*
X170Y191D01*
X258Y191D02*
X280Y191D01*
X316Y191D02*
X329Y191D01*
X351Y191D02*
X370Y191D01*
X634Y191D02*
X642Y191D01*
X752Y191D02*
X761Y191D01*
X67Y190D02*
X75Y190D01*
X161Y190D02*
X170Y190D01*
X259Y190D02*
X277Y190D01*
X315Y190D02*
X330Y190D01*
X354Y190D02*
X372Y190D01*
X634Y190D02*
X643Y190D01*
X752Y190D02*
X760Y190D01*
X67Y189D02*
X76Y189D01*
X161Y189D02*
X171Y189D01*
X257Y189D02*
X275Y189D01*
X314Y189D02*
X331Y189D01*
X356Y189D02*
X374Y189D01*
X635Y189D02*
X644Y189D01*
X751Y189D02*
X760Y189D01*
X68Y188D02*
X77Y188D01*
X161Y188D02*
X170Y188D01*
X255Y188D02*
X272Y188D01*
X313Y188D02*
X332Y188D01*
X359Y188D02*
X376Y188D01*
X636Y188D02*
X644Y188D01*
X750Y188D02*
X759Y188D01*
X69Y187D02*
X77Y187D01*
X162Y187D02*
X167Y187D01*
X254Y187D02*
X270Y187D01*
X312Y187D02*
X333Y187D01*
X361Y187D02*
X377Y187D01*
X637Y187D02*
X645Y187D01*
X750Y187D02*
X758Y187D01*
X69Y186D02*
X78Y186D01*
X162Y186D02*
X165Y186D01*
X252Y186D02*
X268Y186D01*
X311Y186D02*
X334Y186D01*
X364Y186D02*
X379Y186D01*
X637Y186D02*
X646Y186D01*
X749Y186D02*
X758Y186D01*
X70Y185D02*
X79Y185D01*
X163Y185D02*
X163Y185D01*
X252Y185D02*
X265Y185D01*
X310Y185D02*
X335Y185D01*
X366Y185D02*
X381Y185D01*
X638Y185D02*
X646Y185D01*
X748Y185D02*
X757Y185D01*
X71Y184D02*
X79Y184D01*
X251Y184D02*
X263Y184D01*
X309Y184D02*
X336Y184D01*
X368Y184D02*
X382Y184D01*
X639Y184D02*
X647Y184D01*
X748Y184D02*
X756Y184D01*
X71Y183D02*
X80Y183D01*
X251Y183D02*
X261Y183D01*
X308Y183D02*
X321Y183D01*
X324Y183D02*
X337Y183D01*
X370Y183D02*
X384Y183D01*
X639Y183D02*
X648Y183D01*
X747Y183D02*
X756Y183D01*
X72Y182D02*
X81Y182D01*
X250Y182D02*
X260Y182D01*
X307Y182D02*
X320Y182D01*
X325Y182D02*
X338Y182D01*
X372Y182D02*
X385Y182D01*
X640Y182D02*
X648Y182D01*
X746Y182D02*
X755Y182D01*
X73Y181D02*
X81Y181D01*
X250Y181D02*
X258Y181D01*
X306Y181D02*
X319Y181D01*
X326Y181D02*
X339Y181D01*
X383Y181D02*
X387Y181D01*
X641Y181D02*
X649Y181D01*
X746Y181D02*
X754Y181D01*
X73Y180D02*
X82Y180D01*
X249Y180D02*
X257Y180D01*
X305Y180D02*
X318Y180D01*
X327Y180D02*
X340Y180D01*
X388Y180D02*
X388Y180D01*
X641Y180D02*
X649Y180D01*
X745Y180D02*
X754Y180D01*
X74Y179D02*
X83Y179D01*
X249Y179D02*
X257Y179D01*
X304Y179D02*
X317Y179D01*
X328Y179D02*
X341Y179D01*
X642Y179D02*
X650Y179D01*
X744Y179D02*
X753Y179D01*
X75Y178D02*
X84Y178D01*
X249Y178D02*
X256Y178D01*
X303Y178D02*
X316Y178D01*
X329Y178D02*
X342Y178D01*
X643Y178D02*
X651Y178D01*
X743Y178D02*
X752Y178D01*
X76Y177D02*
X84Y177D01*
X248Y177D02*
X256Y177D01*
X302Y177D02*
X315Y177D01*
X330Y177D02*
X343Y177D01*
X643Y177D02*
X651Y177D01*
X743Y177D02*
X751Y177D01*
X76Y176D02*
X85Y176D01*
X248Y176D02*
X255Y176D01*
X302Y176D02*
X314Y176D01*
X331Y176D02*
X344Y176D01*
X644Y176D02*
X652Y176D01*
X742Y176D02*
X751Y176D01*
X77Y175D02*
X86Y175D01*
X247Y175D02*
X255Y175D01*
X303Y175D02*
X313Y175D01*
X332Y175D02*
X345Y175D01*
X644Y175D02*
X652Y175D01*
X741Y175D02*
X750Y175D01*
X78Y174D02*
X86Y174D01*
X247Y174D02*
X255Y174D01*
X304Y174D02*
X312Y174D01*
X333Y174D02*
X346Y174D01*
X645Y174D02*
X653Y174D01*
X741Y174D02*
X749Y174D01*
X78Y173D02*
X87Y173D01*
X247Y173D02*
X254Y173D01*
X305Y173D02*
X311Y173D01*
X334Y173D02*
X348Y173D01*
X645Y173D02*
X653Y173D01*
X740Y173D02*
X749Y173D01*
X79Y172D02*
X88Y172D01*
X246Y172D02*
X254Y172D01*
X306Y172D02*
X310Y172D01*
X335Y172D02*
X349Y172D01*
X646Y172D02*
X654Y172D01*
X739Y172D02*
X748Y172D01*
X80Y171D02*
X89Y171D01*
X246Y171D02*
X253Y171D01*
X307Y171D02*
X309Y171D01*
X336Y171D02*
X348Y171D01*
X646Y171D02*
X654Y171D01*
X738Y171D02*
X747Y171D01*
X81Y170D02*
X89Y170D01*
X245Y170D02*
X253Y170D01*
X337Y170D02*
X347Y170D01*
X647Y170D02*
X654Y170D01*
X738Y170D02*
X746Y170D01*
X81Y169D02*
X90Y169D01*
X245Y169D02*
X253Y169D01*
X338Y169D02*
X346Y169D01*
X647Y169D02*
X655Y169D01*
X737Y169D02*
X746Y169D01*
X82Y168D02*
X91Y168D01*
X245Y168D02*
X252Y168D01*
X339Y168D02*
X345Y168D01*
X648Y168D02*
X655Y168D01*
X736Y168D02*
X745Y168D01*
X83Y167D02*
X92Y167D01*
X244Y167D02*
X252Y167D01*
X340Y167D02*
X344Y167D01*
X648Y167D02*
X656Y167D01*
X735Y167D02*
X744Y167D01*
X83Y166D02*
X92Y166D01*
X244Y166D02*
X251Y166D01*
X341Y166D02*
X343Y166D01*
X649Y166D02*
X656Y166D01*
X735Y166D02*
X744Y166D01*
X84Y165D02*
X93Y165D01*
X243Y165D02*
X251Y165D01*
X342Y165D02*
X343Y165D01*
X649Y165D02*
X657Y165D01*
X734Y165D02*
X743Y165D01*
X85Y164D02*
X94Y164D01*
X243Y164D02*
X250Y164D01*
X650Y164D02*
X657Y164D01*
X733Y164D02*
X742Y164D01*
X86Y163D02*
X95Y163D01*
X243Y163D02*
X250Y163D01*
X650Y163D02*
X657Y163D01*
X732Y163D02*
X741Y163D01*
X87Y162D02*
X96Y162D01*
X242Y162D02*
X250Y162D01*
X650Y162D02*
X658Y162D01*
X731Y162D02*
X740Y162D01*
X87Y161D02*
X96Y161D01*
X242Y161D02*
X249Y161D01*
X651Y161D02*
X658Y161D01*
X731Y161D02*
X740Y161D01*
X88Y160D02*
X97Y160D01*
X241Y160D02*
X249Y160D01*
X651Y160D02*
X659Y160D01*
X730Y160D02*
X739Y160D01*
X89Y159D02*
X98Y159D01*
X241Y159D02*
X248Y159D01*
X652Y159D02*
X659Y159D01*
X729Y159D02*
X738Y159D01*
X90Y158D02*
X99Y158D01*
X241Y158D02*
X248Y158D01*
X652Y158D02*
X659Y158D01*
X728Y158D02*
X737Y158D01*
X90Y157D02*
X100Y157D01*
X240Y157D02*
X248Y157D01*
X652Y157D02*
X660Y157D01*
X727Y157D02*
X737Y157D01*
X91Y156D02*
X100Y156D01*
X240Y156D02*
X247Y156D01*
X653Y156D02*
X660Y156D01*
X727Y156D02*
X736Y156D01*
X92Y155D02*
X101Y155D01*
X239Y155D02*
X247Y155D01*
X444Y155D02*
X450Y155D01*
X653Y155D02*
X660Y155D01*
X726Y155D02*
X735Y155D01*
X93Y154D02*
X102Y154D01*
X239Y154D02*
X246Y154D01*
X444Y154D02*
X450Y154D01*
X653Y154D02*
X660Y154D01*
X725Y154D02*
X734Y154D01*
X94Y153D02*
X103Y153D01*
X239Y153D02*
X246Y153D01*
X444Y153D02*
X451Y153D01*
X654Y153D02*
X661Y153D01*
X724Y153D02*
X733Y153D01*
X94Y152D02*
X104Y152D01*
X238Y152D02*
X246Y152D01*
X444Y152D02*
X451Y152D01*
X654Y152D02*
X661Y152D01*
X723Y152D02*
X733Y152D01*
X95Y151D02*
X105Y151D01*
X238Y151D02*
X245Y151D01*
X444Y151D02*
X451Y151D01*
X654Y151D02*
X661Y151D01*
X722Y151D02*
X732Y151D01*
X96Y150D02*
X106Y150D01*
X237Y150D02*
X245Y150D01*
X444Y150D02*
X451Y150D01*
X654Y150D02*
X662Y150D01*
X721Y150D02*
X731Y150D01*
X97Y149D02*
X106Y149D01*
X237Y149D02*
X244Y149D01*
X444Y149D02*
X451Y149D01*
X655Y149D02*
X662Y149D01*
X721Y149D02*
X730Y149D01*
X98Y148D02*
X107Y148D01*
X237Y148D02*
X244Y148D01*
X444Y148D02*
X451Y148D01*
X655Y148D02*
X662Y148D01*
X720Y148D02*
X729Y148D01*
X99Y147D02*
X108Y147D01*
X236Y147D02*
X244Y147D01*
X444Y147D02*
X451Y147D01*
X655Y147D02*
X662Y147D01*
X719Y147D02*
X728Y147D01*
X99Y146D02*
X109Y146D01*
X236Y146D02*
X243Y146D01*
X419Y146D02*
X419Y146D01*
X444Y146D02*
X451Y146D01*
X656Y146D02*
X663Y146D01*
X718Y146D02*
X728Y146D01*
X100Y145D02*
X110Y145D01*
X235Y145D02*
X243Y145D01*
X419Y145D02*
X420Y145D01*
X444Y145D02*
X451Y145D01*
X656Y145D02*
X663Y145D01*
X717Y145D02*
X727Y145D01*
X101Y144D02*
X111Y144D01*
X235Y144D02*
X242Y144D01*
X419Y144D02*
X420Y144D01*
X444Y144D02*
X451Y144D01*
X656Y144D02*
X663Y144D01*
X716Y144D02*
X726Y144D01*
X102Y143D02*
X112Y143D01*
X235Y143D02*
X242Y143D01*
X419Y143D02*
X421Y143D01*
X444Y143D02*
X451Y143D01*
X656Y143D02*
X663Y143D01*
X715Y143D02*
X725Y143D01*
X103Y142D02*
X112Y142D01*
X234Y142D02*
X242Y142D01*
X420Y142D02*
X421Y142D01*
X444Y142D02*
X451Y142D01*
X656Y142D02*
X663Y142D01*
X715Y142D02*
X724Y142D01*
X104Y141D02*
X113Y141D01*
X234Y141D02*
X241Y141D01*
X420Y141D02*
X422Y141D01*
X444Y141D02*
X451Y141D01*
X657Y141D02*
X664Y141D01*
X714Y141D02*
X723Y141D01*
X105Y140D02*
X114Y140D01*
X233Y140D02*
X241Y140D01*
X420Y140D02*
X422Y140D01*
X445Y140D02*
X451Y140D01*
X657Y140D02*
X664Y140D01*
X713Y140D02*
X722Y140D01*
X106Y139D02*
X115Y139D01*
X233Y139D02*
X240Y139D01*
X420Y139D02*
X423Y139D01*
X445Y139D02*
X452Y139D01*
X657Y139D02*
X664Y139D01*
X712Y139D02*
X721Y139D01*
X106Y138D02*
X116Y138D01*
X232Y138D02*
X240Y138D01*
X420Y138D02*
X423Y138D01*
X445Y138D02*
X452Y138D01*
X657Y138D02*
X664Y138D01*
X711Y138D02*
X721Y138D01*
X107Y137D02*
X117Y137D01*
X232Y137D02*
X240Y137D01*
X420Y137D02*
X424Y137D01*
X445Y137D02*
X452Y137D01*
X657Y137D02*
X664Y137D01*
X710Y137D02*
X720Y137D01*
X108Y136D02*
X118Y136D01*
X232Y136D02*
X239Y136D01*
X420Y136D02*
X424Y136D01*
X445Y136D02*
X452Y136D01*
X657Y136D02*
X664Y136D01*
X709Y136D02*
X719Y136D01*
X109Y135D02*
X119Y135D01*
X231Y135D02*
X239Y135D01*
X419Y135D02*
X425Y135D01*
X445Y135D02*
X452Y135D01*
X658Y135D02*
X664Y135D01*
X708Y135D02*
X718Y135D01*
X110Y134D02*
X120Y134D01*
X231Y134D02*
X238Y134D01*
X419Y134D02*
X425Y134D01*
X445Y134D02*
X452Y134D01*
X658Y134D02*
X665Y134D01*
X707Y134D02*
X717Y134D01*
X111Y133D02*
X121Y133D01*
X230Y133D02*
X238Y133D01*
X419Y133D02*
X426Y133D01*
X445Y133D02*
X452Y133D01*
X658Y133D02*
X665Y133D01*
X706Y133D02*
X716Y133D01*
X112Y132D02*
X122Y132D01*
X230Y132D02*
X238Y132D01*
X419Y132D02*
X426Y132D01*
X445Y132D02*
X452Y132D01*
X658Y132D02*
X665Y132D01*
X705Y132D02*
X715Y132D01*
X113Y131D02*
X123Y131D01*
X230Y131D02*
X237Y131D01*
X419Y131D02*
X427Y131D01*
X445Y131D02*
X452Y131D01*
X658Y131D02*
X665Y131D01*
X704Y131D02*
X714Y131D01*
X114Y130D02*
X124Y130D01*
X229Y130D02*
X237Y130D01*
X420Y130D02*
X427Y130D01*
X445Y130D02*
X452Y130D01*
X658Y130D02*
X665Y130D01*
X703Y130D02*
X713Y130D01*
X115Y129D02*
X125Y129D01*
X229Y129D02*
X236Y129D01*
X420Y129D02*
X428Y129D01*
X445Y129D02*
X452Y129D01*
X658Y129D02*
X665Y129D01*
X702Y129D02*
X712Y129D01*
X116Y128D02*
X126Y128D01*
X228Y128D02*
X236Y128D01*
X421Y128D02*
X428Y128D01*
X445Y128D02*
X452Y128D01*
X658Y128D02*
X665Y128D01*
X701Y128D02*
X711Y128D01*
X117Y127D02*
X127Y127D01*
X228Y127D02*
X236Y127D01*
X421Y127D02*
X428Y127D01*
X445Y127D02*
X452Y127D01*
X658Y127D02*
X665Y127D01*
X700Y127D02*
X710Y127D01*
X118Y126D02*
X128Y126D01*
X228Y126D02*
X235Y126D01*
X421Y126D02*
X429Y126D01*
X446Y126D02*
X452Y126D01*
X658Y126D02*
X665Y126D01*
X699Y126D02*
X709Y126D01*
X119Y125D02*
X129Y125D01*
X227Y125D02*
X235Y125D01*
X422Y125D02*
X429Y125D01*
X446Y125D02*
X453Y125D01*
X659Y125D02*
X665Y125D01*
X698Y125D02*
X708Y125D01*
X120Y124D02*
X130Y124D01*
X227Y124D02*
X234Y124D01*
X422Y124D02*
X430Y124D01*
X446Y124D02*
X453Y124D01*
X659Y124D02*
X665Y124D01*
X697Y124D02*
X707Y124D01*
X121Y123D02*
X131Y123D01*
X226Y123D02*
X234Y123D01*
X423Y123D02*
X430Y123D01*
X446Y123D02*
X453Y123D01*
X659Y123D02*
X665Y123D01*
X696Y123D02*
X706Y123D01*
X121Y122D02*
X132Y122D01*
X226Y122D02*
X234Y122D01*
X423Y122D02*
X430Y122D01*
X446Y122D02*
X453Y122D01*
X659Y122D02*
X665Y122D01*
X695Y122D02*
X706Y122D01*
X122Y121D02*
X133Y121D01*
X226Y121D02*
X233Y121D01*
X423Y121D02*
X431Y121D01*
X446Y121D02*
X453Y121D01*
X659Y121D02*
X665Y121D01*
X694Y121D02*
X705Y121D01*
X124Y120D02*
X134Y120D01*
X225Y120D02*
X233Y120D01*
X424Y120D02*
X431Y120D01*
X446Y120D02*
X453Y120D01*
X659Y120D02*
X665Y120D01*
X693Y120D02*
X703Y120D01*
X125Y119D02*
X135Y119D01*
X225Y119D02*
X232Y119D01*
X424Y119D02*
X431Y119D01*
X446Y119D02*
X453Y119D01*
X659Y119D02*
X665Y119D01*
X692Y119D02*
X702Y119D01*
X126Y118D02*
X136Y118D01*
X224Y118D02*
X232Y118D01*
X424Y118D02*
X432Y118D01*
X446Y118D02*
X453Y118D01*
X659Y118D02*
X665Y118D01*
X691Y118D02*
X701Y118D01*
X127Y117D02*
X137Y117D01*
X224Y117D02*
X232Y117D01*
X425Y117D02*
X432Y117D01*
X446Y117D02*
X453Y117D01*
X659Y117D02*
X665Y117D01*
X690Y117D02*
X700Y117D01*
X128Y116D02*
X138Y116D01*
X224Y116D02*
X231Y116D01*
X425Y116D02*
X432Y116D01*
X446Y116D02*
X453Y116D01*
X659Y116D02*
X665Y116D01*
X689Y116D02*
X699Y116D01*
X129Y115D02*
X139Y115D01*
X223Y115D02*
X231Y115D01*
X425Y115D02*
X432Y115D01*
X446Y115D02*
X453Y115D01*
X659Y115D02*
X665Y115D01*
X688Y115D02*
X698Y115D01*
X130Y114D02*
X140Y114D01*
X223Y114D02*
X230Y114D01*
X426Y114D02*
X433Y114D01*
X446Y114D02*
X453Y114D01*
X659Y114D02*
X665Y114D01*
X687Y114D02*
X697Y114D01*
X131Y113D02*
X141Y113D01*
X222Y113D02*
X230Y113D01*
X426Y113D02*
X433Y113D01*
X446Y113D02*
X453Y113D01*
X659Y113D02*
X665Y113D01*
X686Y113D02*
X696Y113D01*
X132Y112D02*
X143Y112D01*
X222Y112D02*
X229Y112D01*
X426Y112D02*
X433Y112D01*
X447Y112D02*
X453Y112D01*
X658Y112D02*
X665Y112D01*
X684Y112D02*
X695Y112D01*
X133Y111D02*
X144Y111D01*
X222Y111D02*
X229Y111D01*
X427Y111D02*
X434Y111D01*
X447Y111D02*
X453Y111D01*
X658Y111D02*
X665Y111D01*
X683Y111D02*
X694Y111D01*
X134Y110D02*
X145Y110D01*
X221Y110D02*
X229Y110D01*
X427Y110D02*
X434Y110D01*
X447Y110D02*
X454Y110D01*
X658Y110D02*
X665Y110D01*
X682Y110D02*
X693Y110D01*
X135Y109D02*
X146Y109D01*
X221Y109D02*
X228Y109D01*
X427Y109D02*
X434Y109D01*
X447Y109D02*
X454Y109D01*
X658Y109D02*
X665Y109D01*
X681Y109D02*
X692Y109D01*
X136Y108D02*
X147Y108D01*
X220Y108D02*
X228Y108D01*
X427Y108D02*
X434Y108D01*
X447Y108D02*
X454Y108D01*
X658Y108D02*
X665Y108D01*
X680Y108D02*
X691Y108D01*
X137Y107D02*
X148Y107D01*
X220Y107D02*
X227Y107D01*
X427Y107D02*
X434Y107D01*
X447Y107D02*
X454Y107D01*
X658Y107D02*
X665Y107D01*
X679Y107D02*
X690Y107D01*
X138Y106D02*
X150Y106D01*
X220Y106D02*
X227Y106D01*
X428Y106D02*
X435Y106D01*
X447Y106D02*
X454Y106D01*
X658Y106D02*
X665Y106D01*
X677Y106D02*
X689Y106D01*
X140Y105D02*
X151Y105D01*
X219Y105D02*
X227Y105D01*
X428Y105D02*
X435Y105D01*
X447Y105D02*
X454Y105D01*
X658Y105D02*
X665Y105D01*
X676Y105D02*
X687Y105D01*
X141Y104D02*
X152Y104D01*
X219Y104D02*
X226Y104D01*
X428Y104D02*
X435Y104D01*
X447Y104D02*
X454Y104D01*
X658Y104D02*
X664Y104D01*
X675Y104D02*
X686Y104D01*
X142Y103D02*
X153Y103D01*
X218Y103D02*
X226Y103D01*
X428Y103D02*
X435Y103D01*
X447Y103D02*
X454Y103D01*
X658Y103D02*
X664Y103D01*
X674Y103D02*
X685Y103D01*
X143Y102D02*
X154Y102D01*
X218Y102D02*
X225Y102D01*
X428Y102D02*
X435Y102D01*
X447Y102D02*
X454Y102D01*
X657Y102D02*
X664Y102D01*
X673Y102D02*
X684Y102D01*
X144Y101D02*
X155Y101D01*
X218Y101D02*
X225Y101D01*
X429Y101D02*
X435Y101D01*
X447Y101D02*
X454Y101D01*
X657Y101D02*
X664Y101D01*
X672Y101D02*
X683Y101D01*
X145Y100D02*
X157Y100D01*
X217Y100D02*
X225Y100D01*
X429Y100D02*
X436Y100D01*
X447Y100D02*
X454Y100D01*
X657Y100D02*
X664Y100D01*
X670Y100D02*
X682Y100D01*
X146Y99D02*
X158Y99D01*
X217Y99D02*
X224Y99D01*
X429Y99D02*
X436Y99D01*
X447Y99D02*
X454Y99D01*
X657Y99D02*
X664Y99D01*
X669Y99D02*
X681Y99D01*
X148Y98D02*
X159Y98D01*
X216Y98D02*
X224Y98D01*
X429Y98D02*
X436Y98D01*
X448Y98D02*
X454Y98D01*
X657Y98D02*
X664Y98D01*
X668Y98D02*
X679Y98D01*
X149Y97D02*
X160Y97D01*
X216Y97D02*
X223Y97D01*
X429Y97D02*
X436Y97D01*
X448Y97D02*
X454Y97D01*
X656Y97D02*
X663Y97D01*
X667Y97D02*
X678Y97D01*
X150Y96D02*
X162Y96D01*
X216Y96D02*
X223Y96D01*
X429Y96D02*
X436Y96D01*
X448Y96D02*
X455Y96D01*
X656Y96D02*
X663Y96D01*
X665Y96D02*
X677Y96D01*
X151Y95D02*
X163Y95D01*
X215Y95D02*
X223Y95D01*
X429Y95D02*
X436Y95D01*
X448Y95D02*
X455Y95D01*
X656Y95D02*
X676Y95D01*
X152Y94D02*
X164Y94D01*
X215Y94D02*
X222Y94D01*
X430Y94D02*
X436Y94D01*
X448Y94D02*
X455Y94D01*
X656Y94D02*
X675Y94D01*
X154Y93D02*
X165Y93D01*
X214Y93D02*
X222Y93D01*
X430Y93D02*
X436Y93D01*
X448Y93D02*
X455Y93D01*
X656Y93D02*
X673Y93D01*
X155Y92D02*
X167Y92D01*
X214Y92D02*
X221Y92D01*
X430Y92D02*
X437Y92D01*
X448Y92D02*
X455Y92D01*
X655Y92D02*
X672Y92D01*
X156Y91D02*
X168Y91D01*
X214Y91D02*
X221Y91D01*
X430Y91D02*
X437Y91D01*
X448Y91D02*
X455Y91D01*
X655Y91D02*
X671Y91D01*
X157Y90D02*
X169Y90D01*
X213Y90D02*
X221Y90D01*
X430Y90D02*
X437Y90D01*
X448Y90D02*
X455Y90D01*
X655Y90D02*
X670Y90D01*
X159Y89D02*
X171Y89D01*
X213Y89D02*
X220Y89D01*
X430Y89D02*
X437Y89D01*
X448Y89D02*
X455Y89D01*
X655Y89D02*
X668Y89D01*
X160Y88D02*
X172Y88D01*
X212Y88D02*
X220Y88D01*
X430Y88D02*
X437Y88D01*
X448Y88D02*
X455Y88D01*
X654Y88D02*
X667Y88D01*
X161Y87D02*
X173Y87D01*
X212Y87D02*
X219Y87D01*
X430Y87D02*
X437Y87D01*
X448Y87D02*
X455Y87D01*
X654Y87D02*
X666Y87D01*
X163Y86D02*
X175Y86D01*
X211Y86D02*
X219Y86D01*
X430Y86D02*
X437Y86D01*
X448Y86D02*
X455Y86D01*
X652Y86D02*
X664Y86D01*
X164Y85D02*
X176Y85D01*
X211Y85D02*
X219Y85D01*
X430Y85D02*
X437Y85D01*
X448Y85D02*
X455Y85D01*
X651Y85D02*
X663Y85D01*
X165Y84D02*
X178Y84D01*
X211Y84D02*
X218Y84D01*
X430Y84D02*
X437Y84D01*
X448Y84D02*
X455Y84D01*
X649Y84D02*
X662Y84D01*
X166Y83D02*
X179Y83D01*
X210Y83D02*
X218Y83D01*
X430Y83D02*
X437Y83D01*
X449Y83D02*
X455Y83D01*
X648Y83D02*
X661Y83D01*
X168Y82D02*
X180Y82D01*
X210Y82D02*
X217Y82D01*
X430Y82D02*
X437Y82D01*
X449Y82D02*
X456Y82D01*
X647Y82D02*
X660Y82D01*
X169Y81D02*
X182Y81D01*
X209Y81D02*
X217Y81D01*
X430Y81D02*
X437Y81D01*
X449Y81D02*
X456Y81D01*
X645Y81D02*
X659Y81D01*
X171Y80D02*
X183Y80D01*
X209Y80D02*
X217Y80D01*
X430Y80D02*
X437Y80D01*
X449Y80D02*
X456Y80D01*
X644Y80D02*
X659Y80D01*
X172Y79D02*
X185Y79D01*
X209Y79D02*
X216Y79D01*
X430Y79D02*
X437Y79D01*
X449Y79D02*
X456Y79D01*
X642Y79D02*
X659Y79D01*
X173Y78D02*
X186Y78D01*
X208Y78D02*
X216Y78D01*
X430Y78D02*
X437Y78D01*
X449Y78D02*
X456Y78D01*
X641Y78D02*
X658Y78D01*
X175Y77D02*
X188Y77D01*
X208Y77D02*
X215Y77D01*
X430Y77D02*
X437Y77D01*
X449Y77D02*
X456Y77D01*
X639Y77D02*
X658Y77D01*
X176Y76D02*
X189Y76D01*
X207Y76D02*
X215Y76D01*
X430Y76D02*
X437Y76D01*
X449Y76D02*
X456Y76D01*
X638Y76D02*
X657Y76D01*
X178Y75D02*
X191Y75D01*
X207Y75D02*
X215Y75D01*
X430Y75D02*
X437Y75D01*
X449Y75D02*
X456Y75D01*
X636Y75D02*
X657Y75D01*
X179Y74D02*
X192Y74D01*
X207Y74D02*
X214Y74D01*
X430Y74D02*
X437Y74D01*
X449Y74D02*
X456Y74D01*
X635Y74D02*
X657Y74D01*
X180Y73D02*
X194Y73D01*
X206Y73D02*
X214Y73D01*
X430Y73D02*
X437Y73D01*
X449Y73D02*
X456Y73D01*
X633Y73D02*
X647Y73D01*
X649Y73D02*
X656Y73D01*
X182Y72D02*
X195Y72D01*
X206Y72D02*
X213Y72D01*
X430Y72D02*
X437Y72D01*
X449Y72D02*
X456Y72D01*
X632Y72D02*
X645Y72D01*
X648Y72D02*
X656Y72D01*
X183Y71D02*
X197Y71D01*
X205Y71D02*
X213Y71D01*
X430Y71D02*
X436Y71D01*
X449Y71D02*
X456Y71D01*
X630Y71D02*
X644Y71D01*
X648Y71D02*
X655Y71D01*
X185Y70D02*
X198Y70D01*
X205Y70D02*
X213Y70D01*
X429Y70D02*
X436Y70D01*
X449Y70D02*
X456Y70D01*
X629Y70D02*
X642Y70D01*
X647Y70D02*
X655Y70D01*
X186Y69D02*
X200Y69D01*
X205Y69D02*
X212Y69D01*
X429Y69D02*
X436Y69D01*
X450Y69D02*
X456Y69D01*
X627Y69D02*
X641Y69D01*
X647Y69D02*
X655Y69D01*
X188Y68D02*
X202Y68D01*
X204Y68D02*
X212Y68D01*
X429Y68D02*
X436Y68D01*
X450Y68D02*
X456Y68D01*
X625Y68D02*
X639Y68D01*
X646Y68D02*
X654Y68D01*
X189Y67D02*
X211Y67D01*
X429Y67D02*
X436Y67D01*
X450Y67D02*
X457Y67D01*
X624Y67D02*
X638Y67D01*
X646Y67D02*
X654Y67D01*
X191Y66D02*
X211Y66D01*
X429Y66D02*
X436Y66D01*
X450Y66D02*
X457Y66D01*
X622Y66D02*
X636Y66D01*
X645Y66D02*
X653Y66D01*
X193Y65D02*
X210Y65D01*
X429Y65D02*
X436Y65D01*
X450Y65D02*
X457Y65D01*
X620Y65D02*
X634Y65D01*
X645Y65D02*
X653Y65D01*
X194Y64D02*
X210Y64D01*
X429Y64D02*
X436Y64D01*
X450Y64D02*
X457Y64D01*
X619Y64D02*
X633Y64D01*
X644Y64D02*
X652Y64D01*
X196Y63D02*
X210Y63D01*
X428Y63D02*
X435Y63D01*
X450Y63D02*
X457Y63D01*
X617Y63D02*
X631Y63D01*
X644Y63D02*
X652Y63D01*
X197Y62D02*
X212Y62D01*
X428Y62D02*
X435Y62D01*
X450Y62D02*
X457Y62D01*
X615Y62D02*
X630Y62D01*
X643Y62D02*
X651Y62D01*
X199Y61D02*
X214Y61D01*
X428Y61D02*
X435Y61D01*
X450Y61D02*
X457Y61D01*
X613Y61D02*
X628Y61D01*
X642Y61D02*
X651Y61D01*
X200Y60D02*
X215Y60D01*
X428Y60D02*
X435Y60D01*
X450Y60D02*
X457Y60D01*
X612Y60D02*
X627Y60D01*
X642Y60D02*
X650Y60D01*
X201Y59D02*
X217Y59D01*
X428Y59D02*
X435Y59D01*
X450Y59D02*
X457Y59D01*
X610Y59D02*
X625Y59D01*
X641Y59D02*
X649Y59D01*
X200Y58D02*
X219Y58D01*
X427Y58D02*
X435Y58D01*
X450Y58D02*
X457Y58D01*
X608Y58D02*
X623Y58D01*
X641Y58D02*
X649Y58D01*
X200Y57D02*
X221Y57D01*
X427Y57D02*
X434Y57D01*
X450Y57D02*
X457Y57D01*
X606Y57D02*
X621Y57D01*
X640Y57D02*
X648Y57D01*
X199Y56D02*
X222Y56D01*
X427Y56D02*
X434Y56D01*
X450Y56D02*
X457Y56D01*
X605Y56D02*
X620Y56D01*
X639Y56D02*
X648Y56D01*
X199Y55D02*
X206Y55D01*
X209Y55D02*
X224Y55D01*
X427Y55D02*
X434Y55D01*
X451Y55D02*
X457Y55D01*
X603Y55D02*
X618Y55D01*
X639Y55D02*
X647Y55D01*
X199Y54D02*
X206Y54D01*
X211Y54D02*
X226Y54D01*
X427Y54D02*
X434Y54D01*
X451Y54D02*
X457Y54D01*
X601Y54D02*
X616Y54D01*
X638Y54D02*
X646Y54D01*
X198Y53D02*
X206Y53D01*
X213Y53D02*
X228Y53D01*
X426Y53D02*
X433Y53D01*
X451Y53D02*
X458Y53D01*
X599Y53D02*
X614Y53D01*
X637Y53D02*
X646Y53D01*
X198Y52D02*
X205Y52D01*
X214Y52D02*
X230Y52D01*
X426Y52D02*
X433Y52D01*
X451Y52D02*
X458Y52D01*
X597Y52D02*
X613Y52D01*
X637Y52D02*
X645Y52D01*
X198Y51D02*
X205Y51D01*
X216Y51D02*
X232Y51D01*
X426Y51D02*
X433Y51D01*
X451Y51D02*
X458Y51D01*
X595Y51D02*
X611Y51D01*
X636Y51D02*
X644Y51D01*
X199Y50D02*
X206Y50D01*
X218Y50D02*
X234Y50D01*
X425Y50D02*
X433Y50D01*
X451Y50D02*
X458Y50D01*
X593Y50D02*
X609Y50D01*
X635Y50D02*
X644Y50D01*
X199Y49D02*
X206Y49D01*
X220Y49D02*
X236Y49D01*
X425Y49D02*
X432Y49D01*
X451Y49D02*
X458Y49D01*
X591Y49D02*
X607Y49D01*
X634Y49D02*
X643Y49D01*
X199Y48D02*
X206Y48D01*
X222Y48D02*
X238Y48D01*
X425Y48D02*
X432Y48D01*
X451Y48D02*
X458Y48D01*
X589Y48D02*
X605Y48D01*
X633Y48D02*
X642Y48D01*
X199Y47D02*
X207Y47D01*
X224Y47D02*
X240Y47D01*
X425Y47D02*
X432Y47D01*
X451Y47D02*
X458Y47D01*
X587Y47D02*
X603Y47D01*
X633Y47D02*
X642Y47D01*
X200Y46D02*
X207Y46D01*
X226Y46D02*
X243Y46D01*
X424Y46D02*
X431Y46D01*
X451Y46D02*
X458Y46D01*
X584Y46D02*
X601Y46D01*
X632Y46D02*
X641Y46D01*
X200Y45D02*
X207Y45D01*
X228Y45D02*
X245Y45D01*
X424Y45D02*
X431Y45D01*
X451Y45D02*
X458Y45D01*
X582Y45D02*
X599Y45D01*
X631Y45D02*
X640Y45D01*
X200Y44D02*
X208Y44D01*
X230Y44D02*
X247Y44D01*
X424Y44D02*
X431Y44D01*
X451Y44D02*
X458Y44D01*
X580Y44D02*
X597Y44D01*
X630Y44D02*
X639Y44D01*
X201Y43D02*
X208Y43D01*
X232Y43D02*
X249Y43D01*
X423Y43D02*
X430Y43D01*
X451Y43D02*
X459Y43D01*
X578Y43D02*
X595Y43D01*
X629Y43D02*
X639Y43D01*
X201Y42D02*
X208Y42D01*
X234Y42D02*
X251Y42D01*
X423Y42D02*
X430Y42D01*
X451Y42D02*
X460Y42D01*
X576Y42D02*
X593Y42D01*
X628Y42D02*
X638Y42D01*
X201Y41D02*
X209Y41D01*
X236Y41D02*
X254Y41D01*
X422Y41D02*
X430Y41D01*
X452Y41D02*
X461Y41D01*
X573Y41D02*
X591Y41D01*
X627Y41D02*
X637Y41D01*
X202Y40D02*
X209Y40D01*
X238Y40D02*
X256Y40D01*
X422Y40D02*
X429Y40D01*
X452Y40D02*
X462Y40D01*
X571Y40D02*
X589Y40D01*
X626Y40D02*
X636Y40D01*
X202Y39D02*
X210Y39D01*
X240Y39D02*
X258Y39D01*
X422Y39D02*
X429Y39D01*
X453Y39D02*
X463Y39D01*
X569Y39D02*
X587Y39D01*
X625Y39D02*
X635Y39D01*
X203Y38D02*
X210Y38D01*
X242Y38D02*
X261Y38D01*
X421Y38D02*
X429Y38D01*
X454Y38D02*
X464Y38D01*
X566Y38D02*
X585Y38D01*
X624Y38D02*
X634Y38D01*
X203Y37D02*
X210Y37D01*
X244Y37D02*
X263Y37D01*
X421Y37D02*
X428Y37D01*
X455Y37D02*
X465Y37D01*
X564Y37D02*
X583Y37D01*
X623Y37D02*
X633Y37D01*
X203Y36D02*
X211Y36D01*
X247Y36D02*
X266Y36D01*
X420Y36D02*
X428Y36D01*
X456Y36D02*
X466Y36D01*
X561Y36D02*
X580Y36D01*
X622Y36D02*
X632Y36D01*
X204Y35D02*
X211Y35D01*
X249Y35D02*
X268Y35D01*
X420Y35D02*
X427Y35D01*
X457Y35D02*
X467Y35D01*
X559Y35D02*
X578Y35D01*
X621Y35D02*
X631Y35D01*
X204Y34D02*
X212Y34D01*
X251Y34D02*
X271Y34D01*
X419Y34D02*
X427Y34D01*
X458Y34D02*
X468Y34D01*
X556Y34D02*
X576Y34D01*
X620Y34D02*
X630Y34D01*
X205Y33D02*
X212Y33D01*
X253Y33D02*
X274Y33D01*
X419Y33D02*
X427Y33D01*
X459Y33D02*
X469Y33D01*
X553Y33D02*
X574Y33D01*
X619Y33D02*
X629Y33D01*
X205Y32D02*
X213Y32D01*
X256Y32D02*
X277Y32D01*
X418Y32D02*
X426Y32D01*
X460Y32D02*
X471Y32D01*
X550Y32D02*
X571Y32D01*
X618Y32D02*
X628Y32D01*
X206Y31D02*
X213Y31D01*
X258Y31D02*
X279Y31D01*
X418Y31D02*
X426Y31D01*
X461Y31D02*
X472Y31D01*
X548Y31D02*
X569Y31D01*
X617Y31D02*
X627Y31D01*
X206Y30D02*
X214Y30D01*
X261Y30D02*
X282Y30D01*
X417Y30D02*
X425Y30D01*
X462Y30D02*
X473Y30D01*
X545Y30D02*
X566Y30D01*
X615Y30D02*
X626Y30D01*
X206Y29D02*
X214Y29D01*
X263Y29D02*
X285Y29D01*
X417Y29D02*
X425Y29D01*
X463Y29D02*
X474Y29D01*
X542Y29D02*
X564Y29D01*
X614Y29D02*
X625Y29D01*
X207Y28D02*
X215Y28D01*
X266Y28D02*
X288Y28D01*
X416Y28D02*
X424Y28D01*
X464Y28D02*
X476Y28D01*
X539Y28D02*
X561Y28D01*
X613Y28D02*
X624Y28D01*
X207Y27D02*
X215Y27D01*
X268Y27D02*
X291Y27D01*
X416Y27D02*
X424Y27D01*
X465Y27D02*
X477Y27D01*
X536Y27D02*
X559Y27D01*
X611Y27D02*
X623Y27D01*
X208Y26D02*
X216Y26D01*
X271Y26D02*
X295Y26D01*
X415Y26D02*
X423Y26D01*
X466Y26D02*
X478Y26D01*
X532Y26D02*
X556Y26D01*
X610Y26D02*
X622Y26D01*
X209Y25D02*
X216Y25D01*
X274Y25D02*
X298Y25D01*
X415Y25D02*
X423Y25D01*
X468Y25D02*
X480Y25D01*
X529Y25D02*
X553Y25D01*
X609Y25D02*
X621Y25D01*
X209Y24D02*
X217Y24D01*
X277Y24D02*
X301Y24D01*
X414Y24D02*
X422Y24D01*
X469Y24D02*
X481Y24D01*
X526Y24D02*
X550Y24D01*
X607Y24D02*
X619Y24D01*
X210Y23D02*
X218Y23D01*
X280Y23D02*
X305Y23D01*
X414Y23D02*
X422Y23D01*
X470Y23D02*
X483Y23D01*
X522Y23D02*
X547Y23D01*
X605Y23D02*
X618Y23D01*
X210Y22D02*
X218Y22D01*
X282Y22D02*
X309Y22D01*
X413Y22D02*
X421Y22D01*
X471Y22D02*
X484Y22D01*
X518Y22D02*
X545Y22D01*
X604Y22D02*
X617Y22D01*
X211Y21D02*
X219Y21D01*
X285Y21D02*
X313Y21D01*
X412Y21D02*
X420Y21D01*
X473Y21D02*
X486Y21D01*
X514Y21D02*
X542Y21D01*
X602Y21D02*
X615Y21D01*
X211Y20D02*
X220Y20D01*
X289Y20D02*
X317Y20D01*
X412Y20D02*
X420Y20D01*
X474Y20D02*
X488Y20D01*
X510Y20D02*
X538Y20D01*
X600Y20D02*
X614Y20D01*
X212Y19D02*
X220Y19D01*
X292Y19D02*
X321Y19D01*
X411Y19D02*
X419Y19D01*
X476Y19D02*
X490Y19D01*
X506Y19D02*
X535Y19D01*
X599Y19D02*
X613Y19D01*
X213Y18D02*
X221Y18D01*
X295Y18D02*
X325Y18D01*
X410Y18D02*
X419Y18D01*
X477Y18D02*
X492Y18D01*
X502Y18D02*
X532Y18D01*
X597Y18D02*
X611Y18D01*
X213Y17D02*
X222Y17D01*
X298Y17D02*
X330Y17D01*
X410Y17D02*
X418Y17D01*
X479Y17D02*
X494Y17D01*
X497Y17D02*
X529Y17D01*
X595Y17D02*
X609Y17D01*
X214Y16D02*
X222Y16D01*
X302Y16D02*
X335Y16D01*
X409Y16D02*
X417Y16D01*
X480Y16D02*
X525Y16D01*
X593Y16D02*
X608Y16D01*
X214Y15D02*
X223Y15D01*
X305Y15D02*
X340Y15D01*
X408Y15D02*
X417Y15D01*
X482Y15D02*
X522Y15D01*
X590Y15D02*
X606Y15D01*
X215Y14D02*
X224Y14D01*
X309Y14D02*
X346Y14D01*
X408Y14D02*
X416Y14D01*
X481Y14D02*
X518Y14D01*
X588Y14D02*
X605Y14D01*
X216Y13D02*
X224Y13D01*
X313Y13D02*
X352Y13D01*
X407Y13D02*
X415Y13D01*
X475Y13D02*
X514Y13D01*
X585Y13D02*
X603Y13D01*
X216Y12D02*
X225Y12D01*
X317Y12D02*
X359Y12D01*
X406Y12D02*
X415Y12D01*
X468Y12D02*
X510Y12D01*
X583Y12D02*
X601Y12D01*
X217Y11D02*
X226Y11D01*
X321Y11D02*
X368Y11D01*
X405Y11D02*
X414Y11D01*
X459Y11D02*
X508Y11D01*
X580Y11D02*
X599Y11D01*
X218Y10D02*
X227Y10D01*
X326Y10D02*
X378Y10D01*
X404Y10D02*
X413Y10D01*
X449Y10D02*
X511Y10D01*
X576Y10D02*
X597Y10D01*
X219Y9D02*
X228Y9D01*
X330Y9D02*
X393Y9D01*
X404Y9D02*
X412Y9D01*
X434Y9D02*
X515Y9D01*
X573Y9D02*
X595Y9D01*
X219Y8D02*
X229Y8D01*
X336Y8D02*
X491Y8D01*
X495Y8D02*
X519Y8D01*
X569Y8D02*
X593Y8D01*
X220Y7D02*
X229Y7D01*
X341Y7D02*
X486Y7D01*
X498Y7D02*
X524Y7D01*
X563Y7D02*
X590Y7D01*
X221Y6D02*
X230Y6D01*
X347Y6D02*
X480Y6D01*
X500Y6D02*
X532Y6D01*
X556Y6D02*
X588Y6D01*
X222Y5D02*
X231Y5D01*
X353Y5D02*
X474Y5D01*
X503Y5D02*
X585Y5D01*
X223Y4D02*
X232Y4D01*
X360Y4D02*
X467Y4D01*
X506Y4D02*
X582Y4D01*
X224Y3D02*
X233Y3D01*
X369Y3D02*
X458Y3D01*
X509Y3D02*
X579Y3D01*
X224Y2D02*
X234Y2D01*
X379Y2D02*
X448Y2D01*
X512Y2D02*
X576Y2D01*
X225Y1D02*
X235Y1D01*
X394Y1D02*
X433Y1D01*
X516Y1D02*
X572Y1D01*
X226Y0D02*
X236Y0D01*
X395Y0D02*
X405Y0D01*
X521Y0D02*
X568Y0D01*
X227Y-1D02*
X237Y-1D01*
X394Y-1D02*
X404Y-1D01*
X527Y-1D02*
X562Y-1D01*
D02*
G04 End of Silk1*
M02*