G04 MADE WITH FRITZING*
G04 WWW.FRITZING.ORG*
G04 DOUBLE SIDED*
G04 HOLES PLATED*
G04 CONTOUR ON CENTER OF CONTOUR VECTOR*
%ASAXBY*%
%FSLAX23Y23*%
%MOIN*%
%OFA0B0*%
%SFA1.0B1.0*%
%ADD10C,0.093000*%
%ADD11R,0.055118X0.059055*%
%ADD12C,0.000100*%
%ADD13R,0.001000X0.001000*%
%LNPASTEMASK1*%
G90*
G70*
G54D10*
X489Y206D03*
X489Y206D03*
G54D11*
X539Y115D03*
X459Y115D03*
G54D12*
G36*
X326Y37D02*
X342Y94D01*
X395Y78D01*
X379Y22D01*
X326Y37D01*
G37*
D02*
G36*
X248Y59D02*
X264Y116D01*
X317Y101D01*
X301Y44D01*
X248Y59D01*
G37*
D02*
G54D13*
X443Y252D02*
X535Y252D01*
X443Y251D02*
X535Y251D01*
X443Y250D02*
X535Y250D01*
X443Y249D02*
X535Y249D01*
X443Y248D02*
X535Y248D01*
X443Y247D02*
X535Y247D01*
X443Y246D02*
X535Y246D01*
X443Y245D02*
X535Y245D01*
X443Y244D02*
X535Y244D01*
X443Y243D02*
X535Y243D01*
X443Y242D02*
X483Y242D01*
X495Y242D02*
X535Y242D01*
X443Y241D02*
X478Y241D01*
X500Y241D02*
X535Y241D01*
X443Y240D02*
X475Y240D01*
X503Y240D02*
X535Y240D01*
X443Y239D02*
X473Y239D01*
X505Y239D02*
X535Y239D01*
X443Y238D02*
X471Y238D01*
X507Y238D02*
X535Y238D01*
X443Y237D02*
X469Y237D01*
X509Y237D02*
X535Y237D01*
X443Y236D02*
X468Y236D01*
X510Y236D02*
X535Y236D01*
X443Y235D02*
X466Y235D01*
X512Y235D02*
X535Y235D01*
X443Y234D02*
X465Y234D01*
X513Y234D02*
X535Y234D01*
X443Y233D02*
X464Y233D01*
X514Y233D02*
X535Y233D01*
X443Y232D02*
X463Y232D01*
X515Y232D02*
X535Y232D01*
X443Y231D02*
X462Y231D01*
X516Y231D02*
X535Y231D01*
X443Y230D02*
X461Y230D01*
X517Y230D02*
X535Y230D01*
X443Y229D02*
X460Y229D01*
X518Y229D02*
X535Y229D01*
X443Y228D02*
X459Y228D01*
X519Y228D02*
X535Y228D01*
X443Y227D02*
X459Y227D01*
X519Y227D02*
X535Y227D01*
X443Y226D02*
X458Y226D01*
X520Y226D02*
X535Y226D01*
X443Y225D02*
X457Y225D01*
X521Y225D02*
X535Y225D01*
X443Y224D02*
X457Y224D01*
X521Y224D02*
X535Y224D01*
X443Y223D02*
X456Y223D01*
X522Y223D02*
X535Y223D01*
X443Y222D02*
X456Y222D01*
X522Y222D02*
X535Y222D01*
X443Y221D02*
X455Y221D01*
X523Y221D02*
X535Y221D01*
X443Y220D02*
X455Y220D01*
X523Y220D02*
X535Y220D01*
X443Y219D02*
X454Y219D01*
X524Y219D02*
X535Y219D01*
X443Y218D02*
X454Y218D01*
X524Y218D02*
X535Y218D01*
X443Y217D02*
X454Y217D01*
X524Y217D02*
X535Y217D01*
X443Y216D02*
X453Y216D01*
X525Y216D02*
X535Y216D01*
X443Y215D02*
X453Y215D01*
X525Y215D02*
X535Y215D01*
X443Y214D02*
X453Y214D01*
X525Y214D02*
X535Y214D01*
X443Y213D02*
X453Y213D01*
X525Y213D02*
X535Y213D01*
X443Y212D02*
X453Y212D01*
X525Y212D02*
X535Y212D01*
X443Y211D02*
X452Y211D01*
X526Y211D02*
X535Y211D01*
X443Y210D02*
X452Y210D01*
X526Y210D02*
X535Y210D01*
X443Y209D02*
X452Y209D01*
X526Y209D02*
X535Y209D01*
X443Y208D02*
X452Y208D01*
X526Y208D02*
X535Y208D01*
X443Y207D02*
X452Y207D01*
X526Y207D02*
X535Y207D01*
X443Y206D02*
X452Y206D01*
X526Y206D02*
X535Y206D01*
X443Y205D02*
X452Y205D01*
X526Y205D02*
X535Y205D01*
X443Y204D02*
X452Y204D01*
X526Y204D02*
X535Y204D01*
X443Y203D02*
X452Y203D01*
X526Y203D02*
X535Y203D01*
X443Y202D02*
X452Y202D01*
X526Y202D02*
X535Y202D01*
X443Y201D02*
X452Y201D01*
X526Y201D02*
X535Y201D01*
X443Y200D02*
X453Y200D01*
X525Y200D02*
X535Y200D01*
X443Y199D02*
X453Y199D01*
X525Y199D02*
X535Y199D01*
X443Y198D02*
X453Y198D01*
X525Y198D02*
X535Y198D01*
X443Y197D02*
X453Y197D01*
X525Y197D02*
X535Y197D01*
X443Y196D02*
X453Y196D01*
X524Y196D02*
X535Y196D01*
X443Y195D02*
X454Y195D01*
X524Y195D02*
X535Y195D01*
X443Y194D02*
X454Y194D01*
X524Y194D02*
X535Y194D01*
X443Y193D02*
X454Y193D01*
X523Y193D02*
X535Y193D01*
X443Y192D02*
X455Y192D01*
X523Y192D02*
X535Y192D01*
X443Y191D02*
X455Y191D01*
X523Y191D02*
X535Y191D01*
X443Y190D02*
X456Y190D01*
X522Y190D02*
X535Y190D01*
X443Y189D02*
X456Y189D01*
X522Y189D02*
X535Y189D01*
X443Y188D02*
X457Y188D01*
X521Y188D02*
X535Y188D01*
X443Y187D02*
X457Y187D01*
X521Y187D02*
X535Y187D01*
X443Y186D02*
X458Y186D01*
X520Y186D02*
X535Y186D01*
X443Y185D02*
X459Y185D01*
X519Y185D02*
X535Y185D01*
X443Y184D02*
X459Y184D01*
X518Y184D02*
X535Y184D01*
X443Y183D02*
X460Y183D01*
X518Y183D02*
X535Y183D01*
X443Y182D02*
X461Y182D01*
X517Y182D02*
X535Y182D01*
X443Y181D02*
X462Y181D01*
X516Y181D02*
X535Y181D01*
X443Y180D02*
X463Y180D01*
X515Y180D02*
X535Y180D01*
X443Y179D02*
X464Y179D01*
X514Y179D02*
X535Y179D01*
X443Y178D02*
X465Y178D01*
X513Y178D02*
X535Y178D01*
X443Y177D02*
X467Y177D01*
X511Y177D02*
X535Y177D01*
X443Y176D02*
X468Y176D01*
X510Y176D02*
X535Y176D01*
X443Y175D02*
X469Y175D01*
X508Y175D02*
X535Y175D01*
X443Y174D02*
X471Y174D01*
X507Y174D02*
X535Y174D01*
X443Y173D02*
X473Y173D01*
X505Y173D02*
X535Y173D01*
X443Y172D02*
X476Y172D01*
X502Y172D02*
X535Y172D01*
X443Y171D02*
X479Y171D01*
X499Y171D02*
X535Y171D01*
X443Y170D02*
X483Y170D01*
X495Y170D02*
X535Y170D01*
X443Y169D02*
X535Y169D01*
X443Y168D02*
X535Y168D01*
X443Y167D02*
X535Y167D01*
X443Y166D02*
X535Y166D01*
X443Y165D02*
X535Y165D01*
X443Y164D02*
X535Y164D01*
X443Y163D02*
X535Y163D01*
X443Y162D02*
X535Y162D01*
X443Y161D02*
X535Y161D01*
X443Y160D02*
X535Y160D01*
D02*
G04 End of PasteMask1*
M02*