G04 MADE WITH FRITZING*
G04 WWW.FRITZING.ORG*
G04 DOUBLE SIDED*
G04 HOLES PLATED*
G04 CONTOUR ON CENTER OF CONTOUR VECTOR*
%ASAXBY*%
%FSLAX23Y23*%
%MOIN*%
%OFA0B0*%
%SFA1.0B1.0*%
%ADD10R,0.001000X0.001000*%
%LNSILK0*%
G90*
G70*
G54D10*
X394Y826D02*
X433Y826D01*
X379Y825D02*
X448Y825D01*
X369Y824D02*
X458Y824D01*
X360Y823D02*
X467Y823D01*
X353Y822D02*
X474Y822D01*
X347Y821D02*
X480Y821D01*
X341Y820D02*
X486Y820D01*
X336Y819D02*
X491Y819D01*
X330Y818D02*
X393Y818D01*
X434Y818D02*
X497Y818D01*
X326Y817D02*
X378Y817D01*
X449Y817D02*
X501Y817D01*
X321Y816D02*
X368Y816D01*
X459Y816D02*
X506Y816D01*
X317Y815D02*
X359Y815D01*
X468Y815D02*
X510Y815D01*
X313Y814D02*
X352Y814D01*
X475Y814D02*
X514Y814D01*
X309Y813D02*
X346Y813D01*
X481Y813D02*
X518Y813D01*
X305Y812D02*
X340Y812D01*
X487Y812D02*
X522Y812D01*
X302Y811D02*
X335Y811D01*
X492Y811D02*
X525Y811D01*
X298Y810D02*
X330Y810D01*
X497Y810D02*
X529Y810D01*
X295Y809D02*
X325Y809D01*
X502Y809D02*
X532Y809D01*
X292Y808D02*
X321Y808D01*
X506Y808D02*
X535Y808D01*
X289Y807D02*
X317Y807D01*
X510Y807D02*
X538Y807D01*
X285Y806D02*
X313Y806D01*
X514Y806D02*
X542Y806D01*
X282Y805D02*
X309Y805D01*
X518Y805D02*
X545Y805D01*
X279Y804D02*
X305Y804D01*
X522Y804D02*
X548Y804D01*
X277Y803D02*
X301Y803D01*
X526Y803D02*
X550Y803D01*
X274Y802D02*
X298Y802D01*
X529Y802D02*
X553Y802D01*
X271Y801D02*
X295Y801D01*
X532Y801D02*
X556Y801D01*
X268Y800D02*
X291Y800D01*
X536Y800D02*
X559Y800D01*
X266Y799D02*
X288Y799D01*
X539Y799D02*
X561Y799D01*
X263Y798D02*
X285Y798D01*
X542Y798D02*
X564Y798D01*
X261Y797D02*
X282Y797D01*
X545Y797D02*
X566Y797D01*
X258Y796D02*
X279Y796D01*
X548Y796D02*
X569Y796D01*
X256Y795D02*
X277Y795D01*
X550Y795D02*
X571Y795D01*
X253Y794D02*
X274Y794D01*
X553Y794D02*
X574Y794D01*
X251Y793D02*
X271Y793D01*
X556Y793D02*
X576Y793D01*
X249Y792D02*
X268Y792D01*
X559Y792D02*
X578Y792D01*
X247Y791D02*
X266Y791D01*
X561Y791D02*
X580Y791D01*
X244Y790D02*
X263Y790D01*
X564Y790D02*
X583Y790D01*
X242Y789D02*
X261Y789D01*
X566Y789D02*
X585Y789D01*
X240Y788D02*
X258Y788D01*
X569Y788D02*
X587Y788D01*
X238Y787D02*
X256Y787D01*
X571Y787D02*
X589Y787D01*
X236Y786D02*
X254Y786D01*
X573Y786D02*
X591Y786D01*
X234Y785D02*
X251Y785D01*
X576Y785D02*
X593Y785D01*
X232Y784D02*
X249Y784D01*
X578Y784D02*
X595Y784D01*
X230Y783D02*
X247Y783D01*
X580Y783D02*
X597Y783D01*
X228Y782D02*
X245Y782D01*
X582Y782D02*
X599Y782D01*
X226Y781D02*
X243Y781D01*
X584Y781D02*
X601Y781D01*
X224Y780D02*
X240Y780D01*
X587Y780D02*
X603Y780D01*
X222Y779D02*
X238Y779D01*
X589Y779D02*
X605Y779D01*
X220Y778D02*
X236Y778D01*
X591Y778D02*
X607Y778D01*
X218Y777D02*
X234Y777D01*
X593Y777D02*
X609Y777D01*
X216Y776D02*
X232Y776D01*
X595Y776D02*
X611Y776D01*
X214Y775D02*
X230Y775D01*
X597Y775D02*
X613Y775D01*
X213Y774D02*
X228Y774D01*
X599Y774D02*
X614Y774D01*
X211Y773D02*
X226Y773D01*
X601Y773D02*
X616Y773D01*
X209Y772D02*
X224Y772D01*
X603Y772D02*
X618Y772D01*
X207Y771D02*
X222Y771D01*
X605Y771D02*
X620Y771D01*
X206Y770D02*
X221Y770D01*
X606Y770D02*
X621Y770D01*
X204Y769D02*
X219Y769D01*
X608Y769D02*
X623Y769D01*
X202Y768D02*
X217Y768D01*
X610Y768D02*
X625Y768D01*
X200Y767D02*
X215Y767D01*
X612Y767D02*
X627Y767D01*
X199Y766D02*
X214Y766D01*
X613Y766D02*
X628Y766D01*
X197Y765D02*
X212Y765D01*
X615Y765D02*
X630Y765D01*
X196Y764D02*
X210Y764D01*
X617Y764D02*
X631Y764D01*
X194Y763D02*
X208Y763D01*
X619Y763D02*
X633Y763D01*
X193Y762D02*
X207Y762D01*
X620Y762D02*
X634Y762D01*
X191Y761D02*
X205Y761D01*
X622Y761D02*
X636Y761D01*
X189Y760D02*
X203Y760D01*
X624Y760D02*
X638Y760D01*
X188Y759D02*
X202Y759D01*
X625Y759D02*
X639Y759D01*
X186Y758D02*
X200Y758D01*
X627Y758D02*
X641Y758D01*
X185Y757D02*
X198Y757D01*
X629Y757D02*
X642Y757D01*
X183Y756D02*
X197Y756D01*
X630Y756D02*
X644Y756D01*
X182Y755D02*
X195Y755D01*
X632Y755D02*
X645Y755D01*
X180Y754D02*
X194Y754D01*
X633Y754D02*
X647Y754D01*
X179Y753D02*
X192Y753D01*
X635Y753D02*
X648Y753D01*
X178Y752D02*
X191Y752D01*
X636Y752D02*
X649Y752D01*
X176Y751D02*
X189Y751D01*
X638Y751D02*
X651Y751D01*
X175Y750D02*
X188Y750D01*
X639Y750D02*
X652Y750D01*
X173Y749D02*
X186Y749D01*
X641Y749D02*
X654Y749D01*
X172Y748D02*
X185Y748D01*
X642Y748D02*
X655Y748D01*
X171Y747D02*
X183Y747D01*
X644Y747D02*
X656Y747D01*
X169Y746D02*
X182Y746D01*
X645Y746D02*
X658Y746D01*
X168Y745D02*
X180Y745D01*
X647Y745D02*
X659Y745D01*
X166Y744D02*
X179Y744D01*
X648Y744D02*
X661Y744D01*
X165Y743D02*
X178Y743D01*
X649Y743D02*
X662Y743D01*
X164Y742D02*
X176Y742D01*
X651Y742D02*
X663Y742D01*
X163Y741D02*
X175Y741D01*
X652Y741D02*
X664Y741D01*
X161Y740D02*
X173Y740D01*
X654Y740D02*
X666Y740D01*
X160Y739D02*
X172Y739D01*
X655Y739D02*
X667Y739D01*
X159Y738D02*
X171Y738D01*
X656Y738D02*
X668Y738D01*
X157Y737D02*
X169Y737D01*
X658Y737D02*
X670Y737D01*
X156Y736D02*
X168Y736D01*
X659Y736D02*
X671Y736D01*
X155Y735D02*
X167Y735D01*
X660Y735D02*
X672Y735D01*
X154Y734D02*
X165Y734D01*
X662Y734D02*
X673Y734D01*
X152Y733D02*
X164Y733D01*
X663Y733D02*
X675Y733D01*
X151Y732D02*
X163Y732D01*
X664Y732D02*
X676Y732D01*
X150Y731D02*
X162Y731D01*
X665Y731D02*
X677Y731D01*
X149Y730D02*
X160Y730D01*
X667Y730D02*
X678Y730D01*
X148Y729D02*
X159Y729D01*
X668Y729D02*
X679Y729D01*
X146Y728D02*
X158Y728D01*
X669Y728D02*
X681Y728D01*
X145Y727D02*
X157Y727D01*
X670Y727D02*
X682Y727D01*
X144Y726D02*
X155Y726D01*
X672Y726D02*
X683Y726D01*
X143Y725D02*
X154Y725D01*
X673Y725D02*
X684Y725D01*
X142Y724D02*
X153Y724D01*
X674Y724D02*
X685Y724D01*
X141Y723D02*
X152Y723D01*
X675Y723D02*
X686Y723D01*
X140Y722D02*
X151Y722D01*
X676Y722D02*
X687Y722D01*
X138Y721D02*
X150Y721D01*
X677Y721D02*
X689Y721D01*
X137Y720D02*
X148Y720D01*
X679Y720D02*
X690Y720D01*
X136Y719D02*
X147Y719D01*
X680Y719D02*
X691Y719D01*
X135Y718D02*
X146Y718D01*
X681Y718D02*
X692Y718D01*
X134Y717D02*
X145Y717D01*
X682Y717D02*
X693Y717D01*
X133Y716D02*
X144Y716D01*
X683Y716D02*
X694Y716D01*
X132Y715D02*
X143Y715D01*
X684Y715D02*
X695Y715D01*
X131Y714D02*
X141Y714D01*
X686Y714D02*
X696Y714D01*
X130Y713D02*
X140Y713D01*
X687Y713D02*
X697Y713D01*
X129Y712D02*
X139Y712D01*
X688Y712D02*
X698Y712D01*
X128Y711D02*
X138Y711D01*
X689Y711D02*
X699Y711D01*
X127Y710D02*
X137Y710D01*
X690Y710D02*
X700Y710D01*
X126Y709D02*
X136Y709D01*
X691Y709D02*
X701Y709D01*
X125Y708D02*
X135Y708D01*
X692Y708D02*
X702Y708D01*
X124Y707D02*
X134Y707D01*
X693Y707D02*
X703Y707D01*
X122Y706D02*
X133Y706D01*
X694Y706D02*
X705Y706D01*
X121Y705D02*
X132Y705D01*
X695Y705D02*
X706Y705D01*
X121Y704D02*
X131Y704D01*
X696Y704D02*
X706Y704D01*
X120Y703D02*
X130Y703D01*
X697Y703D02*
X707Y703D01*
X119Y702D02*
X129Y702D01*
X698Y702D02*
X708Y702D01*
X118Y701D02*
X128Y701D01*
X699Y701D02*
X709Y701D01*
X117Y700D02*
X127Y700D01*
X700Y700D02*
X710Y700D01*
X116Y699D02*
X126Y699D01*
X701Y699D02*
X711Y699D01*
X115Y698D02*
X125Y698D01*
X702Y698D02*
X712Y698D01*
X114Y697D02*
X124Y697D01*
X703Y697D02*
X713Y697D01*
X113Y696D02*
X123Y696D01*
X704Y696D02*
X714Y696D01*
X112Y695D02*
X122Y695D01*
X705Y695D02*
X715Y695D01*
X111Y694D02*
X121Y694D01*
X706Y694D02*
X716Y694D01*
X110Y693D02*
X120Y693D01*
X707Y693D02*
X717Y693D01*
X109Y692D02*
X119Y692D01*
X708Y692D02*
X718Y692D01*
X108Y691D02*
X118Y691D01*
X709Y691D02*
X719Y691D01*
X107Y690D02*
X117Y690D01*
X710Y690D02*
X720Y690D01*
X106Y689D02*
X116Y689D01*
X711Y689D02*
X721Y689D01*
X106Y688D02*
X115Y688D01*
X712Y688D02*
X721Y688D01*
X105Y687D02*
X114Y687D01*
X713Y687D02*
X722Y687D01*
X104Y686D02*
X113Y686D01*
X714Y686D02*
X723Y686D01*
X103Y685D02*
X112Y685D01*
X715Y685D02*
X724Y685D01*
X102Y684D02*
X112Y684D01*
X715Y684D02*
X725Y684D01*
X101Y683D02*
X111Y683D01*
X716Y683D02*
X726Y683D01*
X100Y682D02*
X110Y682D01*
X717Y682D02*
X727Y682D01*
X99Y681D02*
X109Y681D01*
X718Y681D02*
X728Y681D01*
X99Y680D02*
X108Y680D01*
X719Y680D02*
X728Y680D01*
X98Y679D02*
X107Y679D01*
X720Y679D02*
X729Y679D01*
X97Y678D02*
X106Y678D01*
X721Y678D02*
X730Y678D01*
X96Y677D02*
X106Y677D01*
X721Y677D02*
X731Y677D01*
X95Y676D02*
X105Y676D01*
X722Y676D02*
X732Y676D01*
X94Y675D02*
X104Y675D01*
X723Y675D02*
X733Y675D01*
X94Y674D02*
X103Y674D01*
X724Y674D02*
X733Y674D01*
X93Y673D02*
X102Y673D01*
X725Y673D02*
X734Y673D01*
X92Y672D02*
X101Y672D01*
X726Y672D02*
X735Y672D01*
X91Y671D02*
X100Y671D01*
X727Y671D02*
X736Y671D01*
X90Y670D02*
X100Y670D01*
X727Y670D02*
X737Y670D01*
X90Y669D02*
X99Y669D01*
X728Y669D02*
X737Y669D01*
X89Y668D02*
X98Y668D01*
X729Y668D02*
X738Y668D01*
X88Y667D02*
X97Y667D01*
X730Y667D02*
X739Y667D01*
X87Y666D02*
X96Y666D01*
X731Y666D02*
X740Y666D01*
X87Y665D02*
X96Y665D01*
X731Y665D02*
X740Y665D01*
X86Y664D02*
X95Y664D01*
X732Y664D02*
X741Y664D01*
X85Y663D02*
X94Y663D01*
X733Y663D02*
X742Y663D01*
X84Y662D02*
X93Y662D01*
X734Y662D02*
X743Y662D01*
X83Y661D02*
X92Y661D01*
X735Y661D02*
X744Y661D01*
X83Y660D02*
X92Y660D01*
X735Y660D02*
X744Y660D01*
X82Y659D02*
X91Y659D01*
X736Y659D02*
X745Y659D01*
X81Y658D02*
X90Y658D01*
X737Y658D02*
X746Y658D01*
X81Y657D02*
X89Y657D01*
X738Y657D02*
X746Y657D01*
X80Y656D02*
X89Y656D01*
X738Y656D02*
X747Y656D01*
X79Y655D02*
X88Y655D01*
X739Y655D02*
X748Y655D01*
X78Y654D02*
X87Y654D01*
X740Y654D02*
X749Y654D01*
X78Y653D02*
X86Y653D01*
X741Y653D02*
X749Y653D01*
X77Y652D02*
X86Y652D01*
X741Y652D02*
X750Y652D01*
X76Y651D02*
X85Y651D01*
X742Y651D02*
X751Y651D01*
X76Y650D02*
X84Y650D01*
X743Y650D02*
X751Y650D01*
X75Y649D02*
X84Y649D01*
X743Y649D02*
X752Y649D01*
X74Y648D02*
X83Y648D01*
X744Y648D02*
X753Y648D01*
X73Y647D02*
X82Y647D01*
X745Y647D02*
X754Y647D01*
X73Y646D02*
X81Y646D01*
X746Y646D02*
X754Y646D01*
X72Y645D02*
X81Y645D01*
X746Y645D02*
X755Y645D01*
X71Y644D02*
X80Y644D01*
X747Y644D02*
X756Y644D01*
X71Y643D02*
X79Y643D01*
X748Y643D02*
X756Y643D01*
X70Y642D02*
X79Y642D01*
X748Y642D02*
X757Y642D01*
X69Y641D02*
X78Y641D01*
X749Y641D02*
X758Y641D01*
X69Y640D02*
X77Y640D01*
X750Y640D02*
X758Y640D01*
X68Y639D02*
X77Y639D01*
X750Y639D02*
X759Y639D01*
X67Y638D02*
X76Y638D01*
X751Y638D02*
X760Y638D01*
X67Y637D02*
X75Y637D01*
X752Y637D02*
X760Y637D01*
X66Y636D02*
X75Y636D01*
X752Y636D02*
X761Y636D01*
X66Y635D02*
X74Y635D01*
X753Y635D02*
X761Y635D01*
X65Y634D02*
X73Y634D01*
X754Y634D02*
X762Y634D01*
X64Y633D02*
X73Y633D01*
X754Y633D02*
X763Y633D01*
X64Y632D02*
X72Y632D01*
X755Y632D02*
X763Y632D01*
X63Y631D02*
X71Y631D01*
X756Y631D02*
X764Y631D01*
X62Y630D02*
X71Y630D01*
X756Y630D02*
X765Y630D01*
X62Y629D02*
X70Y629D01*
X757Y629D02*
X765Y629D01*
X61Y628D02*
X69Y628D01*
X758Y628D02*
X766Y628D01*
X60Y627D02*
X69Y627D01*
X758Y627D02*
X767Y627D01*
X60Y626D02*
X68Y626D01*
X759Y626D02*
X767Y626D01*
X59Y625D02*
X68Y625D01*
X759Y625D02*
X768Y625D01*
X59Y624D02*
X67Y624D01*
X760Y624D02*
X768Y624D01*
X58Y623D02*
X66Y623D01*
X761Y623D02*
X769Y623D01*
X58Y622D02*
X66Y622D01*
X761Y622D02*
X769Y622D01*
X57Y621D02*
X65Y621D01*
X762Y621D02*
X770Y621D01*
X56Y620D02*
X65Y620D01*
X762Y620D02*
X771Y620D01*
X56Y619D02*
X64Y619D01*
X763Y619D02*
X771Y619D01*
X55Y618D02*
X63Y618D01*
X764Y618D02*
X772Y618D01*
X55Y617D02*
X63Y617D01*
X764Y617D02*
X772Y617D01*
X54Y616D02*
X62Y616D01*
X765Y616D02*
X773Y616D01*
X54Y615D02*
X62Y615D01*
X765Y615D02*
X773Y615D01*
X53Y614D02*
X61Y614D01*
X766Y614D02*
X774Y614D01*
X52Y613D02*
X61Y613D01*
X766Y613D02*
X775Y613D01*
X52Y612D02*
X60Y612D01*
X767Y612D02*
X775Y612D01*
X51Y611D02*
X59Y611D01*
X768Y611D02*
X776Y611D01*
X51Y610D02*
X59Y610D01*
X768Y610D02*
X776Y610D01*
X50Y609D02*
X58Y609D01*
X769Y609D02*
X777Y609D01*
X50Y608D02*
X58Y608D01*
X769Y608D02*
X777Y608D01*
X49Y607D02*
X57Y607D01*
X770Y607D02*
X778Y607D01*
X49Y606D02*
X57Y606D01*
X770Y606D02*
X778Y606D01*
X48Y605D02*
X56Y605D01*
X771Y605D02*
X779Y605D01*
X48Y604D02*
X55Y604D01*
X772Y604D02*
X779Y604D01*
X47Y603D02*
X55Y603D01*
X772Y603D02*
X780Y603D01*
X47Y602D02*
X54Y602D01*
X773Y602D02*
X780Y602D01*
X46Y601D02*
X54Y601D01*
X773Y601D02*
X781Y601D01*
X46Y600D02*
X53Y600D01*
X774Y600D02*
X781Y600D01*
X45Y599D02*
X53Y599D01*
X774Y599D02*
X782Y599D01*
X45Y598D02*
X52Y598D01*
X775Y598D02*
X782Y598D01*
X44Y597D02*
X52Y597D01*
X775Y597D02*
X783Y597D01*
X44Y596D02*
X51Y596D01*
X776Y596D02*
X783Y596D01*
X43Y595D02*
X51Y595D01*
X776Y595D02*
X784Y595D01*
X43Y594D02*
X50Y594D01*
X777Y594D02*
X784Y594D01*
X42Y593D02*
X50Y593D01*
X777Y593D02*
X785Y593D01*
X42Y592D02*
X49Y592D01*
X778Y592D02*
X785Y592D01*
X41Y591D02*
X49Y591D01*
X778Y591D02*
X786Y591D01*
X41Y590D02*
X48Y590D01*
X779Y590D02*
X786Y590D01*
X40Y589D02*
X48Y589D01*
X779Y589D02*
X787Y589D01*
X40Y588D02*
X47Y588D01*
X780Y588D02*
X787Y588D01*
X39Y587D02*
X47Y587D01*
X780Y587D02*
X788Y587D01*
X39Y586D02*
X46Y586D01*
X781Y586D02*
X788Y586D01*
X38Y585D02*
X46Y585D01*
X781Y585D02*
X789Y585D01*
X38Y584D02*
X46Y584D01*
X781Y584D02*
X789Y584D01*
X37Y583D02*
X45Y583D01*
X782Y583D02*
X790Y583D01*
X37Y582D02*
X45Y582D01*
X782Y582D02*
X790Y582D01*
X37Y581D02*
X44Y581D01*
X783Y581D02*
X790Y581D01*
X36Y580D02*
X44Y580D01*
X783Y580D02*
X791Y580D01*
X36Y579D02*
X43Y579D01*
X784Y579D02*
X791Y579D01*
X35Y578D02*
X43Y578D01*
X784Y578D02*
X792Y578D01*
X35Y577D02*
X42Y577D01*
X785Y577D02*
X792Y577D01*
X34Y576D02*
X42Y576D01*
X785Y576D02*
X793Y576D01*
X34Y575D02*
X41Y575D01*
X786Y575D02*
X793Y575D01*
X33Y574D02*
X41Y574D01*
X786Y574D02*
X794Y574D01*
X33Y573D02*
X41Y573D01*
X786Y573D02*
X794Y573D01*
X33Y572D02*
X40Y572D01*
X787Y572D02*
X794Y572D01*
X32Y571D02*
X40Y571D01*
X787Y571D02*
X795Y571D01*
X32Y570D02*
X39Y570D01*
X788Y570D02*
X795Y570D01*
X31Y569D02*
X39Y569D01*
X788Y569D02*
X796Y569D01*
X31Y568D02*
X38Y568D01*
X789Y568D02*
X796Y568D01*
X31Y567D02*
X38Y567D01*
X789Y567D02*
X796Y567D01*
X30Y566D02*
X38Y566D01*
X789Y566D02*
X797Y566D01*
X30Y565D02*
X37Y565D01*
X790Y565D02*
X797Y565D01*
X29Y564D02*
X37Y564D01*
X790Y564D02*
X798Y564D01*
X29Y563D02*
X36Y563D01*
X791Y563D02*
X798Y563D01*
X29Y562D02*
X36Y562D01*
X791Y562D02*
X798Y562D01*
X28Y561D02*
X36Y561D01*
X791Y561D02*
X799Y561D01*
X28Y560D02*
X35Y560D01*
X792Y560D02*
X799Y560D01*
X27Y559D02*
X35Y559D01*
X792Y559D02*
X800Y559D01*
X27Y558D02*
X34Y558D01*
X793Y558D02*
X800Y558D01*
X27Y557D02*
X34Y557D01*
X793Y557D02*
X800Y557D01*
X26Y556D02*
X34Y556D01*
X793Y556D02*
X801Y556D01*
X26Y555D02*
X33Y555D01*
X794Y555D02*
X801Y555D01*
X26Y554D02*
X33Y554D01*
X794Y554D02*
X801Y554D01*
X25Y553D02*
X33Y553D01*
X794Y553D02*
X802Y553D01*
X25Y552D02*
X32Y552D01*
X795Y552D02*
X802Y552D01*
X25Y551D02*
X32Y551D01*
X795Y551D02*
X802Y551D01*
X24Y550D02*
X32Y550D01*
X795Y550D02*
X803Y550D01*
X24Y549D02*
X31Y549D01*
X796Y549D02*
X803Y549D01*
X23Y548D02*
X31Y548D01*
X796Y548D02*
X803Y548D01*
X23Y547D02*
X30Y547D01*
X797Y547D02*
X804Y547D01*
X23Y546D02*
X30Y546D01*
X797Y546D02*
X804Y546D01*
X22Y545D02*
X30Y545D01*
X797Y545D02*
X805Y545D01*
X22Y544D02*
X29Y544D01*
X798Y544D02*
X805Y544D01*
X22Y543D02*
X29Y543D01*
X798Y543D02*
X805Y543D01*
X21Y542D02*
X29Y542D01*
X798Y542D02*
X806Y542D01*
X21Y541D02*
X28Y541D01*
X799Y541D02*
X806Y541D01*
X21Y540D02*
X28Y540D01*
X799Y540D02*
X806Y540D01*
X21Y539D02*
X28Y539D01*
X799Y539D02*
X806Y539D01*
X20Y538D02*
X27Y538D01*
X800Y538D02*
X807Y538D01*
X20Y537D02*
X27Y537D01*
X800Y537D02*
X807Y537D01*
X20Y536D02*
X27Y536D01*
X800Y536D02*
X807Y536D01*
X19Y535D02*
X26Y535D01*
X801Y535D02*
X808Y535D01*
X19Y534D02*
X26Y534D01*
X801Y534D02*
X808Y534D01*
X19Y533D02*
X26Y533D01*
X801Y533D02*
X808Y533D01*
X18Y532D02*
X26Y532D01*
X801Y532D02*
X809Y532D01*
X18Y531D02*
X25Y531D01*
X802Y531D02*
X809Y531D01*
X18Y530D02*
X25Y530D01*
X802Y530D02*
X809Y530D01*
X17Y529D02*
X25Y529D01*
X802Y529D02*
X810Y529D01*
X17Y528D02*
X24Y528D01*
X803Y528D02*
X810Y528D01*
X17Y527D02*
X24Y527D01*
X803Y527D02*
X810Y527D01*
X17Y526D02*
X24Y526D01*
X803Y526D02*
X810Y526D01*
X16Y525D02*
X23Y525D01*
X804Y525D02*
X811Y525D01*
X16Y524D02*
X23Y524D01*
X804Y524D02*
X811Y524D01*
X16Y523D02*
X23Y523D01*
X804Y523D02*
X811Y523D01*
X15Y522D02*
X23Y522D01*
X804Y522D02*
X812Y522D01*
X15Y521D02*
X22Y521D01*
X805Y521D02*
X812Y521D01*
X15Y520D02*
X22Y520D01*
X805Y520D02*
X812Y520D01*
X15Y519D02*
X22Y519D01*
X805Y519D02*
X812Y519D01*
X14Y518D02*
X22Y518D01*
X805Y518D02*
X813Y518D01*
X14Y517D02*
X21Y517D01*
X806Y517D02*
X813Y517D01*
X14Y516D02*
X21Y516D01*
X806Y516D02*
X813Y516D01*
X14Y515D02*
X21Y515D01*
X806Y515D02*
X813Y515D01*
X13Y514D02*
X21Y514D01*
X806Y514D02*
X814Y514D01*
X13Y513D02*
X20Y513D01*
X807Y513D02*
X814Y513D01*
X13Y512D02*
X20Y512D01*
X807Y512D02*
X814Y512D01*
X13Y511D02*
X20Y511D01*
X807Y511D02*
X814Y511D01*
X12Y510D02*
X20Y510D01*
X807Y510D02*
X815Y510D01*
X12Y509D02*
X19Y509D01*
X808Y509D02*
X815Y509D01*
X12Y508D02*
X19Y508D01*
X808Y508D02*
X815Y508D01*
X12Y507D02*
X19Y507D01*
X808Y507D02*
X815Y507D01*
X11Y506D02*
X19Y506D01*
X808Y506D02*
X816Y506D01*
X11Y505D02*
X18Y505D01*
X809Y505D02*
X816Y505D01*
X11Y504D02*
X18Y504D01*
X809Y504D02*
X816Y504D01*
X11Y503D02*
X18Y503D01*
X809Y503D02*
X816Y503D01*
X11Y502D02*
X18Y502D01*
X809Y502D02*
X816Y502D01*
X10Y501D02*
X17Y501D01*
X810Y501D02*
X817Y501D01*
X10Y500D02*
X17Y500D01*
X810Y500D02*
X817Y500D01*
X10Y499D02*
X17Y499D01*
X810Y499D02*
X817Y499D01*
X10Y498D02*
X17Y498D01*
X810Y498D02*
X817Y498D01*
X9Y497D02*
X17Y497D01*
X810Y497D02*
X818Y497D01*
X9Y496D02*
X16Y496D01*
X811Y496D02*
X818Y496D01*
X9Y495D02*
X16Y495D01*
X811Y495D02*
X818Y495D01*
X9Y494D02*
X16Y494D01*
X811Y494D02*
X818Y494D01*
X9Y493D02*
X16Y493D01*
X811Y493D02*
X818Y493D01*
X9Y492D02*
X16Y492D01*
X811Y492D02*
X818Y492D01*
X8Y491D02*
X15Y491D01*
X812Y491D02*
X819Y491D01*
X8Y490D02*
X15Y490D01*
X812Y490D02*
X819Y490D01*
X8Y489D02*
X15Y489D01*
X812Y489D02*
X819Y489D01*
X8Y488D02*
X15Y488D01*
X812Y488D02*
X819Y488D01*
X8Y487D02*
X15Y487D01*
X812Y487D02*
X819Y487D01*
X7Y486D02*
X14Y486D01*
X813Y486D02*
X820Y486D01*
X7Y485D02*
X14Y485D01*
X813Y485D02*
X820Y485D01*
X7Y484D02*
X14Y484D01*
X813Y484D02*
X820Y484D01*
X7Y483D02*
X14Y483D01*
X813Y483D02*
X820Y483D01*
X7Y482D02*
X14Y482D01*
X813Y482D02*
X820Y482D01*
X7Y481D02*
X14Y481D01*
X813Y481D02*
X820Y481D01*
X6Y480D02*
X13Y480D01*
X814Y480D02*
X821Y480D01*
X6Y479D02*
X13Y479D01*
X814Y479D02*
X821Y479D01*
X6Y478D02*
X13Y478D01*
X814Y478D02*
X821Y478D01*
X6Y477D02*
X13Y477D01*
X814Y477D02*
X821Y477D01*
X6Y476D02*
X13Y476D01*
X814Y476D02*
X821Y476D01*
X6Y475D02*
X13Y475D01*
X814Y475D02*
X821Y475D01*
X5Y474D02*
X12Y474D01*
X815Y474D02*
X822Y474D01*
X5Y473D02*
X12Y473D01*
X815Y473D02*
X822Y473D01*
X5Y472D02*
X12Y472D01*
X815Y472D02*
X822Y472D01*
X5Y471D02*
X12Y471D01*
X815Y471D02*
X822Y471D01*
X5Y470D02*
X12Y470D01*
X815Y470D02*
X822Y470D01*
X5Y469D02*
X12Y469D01*
X815Y469D02*
X822Y469D01*
X5Y468D02*
X12Y468D01*
X815Y468D02*
X822Y468D01*
X4Y467D02*
X11Y467D01*
X816Y467D02*
X823Y467D01*
X4Y466D02*
X11Y466D01*
X816Y466D02*
X823Y466D01*
X4Y465D02*
X11Y465D01*
X816Y465D02*
X823Y465D01*
X4Y464D02*
X11Y464D01*
X816Y464D02*
X823Y464D01*
X4Y463D02*
X11Y463D01*
X816Y463D02*
X823Y463D01*
X4Y462D02*
X11Y462D01*
X816Y462D02*
X823Y462D01*
X4Y461D02*
X11Y461D01*
X816Y461D02*
X823Y461D01*
X4Y460D02*
X11Y460D01*
X816Y460D02*
X823Y460D01*
X4Y459D02*
X11Y459D01*
X816Y459D02*
X823Y459D01*
X3Y458D02*
X10Y458D01*
X817Y458D02*
X824Y458D01*
X3Y457D02*
X10Y457D01*
X817Y457D02*
X824Y457D01*
X3Y456D02*
X10Y456D01*
X817Y456D02*
X824Y456D01*
X3Y455D02*
X10Y455D01*
X817Y455D02*
X824Y455D01*
X3Y454D02*
X10Y454D01*
X817Y454D02*
X824Y454D01*
X3Y453D02*
X10Y453D01*
X817Y453D02*
X824Y453D01*
X3Y452D02*
X10Y452D01*
X817Y452D02*
X824Y452D01*
X3Y451D02*
X10Y451D01*
X817Y451D02*
X824Y451D01*
X3Y450D02*
X10Y450D01*
X817Y450D02*
X824Y450D01*
X3Y449D02*
X10Y449D01*
X817Y449D02*
X824Y449D01*
X2Y448D02*
X9Y448D01*
X818Y448D02*
X825Y448D01*
X2Y447D02*
X9Y447D01*
X818Y447D02*
X825Y447D01*
X2Y446D02*
X9Y446D01*
X818Y446D02*
X825Y446D01*
X2Y445D02*
X9Y445D01*
X818Y445D02*
X825Y445D01*
X2Y444D02*
X9Y444D01*
X818Y444D02*
X825Y444D01*
X2Y443D02*
X9Y443D01*
X818Y443D02*
X825Y443D01*
X2Y442D02*
X9Y442D01*
X818Y442D02*
X825Y442D01*
X2Y441D02*
X9Y441D01*
X818Y441D02*
X825Y441D01*
X2Y440D02*
X9Y440D01*
X818Y440D02*
X825Y440D01*
X2Y439D02*
X9Y439D01*
X818Y439D02*
X825Y439D01*
X2Y438D02*
X9Y438D01*
X818Y438D02*
X825Y438D01*
X2Y437D02*
X9Y437D01*
X818Y437D02*
X825Y437D01*
X2Y436D02*
X9Y436D01*
X818Y436D02*
X825Y436D01*
X2Y435D02*
X9Y435D01*
X818Y435D02*
X825Y435D01*
X2Y434D02*
X9Y434D01*
X818Y434D02*
X825Y434D01*
X1Y433D02*
X8Y433D01*
X819Y433D02*
X826Y433D01*
X1Y432D02*
X8Y432D01*
X819Y432D02*
X826Y432D01*
X1Y431D02*
X8Y431D01*
X819Y431D02*
X826Y431D01*
X1Y430D02*
X8Y430D01*
X819Y430D02*
X826Y430D01*
X1Y429D02*
X8Y429D01*
X819Y429D02*
X826Y429D01*
X1Y428D02*
X8Y428D01*
X819Y428D02*
X826Y428D01*
X1Y427D02*
X8Y427D01*
X819Y427D02*
X826Y427D01*
X1Y426D02*
X8Y426D01*
X819Y426D02*
X826Y426D01*
X1Y425D02*
X8Y425D01*
X819Y425D02*
X826Y425D01*
X1Y424D02*
X8Y424D01*
X819Y424D02*
X826Y424D01*
X1Y423D02*
X8Y423D01*
X819Y423D02*
X826Y423D01*
X1Y422D02*
X8Y422D01*
X819Y422D02*
X826Y422D01*
X1Y421D02*
X8Y421D01*
X819Y421D02*
X826Y421D01*
X1Y420D02*
X8Y420D01*
X819Y420D02*
X826Y420D01*
X1Y419D02*
X8Y419D01*
X819Y419D02*
X826Y419D01*
X1Y418D02*
X8Y418D01*
X819Y418D02*
X826Y418D01*
X1Y417D02*
X8Y417D01*
X819Y417D02*
X826Y417D01*
X1Y416D02*
X8Y416D01*
X819Y416D02*
X826Y416D01*
X1Y415D02*
X8Y415D01*
X819Y415D02*
X826Y415D01*
X1Y414D02*
X8Y414D01*
X819Y414D02*
X826Y414D01*
X1Y413D02*
X8Y413D01*
X819Y413D02*
X826Y413D01*
X1Y412D02*
X8Y412D01*
X819Y412D02*
X826Y412D01*
X1Y411D02*
X8Y411D01*
X819Y411D02*
X826Y411D01*
X1Y410D02*
X8Y410D01*
X819Y410D02*
X826Y410D01*
X1Y409D02*
X8Y409D01*
X819Y409D02*
X826Y409D01*
X1Y408D02*
X8Y408D01*
X819Y408D02*
X826Y408D01*
X1Y407D02*
X8Y407D01*
X819Y407D02*
X826Y407D01*
X1Y406D02*
X8Y406D01*
X819Y406D02*
X826Y406D01*
X1Y405D02*
X8Y405D01*
X819Y405D02*
X826Y405D01*
X1Y404D02*
X8Y404D01*
X819Y404D02*
X826Y404D01*
X1Y403D02*
X8Y403D01*
X819Y403D02*
X826Y403D01*
X1Y402D02*
X8Y402D01*
X819Y402D02*
X826Y402D01*
X1Y401D02*
X8Y401D01*
X819Y401D02*
X826Y401D01*
X1Y400D02*
X8Y400D01*
X819Y400D02*
X826Y400D01*
X1Y399D02*
X8Y399D01*
X819Y399D02*
X826Y399D01*
X1Y398D02*
X8Y398D01*
X819Y398D02*
X826Y398D01*
X1Y397D02*
X8Y397D01*
X819Y397D02*
X826Y397D01*
X1Y396D02*
X8Y396D01*
X819Y396D02*
X826Y396D01*
X1Y395D02*
X8Y395D01*
X819Y395D02*
X826Y395D01*
X1Y394D02*
X8Y394D01*
X819Y394D02*
X826Y394D01*
X2Y393D02*
X9Y393D01*
X818Y393D02*
X825Y393D01*
X2Y392D02*
X9Y392D01*
X818Y392D02*
X825Y392D01*
X2Y391D02*
X9Y391D01*
X818Y391D02*
X825Y391D01*
X2Y390D02*
X9Y390D01*
X818Y390D02*
X825Y390D01*
X2Y389D02*
X9Y389D01*
X818Y389D02*
X825Y389D01*
X2Y388D02*
X9Y388D01*
X818Y388D02*
X825Y388D01*
X2Y387D02*
X9Y387D01*
X818Y387D02*
X825Y387D01*
X2Y386D02*
X9Y386D01*
X818Y386D02*
X825Y386D01*
X2Y385D02*
X9Y385D01*
X818Y385D02*
X825Y385D01*
X2Y384D02*
X9Y384D01*
X818Y384D02*
X825Y384D01*
X2Y383D02*
X9Y383D01*
X818Y383D02*
X825Y383D01*
X2Y382D02*
X9Y382D01*
X818Y382D02*
X825Y382D01*
X2Y381D02*
X9Y381D01*
X818Y381D02*
X825Y381D01*
X2Y380D02*
X9Y380D01*
X818Y380D02*
X825Y380D01*
X2Y379D02*
X9Y379D01*
X818Y379D02*
X825Y379D01*
X3Y378D02*
X10Y378D01*
X817Y378D02*
X824Y378D01*
X3Y377D02*
X10Y377D01*
X817Y377D02*
X824Y377D01*
X3Y376D02*
X10Y376D01*
X817Y376D02*
X824Y376D01*
X3Y375D02*
X10Y375D01*
X817Y375D02*
X824Y375D01*
X3Y374D02*
X10Y374D01*
X817Y374D02*
X824Y374D01*
X3Y373D02*
X10Y373D01*
X817Y373D02*
X824Y373D01*
X3Y372D02*
X10Y372D01*
X817Y372D02*
X824Y372D01*
X3Y371D02*
X10Y371D01*
X817Y371D02*
X824Y371D01*
X3Y370D02*
X10Y370D01*
X817Y370D02*
X824Y370D01*
X3Y369D02*
X10Y369D01*
X817Y369D02*
X824Y369D01*
X4Y368D02*
X11Y368D01*
X816Y368D02*
X823Y368D01*
X4Y367D02*
X11Y367D01*
X816Y367D02*
X823Y367D01*
X4Y366D02*
X11Y366D01*
X816Y366D02*
X823Y366D01*
X4Y365D02*
X11Y365D01*
X816Y365D02*
X823Y365D01*
X4Y364D02*
X11Y364D01*
X816Y364D02*
X823Y364D01*
X4Y363D02*
X11Y363D01*
X816Y363D02*
X823Y363D01*
X4Y362D02*
X11Y362D01*
X816Y362D02*
X823Y362D01*
X4Y361D02*
X11Y361D01*
X816Y361D02*
X823Y361D01*
X4Y360D02*
X11Y360D01*
X816Y360D02*
X823Y360D01*
X5Y359D02*
X12Y359D01*
X815Y359D02*
X822Y359D01*
X5Y358D02*
X12Y358D01*
X815Y358D02*
X822Y358D01*
X5Y357D02*
X12Y357D01*
X815Y357D02*
X822Y357D01*
X5Y356D02*
X12Y356D01*
X815Y356D02*
X822Y356D01*
X5Y355D02*
X12Y355D01*
X815Y355D02*
X822Y355D01*
X5Y354D02*
X12Y354D01*
X815Y354D02*
X822Y354D01*
X5Y353D02*
X12Y353D01*
X815Y353D02*
X822Y353D01*
X6Y352D02*
X13Y352D01*
X814Y352D02*
X821Y352D01*
X6Y351D02*
X13Y351D01*
X814Y351D02*
X821Y351D01*
X6Y350D02*
X13Y350D01*
X814Y350D02*
X821Y350D01*
X6Y349D02*
X13Y349D01*
X814Y349D02*
X821Y349D01*
X6Y348D02*
X13Y348D01*
X814Y348D02*
X821Y348D01*
X6Y347D02*
X13Y347D01*
X814Y347D02*
X821Y347D01*
X7Y346D02*
X14Y346D01*
X813Y346D02*
X820Y346D01*
X7Y345D02*
X14Y345D01*
X813Y345D02*
X820Y345D01*
X7Y344D02*
X14Y344D01*
X813Y344D02*
X820Y344D01*
X7Y343D02*
X14Y343D01*
X813Y343D02*
X820Y343D01*
X7Y342D02*
X14Y342D01*
X813Y342D02*
X820Y342D01*
X7Y341D02*
X14Y341D01*
X813Y341D02*
X820Y341D01*
X8Y340D02*
X15Y340D01*
X812Y340D02*
X819Y340D01*
X8Y339D02*
X15Y339D01*
X812Y339D02*
X819Y339D01*
X8Y338D02*
X15Y338D01*
X812Y338D02*
X819Y338D01*
X8Y337D02*
X15Y337D01*
X812Y337D02*
X819Y337D01*
X8Y336D02*
X15Y336D01*
X812Y336D02*
X819Y336D01*
X9Y335D02*
X16Y335D01*
X811Y335D02*
X818Y335D01*
X9Y334D02*
X16Y334D01*
X811Y334D02*
X818Y334D01*
X9Y333D02*
X16Y333D01*
X811Y333D02*
X818Y333D01*
X9Y332D02*
X16Y332D01*
X811Y332D02*
X818Y332D01*
X9Y331D02*
X16Y331D01*
X811Y331D02*
X818Y331D01*
X9Y330D02*
X17Y330D01*
X810Y330D02*
X818Y330D01*
X10Y329D02*
X17Y329D01*
X810Y329D02*
X817Y329D01*
X10Y328D02*
X17Y328D01*
X810Y328D02*
X817Y328D01*
X10Y327D02*
X17Y327D01*
X810Y327D02*
X817Y327D01*
X10Y326D02*
X17Y326D01*
X810Y326D02*
X817Y326D01*
X11Y325D02*
X18Y325D01*
X809Y325D02*
X816Y325D01*
X11Y324D02*
X18Y324D01*
X809Y324D02*
X816Y324D01*
X11Y323D02*
X18Y323D01*
X809Y323D02*
X816Y323D01*
X11Y322D02*
X18Y322D01*
X809Y322D02*
X816Y322D01*
X11Y321D02*
X19Y321D01*
X808Y321D02*
X816Y321D01*
X12Y320D02*
X19Y320D01*
X808Y320D02*
X815Y320D01*
X12Y319D02*
X19Y319D01*
X808Y319D02*
X815Y319D01*
X12Y318D02*
X19Y318D01*
X808Y318D02*
X815Y318D01*
X12Y317D02*
X20Y317D01*
X807Y317D02*
X815Y317D01*
X13Y316D02*
X20Y316D01*
X807Y316D02*
X814Y316D01*
X13Y315D02*
X20Y315D01*
X807Y315D02*
X814Y315D01*
X13Y314D02*
X20Y314D01*
X807Y314D02*
X814Y314D01*
X13Y313D02*
X21Y313D01*
X806Y313D02*
X814Y313D01*
X14Y312D02*
X21Y312D01*
X806Y312D02*
X813Y312D01*
X14Y311D02*
X21Y311D01*
X806Y311D02*
X813Y311D01*
X14Y310D02*
X21Y310D01*
X806Y310D02*
X813Y310D01*
X14Y309D02*
X22Y309D01*
X805Y309D02*
X813Y309D01*
X15Y308D02*
X22Y308D01*
X805Y308D02*
X812Y308D01*
X15Y307D02*
X22Y307D01*
X805Y307D02*
X812Y307D01*
X15Y306D02*
X22Y306D01*
X805Y306D02*
X812Y306D01*
X15Y305D02*
X23Y305D01*
X804Y305D02*
X812Y305D01*
X16Y304D02*
X23Y304D01*
X804Y304D02*
X811Y304D01*
X16Y303D02*
X23Y303D01*
X804Y303D02*
X811Y303D01*
X16Y302D02*
X23Y302D01*
X804Y302D02*
X811Y302D01*
X17Y301D02*
X24Y301D01*
X803Y301D02*
X810Y301D01*
X17Y300D02*
X24Y300D01*
X803Y300D02*
X810Y300D01*
X17Y299D02*
X24Y299D01*
X803Y299D02*
X810Y299D01*
X17Y298D02*
X25Y298D01*
X802Y298D02*
X810Y298D01*
X18Y297D02*
X25Y297D01*
X802Y297D02*
X809Y297D01*
X18Y296D02*
X25Y296D01*
X802Y296D02*
X809Y296D01*
X18Y295D02*
X26Y295D01*
X801Y295D02*
X809Y295D01*
X19Y294D02*
X26Y294D01*
X801Y294D02*
X808Y294D01*
X19Y293D02*
X26Y293D01*
X801Y293D02*
X808Y293D01*
X19Y292D02*
X26Y292D01*
X801Y292D02*
X808Y292D01*
X20Y291D02*
X27Y291D01*
X800Y291D02*
X807Y291D01*
X20Y290D02*
X27Y290D01*
X800Y290D02*
X807Y290D01*
X20Y289D02*
X27Y289D01*
X800Y289D02*
X807Y289D01*
X21Y288D02*
X28Y288D01*
X799Y288D02*
X806Y288D01*
X21Y287D02*
X28Y287D01*
X799Y287D02*
X806Y287D01*
X21Y286D02*
X28Y286D01*
X799Y286D02*
X806Y286D01*
X21Y285D02*
X29Y285D01*
X798Y285D02*
X806Y285D01*
X22Y284D02*
X29Y284D01*
X798Y284D02*
X805Y284D01*
X22Y283D02*
X29Y283D01*
X798Y283D02*
X805Y283D01*
X22Y282D02*
X30Y282D01*
X797Y282D02*
X805Y282D01*
X23Y281D02*
X30Y281D01*
X797Y281D02*
X804Y281D01*
X23Y280D02*
X30Y280D01*
X797Y280D02*
X804Y280D01*
X23Y279D02*
X31Y279D01*
X796Y279D02*
X803Y279D01*
X24Y278D02*
X31Y278D01*
X796Y278D02*
X803Y278D01*
X24Y277D02*
X32Y277D01*
X795Y277D02*
X803Y277D01*
X25Y276D02*
X32Y276D01*
X795Y276D02*
X802Y276D01*
X25Y275D02*
X32Y275D01*
X795Y275D02*
X802Y275D01*
X25Y274D02*
X33Y274D01*
X794Y274D02*
X802Y274D01*
X26Y273D02*
X33Y273D01*
X794Y273D02*
X801Y273D01*
X26Y272D02*
X33Y272D01*
X794Y272D02*
X801Y272D01*
X26Y271D02*
X34Y271D01*
X793Y271D02*
X801Y271D01*
X27Y270D02*
X34Y270D01*
X793Y270D02*
X800Y270D01*
X27Y269D02*
X34Y269D01*
X793Y269D02*
X800Y269D01*
X27Y268D02*
X35Y268D01*
X792Y268D02*
X800Y268D01*
X28Y267D02*
X35Y267D01*
X792Y267D02*
X799Y267D01*
X28Y266D02*
X36Y266D01*
X791Y266D02*
X799Y266D01*
X29Y265D02*
X36Y265D01*
X791Y265D02*
X798Y265D01*
X29Y264D02*
X36Y264D01*
X791Y264D02*
X798Y264D01*
X29Y263D02*
X37Y263D01*
X790Y263D02*
X798Y263D01*
X30Y262D02*
X37Y262D01*
X790Y262D02*
X797Y262D01*
X30Y261D02*
X38Y261D01*
X789Y261D02*
X797Y261D01*
X31Y260D02*
X38Y260D01*
X789Y260D02*
X796Y260D01*
X31Y259D02*
X38Y259D01*
X789Y259D02*
X796Y259D01*
X31Y258D02*
X39Y258D01*
X788Y258D02*
X796Y258D01*
X32Y257D02*
X39Y257D01*
X788Y257D02*
X795Y257D01*
X32Y256D02*
X40Y256D01*
X787Y256D02*
X795Y256D01*
X33Y255D02*
X40Y255D01*
X787Y255D02*
X794Y255D01*
X33Y254D02*
X41Y254D01*
X786Y254D02*
X794Y254D01*
X33Y253D02*
X41Y253D01*
X786Y253D02*
X794Y253D01*
X34Y252D02*
X41Y252D01*
X786Y252D02*
X793Y252D01*
X34Y251D02*
X42Y251D01*
X785Y251D02*
X793Y251D01*
X35Y250D02*
X42Y250D01*
X785Y250D02*
X792Y250D01*
X35Y249D02*
X43Y249D01*
X784Y249D02*
X792Y249D01*
X36Y248D02*
X43Y248D01*
X784Y248D02*
X791Y248D01*
X36Y247D02*
X44Y247D01*
X783Y247D02*
X791Y247D01*
X37Y246D02*
X44Y246D01*
X783Y246D02*
X790Y246D01*
X37Y245D02*
X45Y245D01*
X782Y245D02*
X790Y245D01*
X37Y244D02*
X45Y244D01*
X782Y244D02*
X790Y244D01*
X38Y243D02*
X46Y243D01*
X781Y243D02*
X789Y243D01*
X38Y242D02*
X46Y242D01*
X781Y242D02*
X789Y242D01*
X39Y241D02*
X46Y241D01*
X781Y241D02*
X788Y241D01*
X39Y240D02*
X47Y240D01*
X780Y240D02*
X788Y240D01*
X40Y239D02*
X47Y239D01*
X780Y239D02*
X787Y239D01*
X40Y238D02*
X48Y238D01*
X779Y238D02*
X787Y238D01*
X41Y237D02*
X48Y237D01*
X779Y237D02*
X786Y237D01*
X41Y236D02*
X49Y236D01*
X778Y236D02*
X786Y236D01*
X42Y235D02*
X49Y235D01*
X778Y235D02*
X785Y235D01*
X42Y234D02*
X50Y234D01*
X777Y234D02*
X785Y234D01*
X43Y233D02*
X50Y233D01*
X777Y233D02*
X784Y233D01*
X43Y232D02*
X51Y232D01*
X776Y232D02*
X784Y232D01*
X44Y231D02*
X51Y231D01*
X776Y231D02*
X783Y231D01*
X44Y230D02*
X52Y230D01*
X775Y230D02*
X783Y230D01*
X45Y229D02*
X52Y229D01*
X775Y229D02*
X782Y229D01*
X45Y228D02*
X53Y228D01*
X774Y228D02*
X782Y228D01*
X46Y227D02*
X53Y227D01*
X774Y227D02*
X781Y227D01*
X46Y226D02*
X54Y226D01*
X773Y226D02*
X781Y226D01*
X47Y225D02*
X54Y225D01*
X773Y225D02*
X780Y225D01*
X47Y224D02*
X55Y224D01*
X772Y224D02*
X780Y224D01*
X48Y223D02*
X55Y223D01*
X772Y223D02*
X779Y223D01*
X48Y222D02*
X56Y222D01*
X771Y222D02*
X779Y222D01*
X49Y221D02*
X57Y221D01*
X770Y221D02*
X778Y221D01*
X49Y220D02*
X57Y220D01*
X770Y220D02*
X778Y220D01*
X50Y219D02*
X58Y219D01*
X769Y219D02*
X777Y219D01*
X50Y218D02*
X58Y218D01*
X769Y218D02*
X777Y218D01*
X51Y217D02*
X59Y217D01*
X768Y217D02*
X776Y217D01*
X51Y216D02*
X59Y216D01*
X768Y216D02*
X776Y216D01*
X52Y215D02*
X60Y215D01*
X767Y215D02*
X775Y215D01*
X52Y214D02*
X61Y214D01*
X766Y214D02*
X775Y214D01*
X53Y213D02*
X61Y213D01*
X766Y213D02*
X774Y213D01*
X54Y212D02*
X62Y212D01*
X765Y212D02*
X773Y212D01*
X54Y211D02*
X62Y211D01*
X765Y211D02*
X773Y211D01*
X55Y210D02*
X63Y210D01*
X764Y210D02*
X772Y210D01*
X55Y209D02*
X63Y209D01*
X764Y209D02*
X772Y209D01*
X56Y208D02*
X64Y208D01*
X763Y208D02*
X771Y208D01*
X56Y207D02*
X65Y207D01*
X762Y207D02*
X771Y207D01*
X57Y206D02*
X65Y206D01*
X762Y206D02*
X770Y206D01*
X58Y205D02*
X66Y205D01*
X761Y205D02*
X769Y205D01*
X58Y204D02*
X66Y204D01*
X761Y204D02*
X769Y204D01*
X59Y203D02*
X67Y203D01*
X760Y203D02*
X768Y203D01*
X59Y202D02*
X68Y202D01*
X759Y202D02*
X768Y202D01*
X60Y201D02*
X68Y201D01*
X759Y201D02*
X767Y201D01*
X60Y200D02*
X69Y200D01*
X758Y200D02*
X767Y200D01*
X61Y199D02*
X69Y199D01*
X758Y199D02*
X766Y199D01*
X62Y198D02*
X70Y198D01*
X757Y198D02*
X765Y198D01*
X62Y197D02*
X71Y197D01*
X756Y197D02*
X765Y197D01*
X63Y196D02*
X71Y196D01*
X756Y196D02*
X764Y196D01*
X64Y195D02*
X72Y195D01*
X755Y195D02*
X763Y195D01*
X64Y194D02*
X73Y194D01*
X754Y194D02*
X763Y194D01*
X65Y193D02*
X73Y193D01*
X754Y193D02*
X762Y193D01*
X66Y192D02*
X74Y192D01*
X753Y192D02*
X761Y192D01*
X66Y191D02*
X75Y191D01*
X752Y191D02*
X761Y191D01*
X67Y190D02*
X75Y190D01*
X752Y190D02*
X760Y190D01*
X67Y189D02*
X76Y189D01*
X751Y189D02*
X760Y189D01*
X68Y188D02*
X77Y188D01*
X750Y188D02*
X759Y188D01*
X69Y187D02*
X77Y187D01*
X750Y187D02*
X758Y187D01*
X69Y186D02*
X78Y186D01*
X749Y186D02*
X758Y186D01*
X70Y185D02*
X79Y185D01*
X748Y185D02*
X757Y185D01*
X71Y184D02*
X79Y184D01*
X748Y184D02*
X756Y184D01*
X71Y183D02*
X80Y183D01*
X747Y183D02*
X756Y183D01*
X72Y182D02*
X81Y182D01*
X746Y182D02*
X755Y182D01*
X73Y181D02*
X81Y181D01*
X746Y181D02*
X754Y181D01*
X73Y180D02*
X82Y180D01*
X745Y180D02*
X754Y180D01*
X74Y179D02*
X83Y179D01*
X744Y179D02*
X753Y179D01*
X75Y178D02*
X84Y178D01*
X743Y178D02*
X752Y178D01*
X76Y177D02*
X84Y177D01*
X743Y177D02*
X751Y177D01*
X76Y176D02*
X85Y176D01*
X742Y176D02*
X751Y176D01*
X77Y175D02*
X86Y175D01*
X741Y175D02*
X750Y175D01*
X78Y174D02*
X86Y174D01*
X741Y174D02*
X749Y174D01*
X78Y173D02*
X87Y173D01*
X740Y173D02*
X749Y173D01*
X79Y172D02*
X88Y172D01*
X739Y172D02*
X748Y172D01*
X80Y171D02*
X89Y171D01*
X738Y171D02*
X747Y171D01*
X81Y170D02*
X89Y170D01*
X738Y170D02*
X746Y170D01*
X81Y169D02*
X90Y169D01*
X737Y169D02*
X746Y169D01*
X82Y168D02*
X91Y168D01*
X736Y168D02*
X745Y168D01*
X83Y167D02*
X92Y167D01*
X735Y167D02*
X744Y167D01*
X83Y166D02*
X92Y166D01*
X735Y166D02*
X744Y166D01*
X84Y165D02*
X93Y165D01*
X734Y165D02*
X743Y165D01*
X85Y164D02*
X94Y164D01*
X733Y164D02*
X742Y164D01*
X86Y163D02*
X95Y163D01*
X732Y163D02*
X741Y163D01*
X87Y162D02*
X96Y162D01*
X731Y162D02*
X740Y162D01*
X87Y161D02*
X96Y161D01*
X731Y161D02*
X740Y161D01*
X88Y160D02*
X97Y160D01*
X730Y160D02*
X739Y160D01*
X89Y159D02*
X98Y159D01*
X729Y159D02*
X738Y159D01*
X90Y158D02*
X99Y158D01*
X728Y158D02*
X737Y158D01*
X90Y157D02*
X100Y157D01*
X727Y157D02*
X737Y157D01*
X91Y156D02*
X100Y156D01*
X727Y156D02*
X736Y156D01*
X92Y155D02*
X101Y155D01*
X726Y155D02*
X735Y155D01*
X93Y154D02*
X102Y154D01*
X725Y154D02*
X734Y154D01*
X94Y153D02*
X103Y153D01*
X724Y153D02*
X733Y153D01*
X94Y152D02*
X104Y152D01*
X723Y152D02*
X733Y152D01*
X95Y151D02*
X105Y151D01*
X722Y151D02*
X732Y151D01*
X96Y150D02*
X106Y150D01*
X721Y150D02*
X731Y150D01*
X97Y149D02*
X106Y149D01*
X721Y149D02*
X730Y149D01*
X98Y148D02*
X107Y148D01*
X720Y148D02*
X729Y148D01*
X99Y147D02*
X108Y147D01*
X719Y147D02*
X728Y147D01*
X99Y146D02*
X109Y146D01*
X718Y146D02*
X728Y146D01*
X100Y145D02*
X110Y145D01*
X717Y145D02*
X727Y145D01*
X101Y144D02*
X111Y144D01*
X716Y144D02*
X726Y144D01*
X102Y143D02*
X112Y143D01*
X715Y143D02*
X725Y143D01*
X103Y142D02*
X112Y142D01*
X715Y142D02*
X724Y142D01*
X104Y141D02*
X113Y141D01*
X714Y141D02*
X723Y141D01*
X105Y140D02*
X114Y140D01*
X713Y140D02*
X722Y140D01*
X106Y139D02*
X115Y139D01*
X712Y139D02*
X721Y139D01*
X106Y138D02*
X116Y138D01*
X711Y138D02*
X721Y138D01*
X107Y137D02*
X117Y137D01*
X710Y137D02*
X720Y137D01*
X108Y136D02*
X118Y136D01*
X709Y136D02*
X719Y136D01*
X109Y135D02*
X119Y135D01*
X708Y135D02*
X718Y135D01*
X110Y134D02*
X120Y134D01*
X707Y134D02*
X717Y134D01*
X111Y133D02*
X121Y133D01*
X706Y133D02*
X716Y133D01*
X112Y132D02*
X122Y132D01*
X705Y132D02*
X715Y132D01*
X113Y131D02*
X123Y131D01*
X704Y131D02*
X714Y131D01*
X114Y130D02*
X124Y130D01*
X703Y130D02*
X713Y130D01*
X115Y129D02*
X125Y129D01*
X702Y129D02*
X712Y129D01*
X116Y128D02*
X126Y128D01*
X701Y128D02*
X711Y128D01*
X117Y127D02*
X127Y127D01*
X700Y127D02*
X710Y127D01*
X118Y126D02*
X128Y126D01*
X699Y126D02*
X709Y126D01*
X119Y125D02*
X129Y125D01*
X698Y125D02*
X708Y125D01*
X120Y124D02*
X130Y124D01*
X697Y124D02*
X707Y124D01*
X121Y123D02*
X131Y123D01*
X696Y123D02*
X706Y123D01*
X121Y122D02*
X132Y122D01*
X695Y122D02*
X706Y122D01*
X122Y121D02*
X133Y121D01*
X694Y121D02*
X705Y121D01*
X124Y120D02*
X134Y120D01*
X693Y120D02*
X703Y120D01*
X125Y119D02*
X135Y119D01*
X692Y119D02*
X702Y119D01*
X126Y118D02*
X136Y118D01*
X691Y118D02*
X701Y118D01*
X127Y117D02*
X137Y117D01*
X690Y117D02*
X700Y117D01*
X128Y116D02*
X138Y116D01*
X689Y116D02*
X699Y116D01*
X129Y115D02*
X139Y115D01*
X688Y115D02*
X698Y115D01*
X130Y114D02*
X140Y114D01*
X687Y114D02*
X697Y114D01*
X131Y113D02*
X141Y113D01*
X686Y113D02*
X696Y113D01*
X132Y112D02*
X143Y112D01*
X684Y112D02*
X695Y112D01*
X133Y111D02*
X144Y111D01*
X683Y111D02*
X694Y111D01*
X134Y110D02*
X145Y110D01*
X682Y110D02*
X693Y110D01*
X135Y109D02*
X146Y109D01*
X681Y109D02*
X692Y109D01*
X136Y108D02*
X147Y108D01*
X680Y108D02*
X691Y108D01*
X137Y107D02*
X148Y107D01*
X679Y107D02*
X690Y107D01*
X138Y106D02*
X150Y106D01*
X677Y106D02*
X689Y106D01*
X140Y105D02*
X151Y105D01*
X676Y105D02*
X687Y105D01*
X141Y104D02*
X152Y104D01*
X675Y104D02*
X686Y104D01*
X142Y103D02*
X153Y103D01*
X674Y103D02*
X685Y103D01*
X143Y102D02*
X154Y102D01*
X673Y102D02*
X684Y102D01*
X144Y101D02*
X155Y101D01*
X672Y101D02*
X683Y101D01*
X145Y100D02*
X157Y100D01*
X670Y100D02*
X682Y100D01*
X146Y99D02*
X158Y99D01*
X669Y99D02*
X681Y99D01*
X148Y98D02*
X159Y98D01*
X668Y98D02*
X679Y98D01*
X149Y97D02*
X160Y97D01*
X667Y97D02*
X678Y97D01*
X150Y96D02*
X162Y96D01*
X665Y96D02*
X677Y96D01*
X151Y95D02*
X163Y95D01*
X664Y95D02*
X676Y95D01*
X152Y94D02*
X164Y94D01*
X663Y94D02*
X675Y94D01*
X154Y93D02*
X165Y93D01*
X662Y93D02*
X673Y93D01*
X155Y92D02*
X167Y92D01*
X660Y92D02*
X672Y92D01*
X156Y91D02*
X168Y91D01*
X659Y91D02*
X671Y91D01*
X157Y90D02*
X169Y90D01*
X658Y90D02*
X670Y90D01*
X159Y89D02*
X171Y89D01*
X656Y89D02*
X668Y89D01*
X160Y88D02*
X172Y88D01*
X655Y88D02*
X667Y88D01*
X161Y87D02*
X173Y87D01*
X654Y87D02*
X666Y87D01*
X163Y86D02*
X175Y86D01*
X652Y86D02*
X664Y86D01*
X164Y85D02*
X176Y85D01*
X651Y85D02*
X663Y85D01*
X165Y84D02*
X178Y84D01*
X649Y84D02*
X662Y84D01*
X166Y83D02*
X179Y83D01*
X648Y83D02*
X661Y83D01*
X168Y82D02*
X180Y82D01*
X647Y82D02*
X659Y82D01*
X169Y81D02*
X182Y81D01*
X645Y81D02*
X658Y81D01*
X171Y80D02*
X183Y80D01*
X644Y80D02*
X656Y80D01*
X172Y79D02*
X185Y79D01*
X642Y79D02*
X655Y79D01*
X173Y78D02*
X186Y78D01*
X641Y78D02*
X654Y78D01*
X175Y77D02*
X188Y77D01*
X639Y77D02*
X652Y77D01*
X176Y76D02*
X189Y76D01*
X638Y76D02*
X651Y76D01*
X178Y75D02*
X191Y75D01*
X636Y75D02*
X649Y75D01*
X179Y74D02*
X192Y74D01*
X635Y74D02*
X648Y74D01*
X180Y73D02*
X194Y73D01*
X633Y73D02*
X647Y73D01*
X182Y72D02*
X195Y72D01*
X632Y72D02*
X645Y72D01*
X183Y71D02*
X197Y71D01*
X630Y71D02*
X644Y71D01*
X185Y70D02*
X198Y70D01*
X629Y70D02*
X642Y70D01*
X186Y69D02*
X200Y69D01*
X627Y69D02*
X641Y69D01*
X188Y68D02*
X202Y68D01*
X625Y68D02*
X639Y68D01*
X189Y67D02*
X203Y67D01*
X624Y67D02*
X638Y67D01*
X191Y66D02*
X205Y66D01*
X622Y66D02*
X636Y66D01*
X193Y65D02*
X207Y65D01*
X620Y65D02*
X634Y65D01*
X194Y64D02*
X208Y64D01*
X619Y64D02*
X633Y64D01*
X196Y63D02*
X210Y63D01*
X617Y63D02*
X631Y63D01*
X197Y62D02*
X212Y62D01*
X615Y62D02*
X630Y62D01*
X199Y61D02*
X214Y61D01*
X613Y61D02*
X628Y61D01*
X200Y60D02*
X215Y60D01*
X612Y60D02*
X627Y60D01*
X202Y59D02*
X217Y59D01*
X610Y59D02*
X625Y59D01*
X204Y58D02*
X219Y58D01*
X608Y58D02*
X623Y58D01*
X206Y57D02*
X221Y57D01*
X606Y57D02*
X621Y57D01*
X207Y56D02*
X222Y56D01*
X605Y56D02*
X620Y56D01*
X209Y55D02*
X224Y55D01*
X603Y55D02*
X618Y55D01*
X211Y54D02*
X226Y54D01*
X601Y54D02*
X616Y54D01*
X213Y53D02*
X228Y53D01*
X599Y53D02*
X614Y53D01*
X214Y52D02*
X230Y52D01*
X597Y52D02*
X613Y52D01*
X216Y51D02*
X232Y51D01*
X595Y51D02*
X611Y51D01*
X218Y50D02*
X234Y50D01*
X593Y50D02*
X609Y50D01*
X220Y49D02*
X236Y49D01*
X591Y49D02*
X607Y49D01*
X222Y48D02*
X238Y48D01*
X589Y48D02*
X605Y48D01*
X224Y47D02*
X240Y47D01*
X587Y47D02*
X603Y47D01*
X226Y46D02*
X243Y46D01*
X584Y46D02*
X601Y46D01*
X228Y45D02*
X245Y45D01*
X582Y45D02*
X599Y45D01*
X230Y44D02*
X247Y44D01*
X580Y44D02*
X597Y44D01*
X232Y43D02*
X249Y43D01*
X578Y43D02*
X595Y43D01*
X234Y42D02*
X251Y42D01*
X576Y42D02*
X593Y42D01*
X236Y41D02*
X254Y41D01*
X573Y41D02*
X591Y41D01*
X238Y40D02*
X256Y40D01*
X571Y40D02*
X589Y40D01*
X240Y39D02*
X258Y39D01*
X569Y39D02*
X587Y39D01*
X242Y38D02*
X261Y38D01*
X566Y38D02*
X585Y38D01*
X244Y37D02*
X263Y37D01*
X564Y37D02*
X583Y37D01*
X247Y36D02*
X266Y36D01*
X561Y36D02*
X580Y36D01*
X249Y35D02*
X268Y35D01*
X559Y35D02*
X578Y35D01*
X251Y34D02*
X271Y34D01*
X556Y34D02*
X576Y34D01*
X253Y33D02*
X274Y33D01*
X553Y33D02*
X574Y33D01*
X256Y32D02*
X277Y32D01*
X550Y32D02*
X571Y32D01*
X258Y31D02*
X279Y31D01*
X548Y31D02*
X569Y31D01*
X261Y30D02*
X282Y30D01*
X545Y30D02*
X566Y30D01*
X263Y29D02*
X285Y29D01*
X542Y29D02*
X564Y29D01*
X266Y28D02*
X288Y28D01*
X539Y28D02*
X561Y28D01*
X268Y27D02*
X291Y27D01*
X536Y27D02*
X559Y27D01*
X271Y26D02*
X295Y26D01*
X532Y26D02*
X556Y26D01*
X274Y25D02*
X298Y25D01*
X529Y25D02*
X553Y25D01*
X277Y24D02*
X301Y24D01*
X526Y24D02*
X550Y24D01*
X280Y23D02*
X305Y23D01*
X522Y23D02*
X547Y23D01*
X282Y22D02*
X309Y22D01*
X518Y22D02*
X545Y22D01*
X285Y21D02*
X313Y21D01*
X514Y21D02*
X542Y21D01*
X289Y20D02*
X317Y20D01*
X510Y20D02*
X538Y20D01*
X292Y19D02*
X321Y19D01*
X506Y19D02*
X535Y19D01*
X295Y18D02*
X325Y18D01*
X502Y18D02*
X532Y18D01*
X298Y17D02*
X330Y17D01*
X497Y17D02*
X529Y17D01*
X302Y16D02*
X335Y16D01*
X492Y16D02*
X525Y16D01*
X305Y15D02*
X340Y15D01*
X487Y15D02*
X522Y15D01*
X309Y14D02*
X346Y14D01*
X481Y14D02*
X518Y14D01*
X313Y13D02*
X352Y13D01*
X475Y13D02*
X514Y13D01*
X317Y12D02*
X359Y12D01*
X468Y12D02*
X510Y12D01*
X321Y11D02*
X368Y11D01*
X459Y11D02*
X506Y11D01*
X326Y10D02*
X378Y10D01*
X449Y10D02*
X501Y10D01*
X330Y9D02*
X393Y9D01*
X434Y9D02*
X497Y9D01*
X336Y8D02*
X491Y8D01*
X341Y7D02*
X486Y7D01*
X347Y6D02*
X480Y6D01*
X353Y5D02*
X474Y5D01*
X360Y4D02*
X467Y4D01*
X369Y3D02*
X458Y3D01*
X379Y2D02*
X448Y2D01*
X394Y1D02*
X433Y1D01*
D02*
G04 End of Silk0*
M02*